<mxfile host="Electron" agent="Mozilla/5.0 (Windows NT 10.0; Win64; x64) AppleWebKit/537.36 (KHTML, like Gecko) draw.io/27.0.2 Chrome/134.0.6998.205 Electron/35.3.0 Safari/537.36" version="27.0.2">
  <diagram name="Page-1" id="vVYRpVXnNLdEuHQDFxP9">
    <mxGraphModel dx="1866" dy="973" grid="1" gridSize="11" guides="1" tooltips="1" connect="1" arrows="1" fold="1" page="1" pageScale="1" pageWidth="850" pageHeight="1100" math="0" shadow="0">
      <root>
        <mxCell id="0" />
        <mxCell id="1" parent="0" />
        <mxCell id="3uFnyy_M7m7yZh6EPuy3-18" value="" style="rounded=1;whiteSpace=wrap;html=1;fontColor=#00C895;strokeColor=#00C895;strokeWidth=4;" parent="1" vertex="1">
          <mxGeometry x="671" y="209" width="385" height="627" as="geometry" />
        </mxCell>
        <mxCell id="xQfZzW-gzSWbZSPTEg91-2" value="" style="rounded=1;whiteSpace=wrap;html=1;fontColor=#00C895;strokeColor=#00C895;strokeWidth=4;" parent="1" vertex="1">
          <mxGeometry x="693" y="330" width="132" height="473" as="geometry" />
        </mxCell>
        <mxCell id="9JEJFbvVPndM7wwkYAKE-34" value="" style="rounded=1;whiteSpace=wrap;html=1;fontColor=#00C895;strokeColor=light-dark(#20b3e7, #009064);strokeWidth=4;" parent="1" vertex="1">
          <mxGeometry x="308" y="397" width="339.5" height="264" as="geometry" />
        </mxCell>
        <mxCell id="9JEJFbvVPndM7wwkYAKE-28" value="" style="rounded=1;whiteSpace=wrap;html=1;fontColor=#00C895;strokeColor=light-dark(#20b3e7, #009064);strokeWidth=4;" parent="1" vertex="1">
          <mxGeometry x="1167.5" y="231" width="339.5" height="77" as="geometry" />
        </mxCell>
        <mxCell id="9JEJFbvVPndM7wwkYAKE-18" value="" style="rounded=1;whiteSpace=wrap;html=1;fontColor=#00C895;strokeColor=light-dark(#208779, #ededed);strokeWidth=4;" parent="1" vertex="1">
          <mxGeometry x="1167.5" y="363" width="339.5" height="198" as="geometry" />
        </mxCell>
        <mxCell id="9JEJFbvVPndM7wwkYAKE-14" value="" style="rounded=1;whiteSpace=wrap;html=1;fontColor=#00C895;strokeColor=light-dark(#009cf9, #009064);strokeWidth=4;" parent="1" vertex="1">
          <mxGeometry x="1155" y="607" width="405.5" height="218" as="geometry" />
        </mxCell>
        <mxCell id="77WKknoFe-UdvtvTZswO-19" value="Solace Broker ZA&#xa;(AWS)" style="shape=image;verticalLabelPosition=top;verticalAlign=bottom;imageAspect=0;aspect=fixed;image=data:image/svg+xml,PHN2ZyB4bWxucz0iaHR0cDovL3d3dy53My5vcmcvMjAwMC9zdmciIHZpZXdCb3g9IjAgMCA3MiA3MiI+PGRlZnM+PHN0eWxlPi5jbHMtMXtmaWxsOiM0NmM3OTU7fS5jbHMtMntmaWxsOiNmZmY7fS5jbHMtM3tmaWxsOiMwMjAyMDI7fTwvc3R5bGU+PC9kZWZzPjxnIGRhdGEtbmFtZT0iTGF5ZXIgMiIgaWQ9IkxheWVyXzIiPjxnIGRhdGEtbmFtZT0iTGF5ZXIgNSIgaWQ9IkxheWVyXzUiPjxjaXJjbGUgcj0iMzYiIGN5PSIzNiIgY3g9IjM2IiBjbGFzcz0iY2xzLTEiLz48cGF0aCBkPSJNNjEuMzcsMjguMkg1My45di04YTQuNSw0LjUsMCwxLDAtMi42LjA2VjI4LjJIMzcuMVYxMi45NGE0LjUsNC41LDAsMSwwLTIuNiwwVjI4LjJIMjAuNHYtOGE0LjUsNC41LDAsMSwwLTIuNiwwdjhoLTdhNC4zOSw0LjM5LDAsMCwwLTQuMzksNC4zOXY5LjIyYTQuMzksNC4zOSwwLDAsMCw0LjM5LDQuMzlIMTcuOHY1LjU2YTQuNSw0LjUsMCwxLDAsMi42LDBWNDYuMkgzNC41VjU5LjA2YTQuNSw0LjUsMCwxLDAsMi42LDBWNDYuMkg1MS4zdjUuNTNhNC41LDQuNSwwLDEsMCwyLjYuMDZWNDYuMmg3LjQ3YTQuMzgsNC4zOCwwLDAsMCw0LjM5LTQuMzlWMzIuNTlBNC4zOCw0LjM4LDAsMCwwLDYxLjM3LDI4LjJaIiBjbGFzcz0iY2xzLTIiLz48cGF0aCBkPSJNMTcuMjIsMzUuNDhBMy41NCwzLjU0LDAsMCwxLDE3LDM2LjgzYTIuNTMsMi41MywwLDAsMS0uNjksMSwzLjEsMy4xLDAsMCwxLTEuMTIuNjEsNSw1LDAsMCwxLTEuNTcuMjJoLS43NnYyLjlhLjIuMiwwLDAsMSwwLC4xMy40OS40OSwwLDAsMS0uMTUuMDlsLS4yOCwwYTMuMzksMy4zOSwwLDAsMS0uOSwwLDEuNTUsMS41NSwwLDAsMS0uMjksMCwuMzMuMzMsMCwwLDEtLjE0LS4wOS4yMS4yMSwwLDAsMSwwLS4xM1YzMy4zOGEuNjUuNjUsMCwwLDEsLjE4LS41LjYxLjYxLDAsMCwxLC40NS0uMTdoMi4xNGE2LDYsMCwwLDEsLjYyLDBjLjE5LDAsLjQzLDAsLjcuMWEzLjYyLDMuNjIsMCwwLDEsLjgzLjMsMi41OSwyLjU5LDAsMCwxLC43MS41NiwyLjE2LDIuMTYsMCwwLDEsLjQ1Ljc4QTMuMDksMy4wOSwwLDAsMSwxNy4yMiwzNS40OFptLTEuOTMuMTNhMS42OCwxLjY4LDAsMCwwLS4xNy0uNzksMS4yLDEuMiwwLDAsMC0uNDEtLjQ1LDEuNDksMS40OSwwLDAsMC0uNTItLjE5LDMuNDMsMy40MywwLDAsMC0uNTYsMGgtLjc5djMuMDloLjgzYTIsMiwwLDAsMCwuNzUtLjEyLDEuMiwxLjIsMCwwLDAsLjQ4LS4zNCwxLjI4LDEuMjgsMCwwLDAsLjI5LS41MUExLjkzLDEuOTMsMCwwLDAsMTUuMjksMzUuNjFaIiBjbGFzcz0iY2xzLTMiLz48cGF0aCBkPSJNMjQuNSw0MS41N2EuMjguMjgsMCwwLDEsMCwuMTMuMzIuMzIsMCwwLDEtLjEzLjA4LjY0LjY0LDAsMCwxLS4yMy4wNmwtLjM2LDAtLjM4LDBhLjcuNywwLDAsMS0uMjMtLjA2QS4zNi4zNiwwLDAsMSwyMyw0MS43YS4yOC4yOCwwLDAsMSwwLS4xM3YtLjcyYTQsNCwwLDAsMS0xLjA2Ljg0LDIuMzQsMi4zNCwwLDAsMS0xLjExLjI4LDIuNTIsMi41MiwwLDAsMS0xLjA5LS4yMSwxLjkxLDEuOTEsMCwwLDEtLjcxLS41NywyLjQ1LDIuNDUsMCwwLDEtLjM5LS44NSw1LjcsNS43LDAsMCwxLS4xMS0xLjJWMzUuM2EuMTcuMTcsMCwwLDEsMC0uMTIuMjEuMjEsMCwwLDEsLjE0LS4wOUExLjQ2LDEuNDYsMCwwLDEsMTksMzVsLjQzLDAsLjQzLDBhMS40NiwxLjQ2LDAsMCwxLC4yNy4wNS4yOC4yOCwwLDAsMSwuMTQuMDkuMTcuMTcsMCwwLDEsMCwuMTJ2My41NWEzLDMsMCwwLDAsLjA3Ljc1LDEuMTgsMS4xOCwwLDAsMCwuMTkuNDQuOTEuOTEsMCwwLDAsLjMzLjI5LDEsMSwwLDAsMCwuNDcuMSwxLjIsMS4yLDAsMCwwLC42OC0uMjQsNC4wNSw0LjA1LDAsMCwwLC43Mi0uNzJWMzUuM2EuMjIuMjIsMCwwLDEsLjE4LS4yMSwxLjQ2LDEuNDYsMCwwLDEsLjI3LS4wNWwuNDMsMCwuNDMsMGExLjQ2LDEuNDYsMCwwLDEsLjI3LjA1LjI4LjI4LDAsMCwxLC4xNC4wOS4xNy4xNywwLDAsMSwwLC4xMloiIGNsYXNzPSJjbHMtMyIvPjxwYXRoIGQ9Ik0zMi41OSwzOC4zNWE1Ljg0LDUuODQsMCwwLDEtLjE4LDEuNTFBMy41MywzLjUzLDAsMCwxLDMxLjg4LDQxYTIuNDEsMi40MSwwLDAsMS0uODQuNzIsMi41MiwyLjUyLDAsMCwxLTEuMTUuMjUsMi44MSwyLjgxLDAsMCwxLS41OS0uMDYsMS43MiwxLjcyLDAsMCwxLS41Mi0uMTksMi41NCwyLjU0LDAsMCwxLS40OS0uMzQsNC41NSw0LjU1LDAsMCwxLS41LS40OXYuNjhhLjE3LjE3LDAsMCwxLDAsLjEzLjE5LjE5LDAsMCwxLS4xMi4wOS43Mi43MiwwLDAsMS0uMjQuMDVsLS4zNiwwLS4zNiwwYS42Ni42NiwwLDAsMS0uMjMtLjA1LjE5LjE5LDAsMCwxLS4xMi0uMDkuMTcuMTcsMCwwLDEsMC0uMTNWMzIuMzNhLjIuMiwwLDAsMSwwLS4xMy4yNy4yNywwLDAsMSwuMTUtLjA5Ljc3Ljc3LDAsMCwxLC4yNy0uMDYsMi42MiwyLjYyLDAsMCwxLC40MywwLDIuNzUsMi43NSwwLDAsMSwuNDMsMCwuOS45LDAsMCwxLC4yNy4wNi4yOC4yOCwwLDAsMSwuMTQuMDkuMi4yLDAsMCwxLDAsLjEzdjMuNDZhMy4zOSwzLjM5LDAsMCwxLC40OC0uNCwyLjM5LDIuMzksMCwwLDEsLjQ4LS4yOEEyLjE2LDIuMTYsMCwwLDEsMjkuNSwzNSwzLjA3LDMuMDcsMCwwLDEsMzAsMzQuOWEyLjMzLDIuMzMsMCwwLDEsMS4xOS4yOCwyLjI2LDIuMjYsMCwwLDEsLjc5Ljc1LDMuMjksMy4yOSwwLDAsMSwuNDQsMS4xQTUuNjgsNS42OCwwLDAsMSwzMi41OSwzOC4zNVptLTEuODMuMTNhNC44MSw0LjgxLDAsMCwwLS4wNi0uNzcsMi4xMywyLjEzLDAsMCwwLS4yMS0uNjYsMS4xNiwxLjE2LDAsMCwwLS4zOC0uNDYsMSwxLDAsMCwwLS42LS4xOCwxLjMzLDEuMzMsMCwwLDAtLjM0LjA1LDEuMjUsMS4yNSwwLDAsMC0uMzUuMTcsMi40MywyLjQzLDAsMCwwLS4zNy4zMSw1LjM0LDUuMzQsMCwwLDAtLjQuNDd2Mi4wOGEzLjgzLDMuODMsMCwwLDAsLjcyLjczLDEuMTQsMS4xNCwwLDAsMCwuNzEuMjUuOTMuOTMsMCwwLDAsLjU4LS4xOCwxLjQ2LDEuNDYsMCwwLDAsLjQtLjQ1LDIuMTEsMi4xMSwwLDAsMCwuMjMtLjY0QTMuNTEsMy41MSwwLDAsMCwzMC43NiwzOC40OFoiIGNsYXNzPSJjbHMtMyIvPjxwYXRoIGQ9Ik0zOS41MSwzOS4wOGEyLjc4LDIuNzgsMCwwLDEtLjI3LDEuMjYsMi42LDIuNiwwLDAsMS0uNzMuOTEsMy4xMiwzLjEyLDAsMCwxLTEuMDYuNTQsNC42Niw0LjY2LDAsMCwxLTEuMzEuMTgsNC44Myw0LjgzLDAsMCwxLS44OC0uMDcsNS4xNiw1LjE2LDAsMCwxLS43MS0uMTksMi44NywyLjg3LDAsMCwxLS41Mi0uMjMsMS40OCwxLjQ4LDAsMCwxLS4zLS4yMUEuNTguNTgsMCwwLDEsMzMuNiw0MWEzLDMsMCwwLDEsMC0uNSwzLjM2LDMuMzYsMCwwLDEsMC0uMzYsMS4xOSwxLjE5LDAsMCwxLDAtLjI0YzAtLjA2LjA1LS4xMS4wOS0uMTNhLjE2LjE2LDAsMCwxLC4xMiwwLC42My42MywwLDAsMSwuMjguMTEsMy41OSwzLjU5LDAsMCwwLC40Ni4yNiwzLjkxLDMuOTEsMCwwLDAsLjY3LjI2LDMuMTEsMy4xMSwwLDAsMCwuOTEuMTEsMS45LDEuOSwwLDAsMCwuNi0uMDgsMS4yLDEuMiwwLDAsMCwuNDUtLjIzLjkzLjkzLDAsMCwwLC4yOS0uMzYsMS4zLDEuMywwLDAsMCwuMS0uNDkuODguODgsMCwwLDAtLjE3LS41M0ExLjY4LDEuNjgsMCwwLDAsMzcsMzguNGE0LDQsMCwwLDAtLjYyLS4zMmwtLjcxLS4zMmE3LDcsMCwwLDEtLjcxLS4zOSwyLjcxLDIuNzEsMCwwLDEtLjYxLS41MSwyLjQzLDIuNDMsMCwwLDEtLjQ0LS43MSwyLjU1LDIuNTUsMCwwLDEtLjE3LTFBMi42LDIuNiwwLDAsMSwzNCwzNGEyLjM0LDIuMzQsMCwwLDEsLjY2LS44MywyLjg2LDIuODYsMCwwLDEsMS0uNDksNC40OCw0LjQ4LDAsMCwxLDEuMTgtLjE2LDQuNzQsNC43NCwwLDAsMSwuNjUuMDUsMy43NSwzLjc1LDAsMCwxLC42LjE0LDIuNjEsMi42MSwwLDAsMSwuNS4xOSwxLjA5LDEuMDksMCwwLDEsLjI5LjE3LjM2LjM2LDAsMCwxLC4wOS4xMi4zOS4zOSwwLDAsMSwuMDUuMTMsMSwxLDAsMCwxLDAsLjIsMi45MSwyLjkxLDAsMCwxLDAsLjMxYzAsLjE0LDAsLjI1LDAsLjM1YTEuMiwxLjIsMCwwLDEsMCwuMjMuMjMuMjMsMCwwLDEtLjA3LjEzLjE2LjE2LDAsMCwxLS4xMiwwLC41OS41OSwwLDAsMS0uMjUtLjFsLS40MS0uMjFhMy43NywzLjc3LDAsMCwwLS41Ny0uMjEsMi42NSwyLjY1LDAsMCwwLS43MS0uMSwxLjY5LDEuNjksMCwwLDAtLjUzLjA4LDEuMTgsMS4xOCwwLDAsMC0uMzcuMi43Ni43NiwwLDAsMC0uMjMuMzEsMS4wNywxLjA3LDAsMCwwLS4wNy4zOS44OC44OCwwLDAsMCwuMTYuNTMsMS44OCwxLjg4LDAsMCwwLC40NC4zOSw2LjE2LDYuMTYsMCwwLDAsLjYzLjMybC43Mi4zMmE1LjYsNS42LDAsMCwxLC43Mi4zOSwyLjc3LDIuNzcsMCwwLDEsLjYyLjUxLDIuNCwyLjQsMCwwLDEsLjQ1LjdBMi41MiwyLjUyLDAsMCwxLDM5LjUxLDM5LjA4WiIgY2xhc3M9ImNscy0zIi8+PHBhdGggZD0iTTQ2Ljc2LDQxLjU3YS4yOC4yOCwwLDAsMSwwLC4xMy4zMi4zMiwwLDAsMS0uMTMuMDguNTguNTgsMCwwLDEtLjIzLjA2bC0uMzYsMC0uMzgsMGEuNTguNTgsMCwwLDEtLjIyLS4wNi4yMy4yMywwLDAsMS0uMTItLjA4LjIuMiwwLDAsMSwwLS4xM3YtLjcyYTQsNCwwLDAsMS0xLjA2Ljg0LDIuMzQsMi4zNCwwLDAsMS0xLjExLjI4QTIuNTIsMi41MiwwLDAsMSw0Miw0MS43NmExLjkxLDEuOTEsMCwwLDEtLjcxLS41NywyLjQ1LDIuNDUsMCwwLDEtLjM5LS44NSw1LjcsNS43LDAsMCwxLS4xMS0xLjJWMzUuM2EuMTcuMTcsMCwwLDEsMC0uMTIuMjEuMjEsMCwwLDEsLjE0LS4wOSwxLjQ2LDEuNDYsMCwwLDEsLjI3LS4wNWwuNDMsMCwuNDMsMGExLjQ2LDEuNDYsMCwwLDEsLjI3LjA1LjI0LjI0LDAsMCwxLC4xNC4wOS4xNy4xNywwLDAsMSwwLC4xMnYzLjU1YTMsMywwLDAsMCwuMDcuNzUsMS4xOCwxLjE4LDAsMCwwLC4xOS40NC45MS45MSwwLDAsMCwuMzMuMjksMSwxLDAsMCwwLC40Ny4xLDEuMiwxLjIsMCwwLDAsLjY4LS4yNCw0LjA1LDQuMDUsMCwwLDAsLjcyLS43MlYzNS4zYS4yNS4yNSwwLDAsMSwwLS4xMi4yOC4yOCwwLDAsMSwuMTQtLjA5LDEuNDYsMS40NiwwLDAsMSwuMjctLjA1bC40MywwLC40MywwYTEuNDYsMS40NiwwLDAsMSwuMjcuMDUuMjQuMjQsMCwwLDEsLjE0LjA5LjE3LjE3LDAsMCwxLDAsLjEyWiIgY2xhc3M9ImNscy0zIi8+PHBhdGggZD0iTTU0Ljg2LDM4LjM1YTUuODMsNS44MywwLDAsMS0uMTksMS41MUEzLjc0LDMuNzQsMCwwLDEsNTQuMTUsNDFhMi40NCwyLjQ0LDAsMCwxLS44NS43MiwyLjUxLDIuNTEsMCwwLDEtMS4xNC4yNSwyLjg0LDIuODQsMCwwLDEtLjYtLjA2LDEuNzIsMS43MiwwLDAsMS0uNTItLjE5LDIuNTQsMi41NCwwLDAsMS0uNDktLjM0LDQuNTUsNC41NSwwLDAsMS0uNS0uNDl2LjY4YS4xNy4xNywwLDAsMSwwLC4xMy4xOS4xOSwwLDAsMS0uMTIuMDkuNzIuNzIsMCwwLDEtLjI0LjA1bC0uMzYsMC0uMzYsMGEuNzEuNzEsMCwwLDEtLjIzLS4wNS4xOS4xOSwwLDAsMS0uMTItLjA5LjE3LjE3LDAsMCwxLDAtLjEzVjMyLjMzYS4yOC4yOCwwLDAsMSwwLS4xMy4yNy4yNywwLDAsMSwuMTUtLjA5LjkuOSwwLDAsMSwuMjctLjA2LDIuNjIsMi42MiwwLDAsMSwuNDMsMCwyLjc1LDIuNzUsMCwwLDEsLjQzLDAsLjkuOSwwLDAsMSwuMjcuMDYuMjguMjgsMCwwLDEsLjE0LjA5LjIuMiwwLDAsMSwwLC4xM3YzLjQ2YTMuMzksMy4zOSwwLDAsMSwuNDgtLjQsMi4zOSwyLjM5LDAsMCwxLC40OC0uMjgsMi4xNiwyLjE2LDAsMCwxLC40OS0uMTYsMy4xLDMuMSwwLDAsMSwuNTQtLjA1LDIuMzIsMi4zMiwwLDAsMSwxLjE4LjI4LDIuMjYsMi4yNiwwLDAsMSwuNzkuNzUsMy4yOSwzLjI5LDAsMCwxLC40NCwxLjFBNS42OCw1LjY4LDAsMCwxLDU0Ljg2LDM4LjM1Wk01MywzOC40OGE0LjgxLDQuODEsMCwwLDAtLjA2LS43NywyLjEzLDIuMTMsMCwwLDAtLjIxLS42NiwxLjE2LDEuMTYsMCwwLDAtLjM4LS40NiwxLDEsMCwwLDAtLjU5LS4xOCwxLjM0LDEuMzQsMCwwLDAtLjM1LjA1LDEuMjUsMS4yNSwwLDAsMC0uMzUuMTcsMi40MywyLjQzLDAsMCwwLS4zNy4zMSw1LjM0LDUuMzQsMCwwLDAtLjQuNDd2Mi4wOGEzLjgzLDMuODMsMCwwLDAsLjcyLjczLDEuMTQsMS4xNCwwLDAsMCwuNzEuMjUuOTMuOTMsMCwwLDAsLjU4LS4xOCwxLjM0LDEuMzQsMCwwLDAsLjQtLjQ1QTIuMTEsMi4xMSwwLDAsMCw1MywzOS4yLDMuNTEsMy41MSwwLDAsMCw1MywzOC40OFoiIGNsYXNzPSJjbHMtMyIvPjxwYXRoIGQ9Ik02Mi4xOSwzNy43N2EyLjkyLDIuOTIsMCwwLDEsMCwuMzMuNzMuNzMsMCwwLDEtLjA3LjIxLjI0LjI0LDAsMCwxLS4wOS4xMi4yOC4yOCwwLDAsMS0uMTIsMEg1OS43djIuMzhhLjE2LjE2LDAsMCwxLDAsLjEyLjIuMiwwLDAsMS0uMTEuMDkuNy43LDAsMCwxLS4yMy4wNiwzLjA3LDMuMDcsMCwwLDEtLjcsMCwuNjQuNjQsMCwwLDEtLjIzLS4wNi4yMy4yMywwLDAsMS0uMTItLjA5LjE2LjE2LDAsMCwxLDAtLjEyVjM4LjQ3SDU2LjA1YS4yOC4yOCwwLDAsMS0uMTIsMCwuMzEuMzEsMCwwLDEtLjA5LS4xMi43My43MywwLDAsMS0uMDctLjIxLDIuNzMsMi43MywwLDAsMSwwLS42Ni41My41MywwLDAsMSwuMDYtLjIxLjE5LjE5LDAsMCwxLC4wOS0uMTIuMjEuMjEsMCwwLDEsLjExLDBoMi4yVjM0LjdhLjIuMiwwLDAsMSwwLS4xMy4yNC4yNCwwLDAsMSwuMTItLjEuNjQuNjQsMCwwLDEsLjIzLS4wNiwzLjA3LDMuMDcsMCwwLDEsLjcsMCwuNy43LDAsMCwxLC4yMy4wNi4yMi4yMiwwLDAsMSwuMTEuMS4yLjIsMCwwLDEsMCwuMTN2Mi4zN2gyLjIxYS4yNS4yNSwwLDAsMSwuMTEsMCwuMzEuMzEsMCwwLDEsLjA5LjEyLDEuNDIsMS40MiwwLDAsMSwuMDYuMjFBMi45MiwyLjkyLDAsMCwxLDYyLjE5LDM3Ljc3WiIgY2xhc3M9ImNscy0zIi8+PC9nPjwvZz48L3N2Zz4=;fontStyle=1;fontSize=14;labelPosition=center;align=center;" parent="1" vertex="1">
          <mxGeometry x="717" y="456.5" width="78.5" height="78.5" as="geometry" />
        </mxCell>
        <mxCell id="9JEJFbvVPndM7wwkYAKE-2" value="" style="shape=image;verticalLabelPosition=bottom;labelBackgroundColor=default;verticalAlign=top;aspect=fixed;imageAspect=0;image=data:image/png,iVBORw0KGgoAAAANSUhEUgAAAcwAAABuCAMAAACdptPlAAAAYFBMVEX///8ptegAsOcXsuf6/v+a2PNRwOs1uenT7vrc8vuf2fP1+/7u+f0vt+mI0vGU1vKw4PW+5vd5zO/Z8Pq75Pbk9fxvye6M0/FDvOrF6Ph+zvBbw+yl3PTU7vpawuy04vYFkG6wAAARpElEQVR4nO1d6WKyvBKWBEEF3EEWq/d/l4dMQtYJhH7tq/Xw/GoFQ8iTTGaNq9WC/zs0h/PtFCMXLrt2f8//eX8WfBublFBKSXG1L+Qdu0Dp4RW9WvAdNCTiIEfzQl5QcaF6Tc8WzEU+cNmTdjGuJFReWL+ocwvmoZWURbTTLzSK5Yhmr+reghmI08jD2ZlqF04v6+CCcGTa+ovIVrtS6ywvcvYvIDfI3GhXjCW7KLR/AQuZH4SFzA/CQuYHYSHzg7CQ+WcRl5fS/OR7ZJaX7eJGeC2yW0EITdd6fOQ7ZF5rSkhUWdNiwb9EmXKfDk21+Mh8Mi8J/wqlzT/r+gILcaFIe0hXz1wys7PXMb/g3+FGddrOYs+bSeaO6K0k//od/hny66E9V3sZlz/Ueyx4H4Br8gv7kbYwuZDcwcezyDyl1GjkU5fm14NH5WkqGDyQfvp/q6kNiWj0g13j2JLIBE3ZnjeDzO3DaeLoedjfxkGKn2G2Jv3f6beW5ppa8YsfwcZmon9IV4aTme0JtRv4zGDKQdMKhJx9NzJLl8yIkn0ZSOYxcqj80JXJZ31vfPVm3FN89m5kWnvmQIdBkZdM6z55/yeamhDHLXaXLFbsvRuZqwPKh0mOl0wU9BO12QssTCu99O3IjNNJNueS+YkLk42+FK8D3o7MVT7J5iwyKd14H/WH0VEkf+39yOxbdhXSb5NJqs90tbMts7Y/fEcyV/kZ0Wm/QyZJvn6lgy9HzBam4x94SzJXq69khM5QMmlhbyofg5hg0ds3JXO1ehZeWRtGJqW3b/op/wBY6qnwdGp4WzJX8cG3dQaRST46kPnXyOy3zgqXtQFkkvojdViJv0fmarWpMTonyaTF/Xf79XLEf5DM1eqOOFsnyKR0/5nmCMfm1OMJ2mzD/tTie79EZjl/OGP8O0gYxPC11jaXLMiC4NJsRvsUN7u26rpqhwQ/N9Utk7fd26pqd83kC5bXG2uvPSLWUXw4z9sGsv1ZDLWoLOazloHs5V1+MrfHPevM/qgRtumUWjFCZvwg1ClwXuWn9blv8bzGBuKaEEJSVDqWnSVrC72/rUk1D386HTpAeKHylspfO0JgiPrBSe/WeGz7S7yMsKmIiAcT0rlvqJDd66E9Smhr81kROi9invbNQOexEKEcTg+Z5aFQnSlugsGSfTbc7Cczrtkls1HxdqLFhx2UEqoOLdCivMbw8NGbfs14Oxqh0+EpZDUl+HpoCmOIaGR2786+nbNu6EKiHxdfqpitiPcvbFCXFf1nrefLaAf7/hGYPF+zyezVSKszfE4zSS3Hw0tmxriUAVP+kW1mWKNeqernBzpjd9rWWZgLW32XkhYTfroDAnW634brg/zqe6H3fsfJdN1SHl9h43qXdWG44ntDMWNzY0WoYilXjphVvgOMzKMbFqSUDX4QmZxLY+JdEQcATRVr+uryMJKfxXSgkcVHPNTB4/PAdA1S5NyDQSrQ+nxruwJenhbamzEyizIZVndUFNHQmRoR3Dsib0ySusBuZWudhFcGM+ddlIp/muPz+TwyEVc92V+aCEfIrGRn0jpJh36TKg4iM4NpafgN98No0aJI5UBERC7Os8G1R1ZC+hKR+Xoa1mwjIyk6ODtrYlJn9HnvaHoUV7ZC48q1Nnoy+Woj6e6Sx3G+vXOjiRa+9kjbwKV4u0vFrWoW5tSu5h8F6K7GoISaJolYwrcNdCb7OnARR+v4Ok0m55Lo67LjXyfVs2QPyrb3hA8XGTY/27zAtZhV2Rw9SuTm+USl88kRCcRumWeQEX1gwFlBH/L/3dCIsaVvuARKVyZa3t5N7+jQDUU82xvceeVD58zCQKcB76J5I8+sofVxkkx+jouxQTw4cXu9M5eO6GxGDjz2xTxsEW+9o2WDNmxTfCf6pj+QSStThMEatGIXIGNpao8LUNwvh+F/ptHQUM8GS4Cy1nEYmaBO0Ic1aTLlWBslsywim8sznwc2NyfeGFcbHVsRJMOoJbftkiQZTdTK2knvEQM8zIk/bAqikk0Ema7+uSZ2i6Bs0oer29wt4lmDTjzSg527wwaReUQmG0BqfGNkCi71oeENImoHLynh9v/NFoYwdtEIV1+wFZKREj7MdcRgTRE4+YK48yb+UoPCycT2OFjWeooR2zDwnCNgU0mA/Qz/Gei+ZhdDyMypZ+j50yfILPkNepbqSIMZMA8vjuVXRmPe8ov4Arl5bkCsAz5D9taNsGXa+54FQSZmSqTm0gSL1J4vAq2uksIbIOWk++Lh7C9wqyUVQshkMtGXzNbRCTIFl44B6WuwhMUF8eO1JxTt8dlslFmKsun4jCSXjkkdTCaefHsi+lyNo8jdfyVS+brDf4V9y4H0Spb9ISxiy4cUQCasEF8yWzaxMrdc0THemTfo2/yuaiB9aT+UHtwFsdHuRSRttsfTZ1GzEFLlJxJr+crErxmccOvP1wycJSb3STA1Ld4haZjYKloUudtrAJlsDvhz+Y90jMyvyOUSRMuI0sYWu+j71ruYnNyPjUGVwyaa1M4nBvZqcHMy6o1hZPq8bzd9FNhgUv9GyC7Le8HUtJSTJ4yBJcgajLcAMuGd/e9VjJDJR5iYAw+eC0dsKIDuN+gVdu2WoisxbMiLxbrJJh4BhfvOqMhuubU4FsQAMj3+GhhqsZZADj3w++ANib5WmPFoba8J76g5HdhOReyuT5MJHbM1BA0gbnAyuUPOlhAn9JHW06lmz/no1HZG6WmWN+tX914qa0+UQihfJPEHQcA08EjiUntFcNSM5JDBRiXJhsEx7havZgqBGJ0h02TelDvX23GcTH60pLP1g5Qd24/u5pzPfCmWynJVMvbY1IOCLdm8BctqrQ9kmBznBpdKwtGOItO00hZbQzrYtiJtDNggDZYGr6ZhKcE+7Ey0aTJhnYz0xVTENTI9XIpM3dgPR0G/OMWV4v3EUyWXLE9dudhFE05x50ATokUp3OVaJwXKZyiZSTThCDCXuD3VuRkXWVrGI8KsomkyWUOj3t8z7s478TF1th2wJItRRM4jsQiL1BEzKVpBVVdsnuTwIBNhKk+vUY/s+Wyd9wgls5gav6uhwX5ZhMDWvI/MGQFi3HXiTJIJnnifFS4f55J54kEBV1XMfRuYCWsyxwf0a3BtiJUN9SOxcASKbQZxC/bmSECCxr0gOp8Hk7lAMpncxJxnChtiiEzWXc3EBbuEa/hKxq31IbceO0ZmSVBKNKCO9uswwM5u65F6OE96TxOEEyNpQvJ/FG5TGMMY43JM/9LQVFTn04ipBpKZqVnlwcbUeXaGN6Dhjp7G9KpbhBuPnSRz1JOPxTOfijH7fbl2RidAbP05P2OkZMNoAIaxPhtkYoW6wSUKcbOvJZ9U1zl+bGUCUUrfyw3rgZkqbHEw+uRW+oV7/abJzKcMCWRllkctJcPe/GFldrf9OOzBXqMGCm9bOnGFlT9U5opw5AP54qzioXJXU7NJhl/aM0Wccng0ezXmLwANf9jtWo9V9AN75tomkwr3+wWNtkwvdRce18HQ8WE/pcCm/E8ECo+4XB/JynOxvQ15QHKW/ZI2a5K7H+JcXMkTlDjmi/7YH9ZmRQ7CZojxms1nCMHjwMLJAOmkUmzm0qpUQV9P4Qmd9SMZsXBeSJ/yz9mZkRnLipUvFxwKqWxG7KwglzEP/zSZTEqRkb6Au88kEz4BzQesBMvU9OzePuRoOJkNq5Y+IwMsQyadHsAvvX5Z94eKxjoCL6PO+wokc54HiAHoB3aPyi1eKod8J69jj532AI0o8q4HCMaJa7EZrArT3wNzLLiCwRdOtjIa7XCZxqW/1ijSD+ILQK0WSjiZENMb8c1enTjGRq48UHvEM2BRfQ2N48HgSTI3E77ZteObZRjUC3gVMyIOvQ880Fc655xFZRuKph1K6yysnYi04VsnePOHPO5QMs2wiAtGmKXNsBXAtJ6NTttpCKgckTCZ9tjpqMnIr/bwIbHIVCMNTj2qz0x9L8exT/mq864oLHlEZ9NYlxx3bzhzxulOhcZLMJkgK71ax2nQVzWshUpUGUIRHp6LKIr/sQHxTO9K4jkRlgKkewp4ZpqdzTXmh+i/AfOx9Iw/JWj1s5K0jjnEECNHronFOaqs60i/QyYPLvuSm6ED1tZd8q/nRtyaO/bW/CLe45BMAzoiJ3LqrkzrYF4w4fW8kXI8js9dRCuvFur1qg5sIuuSP9cX6vbmdNggkdJMg8kUOXj4rZD36Mw9tj+mYC9rYgOGWnyKsxGSAwQGhmeAEoRMm3hHpa1GGuQ6E9scjrhtWftHnrNJE++e4MvoCkxvbIZpxhBOJlecaqxXB0N7lAANuGErWg+NQOrUCT0eRnvsVHYeDBEq9WWwbYxMnnEXmXn4vm2ExzxYfn+HUTnublgzR2A3llqLh7odMVHuEbEIDnzpZ51BJsgarAIFbGLEcwtqBUxqfXsCRyh86hmEoLxZ8LRigy/LQcYz2nlWl2ZbctcQkhU8FIux1ef6VD3lQ/rXy3IisoWeJuSkf/Rzwomr8Gkm4/QzyBSCNrJkSgapjegGLxeJ8TZDqMFXwhCW0Y4noPMSKOoLTmsAlU23jXiDhSNfmkj5jBwyfdUJXsUYv3BxHUo2mTw7rzMGn5dzqpeYQ6ZwSxm7fSz0a7fIaKViB+YCeooAgi/VL7DWBCkNybktQLuAwiGRsq/pYDzfllTGrVtuioiIieUgp3hBV1MVRXpGvOb5oS4KvFbham+dTo/5ZCPprcmzeBXnzUGEqpXFPItMwSalj2OZxXGWN61weqZ4E6Jf5lqO0U+txwZUgYmiLVpdoTPltRKuym4VQibXefQ0vUo0mNy3GZSBlc+ONzlwftdHnNIdts62D8KH3XH2XkVjvgJ4g07XuyiEMSWkSNNURTXVq80jUyUVkShNWQE6/8+nrB3snQnAKza8BbnBR8cIDymrf9c6w6r0wiqnE9sAvWlvV9ey/FQp43pUGQ9xZK0KNVqi5ypFKS6cS90fYf/6OMMJcSPSVGtqJpmrDVY57TXfQc1wiMkdm919bNDRMVescppZu2Fk5oU91Rosr0eve/uSBbgJmh1oOHVMwzvTrlCCHhqjcmk9vy2wi+yyf8NUHyMTP8TOckLR0TQk3S2rAD52b6rkjEOdtHUwDBLcwhbBNJnCsWl0z4k4W5bHNmGl+iRFYxu2zWgohXezp3jV9ZEVt1PqdwCdqoLI1Id6bQ7tpr/kPU06odixF/HxodpL96N695VQ4tos7KEjTvt+SNwN9U7cvI0e+brWXm4nXi5nlezDLexAFU98q++erYb3b0f5cSPQZHK0J9Bm3R7wemnHbWvME9tGxRO4smf16HZjYxpfnodzV53XV/eupvMbStm+w/13+Wl3rrrq9pyM1lwrTAY33djZVGVVIzvGvfP4TssrvNxBf7lLpeX4N5U3DPHskEsZOw+p67rqcA0PX8Q3V+YbJVGuJ/Czj0D8w3hiMc6ps/M87vkFL4WnCmj6VEs6FvBf8AJ4Y5wh581++hmlfwsxnnIZSubMnLwFvwm85GQOmZ7i2gX/GoiHfD6Z0cycvAW/gYlfwpjzuyYk+fXjjReMwZty+Q0yowhziSz4V8Ar+r5N5pwDBxf8MJCjjv8bmdGs2oQFPwmkNpMtr/9AJn621oLfB1ptTSPjVzX9ZFZoOntwfuWCnwUmZUmbZfrH/p8pXhvnf8uPA6unF/wwXDIhXh3+a/CIXbOQ+SLYYlbY/eFkIh6HRcy+Cp2Z3CU00TlkOjl5iwL0KuhyVvnK55FpeunJImVfBlnipUexZpKpJ5v4zwxd8Ps48syjSI8vzyYTItvQTnAV34LfQPxsq70Z7/gGmatVczu39yWo+Xb4FpkL3hMLmR+EhcwPwkLmB2Eh84OwkPlBMMnUyxPqhcy/hizSyTQKh/SSvvBDmxa8EDpn3pK+iV8OWvAmaJScNX8JR1uzixf2r6D1Oc5P8gJ6mseCd8ReHFDhLL+TOKDC+cHVBe+Ly76OUvdXR3pJu0uKtFsqEd4C/wOz9MnS1LdkawAAAABJRU5ErkJggg==;" parent="1" vertex="1">
          <mxGeometry x="1222" y="244.75" width="207" height="49.5" as="geometry" />
        </mxCell>
        <mxCell id="9JEJFbvVPndM7wwkYAKE-3" value="" style="endArrow=classic;html=1;rounded=0;exitX=1;exitY=0.5;exitDx=0;exitDy=0;entryX=0;entryY=0.5;entryDx=0;entryDy=0;" parent="1" source="9JEJFbvVPndM7wwkYAKE-4" target="9JEJFbvVPndM7wwkYAKE-2" edge="1">
          <mxGeometry width="50" height="50" relative="1" as="geometry">
            <mxPoint x="1569.9999999999995" y="267.5" as="sourcePoint" />
            <mxPoint x="1653" y="449" as="targetPoint" />
          </mxGeometry>
        </mxCell>
        <mxCell id="9JEJFbvVPndM7wwkYAKE-4" value="" style="rounded=1;whiteSpace=wrap;html=1;fontColor=#00C895;strokeColor=#00C895;strokeWidth=2;" parent="1" vertex="1">
          <mxGeometry x="891" y="220" width="132" height="99" as="geometry" />
        </mxCell>
        <mxCell id="9JEJFbvVPndM7wwkYAKE-5" value="Solace Snowflake&#xa;Micro-integration" style="shape=image;verticalLabelPosition=bottom;verticalAlign=top;imageAspect=0;aspect=fixed;image=data:image/png,iVBORw0KGgoAAAANSUhEUgAAAZEAAAGRCAMAAACT/35lAAAAM1BMVEVHcEwAyJUAyJUAyJUAyJUAyJUAyJUAyJUAyJUAyJUAyJUAyJUAyJUAyJUAyJUAyJUAyJXew374AAAAEHRSTlMAgDBQ0OBw8BAgkLBAwGCg7vN8PgAAAAlwSFlzAAAWJQAAFiUBSVIk8AAACWJJREFUeJzt3e1aszoQheHSalu/Of+j3dcrurV2AhmSmUnguf9bgTCQrAQ4AAAAAAAAAAAAAAAAAAAAAAAAAAAAAAAAAAAAAAAAAAAAAAAAAAAAAAAAAAAAAAAAAAAAAAAAAAAAAABQ6vU8DMPpiePYhqePyzh5eN/7sWjC+/jL4+veD0e8mwYZx/G89wMS7Wn8iyaJ9XHXIiMXrlCX+xZ52/HhiHe6b5BxPO79qER6llqEO0mgR6lFnnd7OOIdpQbhRhLoLLbIy26PR7wHsUWGvR+WOPfDQ/pasf4mKJPLng9JsBexRT52fUxCXeWL1mnHhySYOGAfx10fk1hCykjfN5SQMo7jyDximFf5onXd6eFogJgyjg97PyyBxJSR4DeOnDKOLBEKI6eMjzs9Gi2QU0bmRsKQMraGlLE1pIyNIWVsDSlja0gZW0PK2BhSxtaQMhY6vg/Dueaa9XUp4/V1GAaWzh8OT2/TAbs814oBEwP2+Z8/fW0Gz2Gdf+7Cl0qL21akjN+nxT8fu77fHN9ujtpDlYOhTxnfbzpnlx2PJIe7E7lCFpgYsM/88l0K9rLTMjkKJ/Ol/FioU0bhD/ZZJncF8qn8wqVNGeXRy8vuphulAvlUPKsk/2zypL/KA/zxsq85+as8iPtUeHJqU8b0lrztqExe5THcpHAWQ5kyJvoBn3ZTJnMFUj7Tp0wZ5cHLt32UyWyBjKUvAUgsC0r2F+R+wI/tP5J1la8q1Q6CNmVcOj3Gh40vlzglejbVWkSbMi5vzqbL5Lp0jSg+AuqUMWeDtlsmOQVS2CLqlDFri8bnTcYqT1kFUtgi6pQx7yTZZEh/ztz3okU8+pQx9zTZXJk8vWXs9KRkPKJfyyj/hWRbZZJfIGUXrRVrGRe7v79+ZzNloiiQwgUK8k/OXgYTOZhoKyG9HLunGqTkPFy1ljH/urWRuaxk7G6wx+vWMqqapP8yURXIY+HurlzLqLqqdj6XpSuQ0g6mNmX8oel59BzSL8Tuf5T3LgvWMurKpNeQfjF2v1FhBCYXZOYZvf0y8S6QlWsZf/159vB97LJMdAUy1OhUFj8xnZmETmqtwHSiK5BKabd8K9CsbcmbLai82S5UJ1utGSF9yigI2XJzQWdanSemM2adLTbeVNTVuNYT0wF3QFO6AqnZY5FPhBUpgH8v0VJcr77mE9PuIykzkSPfqk9Mb6VMQoe98mm9+olp30TOhjJBrbwP61PGFFVq3WJIP6gKpPoOGDwx7TmzU1/41heljCkdl0n4phemjMmfDb0Sr9fAXdDsvYw9hvRX3cStTU+xPGVM6W8uq4nRVJWUMaWvMmlkKGX7Xsae5rJaiRus38vYy1xWyLyUqFrKmNLHXFY7szse72Vsfy6rpbPG5b2Mrc9lNXXKVE4ZU1qey4qbl5LUTxkT2g3pG+uhJ955Y/Gv2pzLam4Ua5IyJrRYJu+tDWGNUsYUZYpntBW/qM4Rl5X97l9/8XtEKYemC+g0YyD3MixPTlWZGDeJ5nkkp+kC05QxRVMmpu+rf8q/h7hNqcV8/UXTvbE8EvnXLL8njeVtsv/6S/4QwPCWNvfCttttcBwcmaeMKfllYrcxuXcRz+VLkV9/yS0Tu4LN6/n6LvGTt8np6y+Zc1l2l62sMnVe3+eUMqbkJa5m/z6jRbxTaLeUMSUrdDU7KMv/2v0Dd44pY0rG3dXsOp4RfHo/4eKZMspyrltmLZJzH/G9rzunjMIGZN3bzf593gDR89Ye/Y3pvP6vXYCQOR5xLBP/lPG33DGiXV88cY0QDolTmYSkjP/LzlEM++LZuZZTzhj5jen8EKXCZ27SW5Gf/bpk8VEpoy6PN12JM/8pghseZRKWMmrmrIwHR5o5RPMyCUsZNRNWbU3rGo/UglLGliZ1D9q1KLZrg0JSRt36IJdep2q9lmWZhKSMqjV0biMz1ZpGuzKRuxmmN9IGC2SiKxOr3p9/ythmgUxUa+NtJk3cU0bd8wrub+bQLY+3KBN5wG6XMjZwEja+hb4pY/wZ2PxG+qaM7RfIJPJOJw/YbVJG3fPToS/UDOwNOqaMjfT2M4WViVvK2MyIOFdQmcifVTdIGfsqkMmrJnkr/cbIN6eUsbsC+aJ66qhOSO+TMup2rKW3+6sC6hpzWS4po/teVeVcJh4pY0DlV3VUXXFLLy/2KWPfBTJx7JWYp4y6N+s1++1Kv46JdcrYcuyu41Umtiljs/NSa/iUiW3KuJ0CmXikpJYp46YKZOIQ0humjLoTqpcvhJuXiVnK2MW81BrGO2aWMvYyL7XGSXN31Ba/Ucq42QKZWN4gbVJGXc+9rwKZmHUiEwP2sl5Pr7G7ilWZWKSMPc5LrWFTJvVTxl0UyBeDRDsxYC84b1VffOq4QCb1Q+3aKeMWYned2mVSOWXUvOiwxXmpNXTPJC3+A/nv1vZGE6NN0SYKZKLpySyNvCqnjIq+x0YKZKLozCwd27opY/41q4PYXSe/TBb2vG7KmB2cdBG762SXyfxlK7EsaO1WZV60Nlcgk8ynfOdbpHLKmNcgGyyQSV64Ot8ilVPGnA3qZl5qjZwJiNkWqZ0yZjRId7G7TkaZzB6B2inj4tZ0Ni+1xuJc1my3qXbKuNTd2HiBTJZC+rkkr3rKOB/xdDkvtcZsSP8294PV1zLOvVav89hdZa5MZjs29dcypi9b3cfuOskymS2RyinjYaZI9lQgX+Qr+GX2xLRYyyj33nZWIBMppL/Mn+4maxmFHy1+vKVXd2Wy0CBGaxnvmmRTsbvOnzJZGo1VThn/d3vh2tC81Bq/Fx0s5nlmT0z/PjN2XCCT75D+8rF8L5UH7FWu+e9fv13rcfuuHc/DcM6JV03WMv78+mkYhi2nvAYC3suIWfLwen8juWbUX8uIMt7vZcSS2K+/4J48YN/LDEaDPN/LiByBX3+BSJ5QYYgdxiplxFqh35iGwDBlxBq2KSP0SBlbQ8rYGFLG1pAytoaUsTWkjI0hZWwNKWNrSBkbkxiw7/2wBJLfXULKGEduEVLGOHKLkDIGkhqElDGSNDlCyhhJirVIGUPdF8n8E6SwdvwbbC09HwfvJqHrG+7mkcWNvoCsN8N3uvVwZijSiH/Pxw2vdLIAAAAAAAAAAAAAAAAAAAAAAAAAAAAAAAAAAAAAAAAAAAAAAAAAAAAAAAAAAAAAAAAAAAAAAAAAAAAAAOsdDof/ABl8go2+NUsdAAAAAElFTkSuQmCC;fontStyle=1" parent="1" vertex="1">
          <mxGeometry x="932" y="231" width="44" height="44" as="geometry" />
        </mxCell>
        <mxCell id="9JEJFbvVPndM7wwkYAKE-6" value="" style="rounded=1;whiteSpace=wrap;html=1;fontColor=#00C895;strokeColor=#00C895;strokeWidth=2;" parent="1" vertex="1">
          <mxGeometry x="891" y="518.5" width="132" height="104.5" as="geometry" />
        </mxCell>
        <mxCell id="9JEJFbvVPndM7wwkYAKE-7" value="Solace Azure&#xa;Service Bus&#xa; Micro-integration" style="shape=image;verticalLabelPosition=bottom;verticalAlign=top;imageAspect=0;aspect=fixed;image=data:image/png,iVBORw0KGgoAAAANSUhEUgAAAZEAAAGRCAMAAACT/35lAAAAM1BMVEVHcEwAyJUAyJUAyJUAyJUAyJUAyJUAyJUAyJUAyJUAyJUAyJUAyJUAyJUAyJUAyJUAyJXew374AAAAEHRSTlMAgDBQ0OBw8BAgkLBAwGCg7vN8PgAAAAlwSFlzAAAWJQAAFiUBSVIk8AAACWJJREFUeJzt3e1aszoQheHSalu/Of+j3dcrurV2AhmSmUnguf9bgTCQrAQ4AAAAAAAAAAAAAAAAAAAAAAAAAAAAAAAAAAAAAAAAAAAAAAAAAAAAAAAAAAAAAAAAAAAAAAAAAAAAAABQ6vU8DMPpiePYhqePyzh5eN/7sWjC+/jL4+veD0e8mwYZx/G89wMS7Wn8iyaJ9XHXIiMXrlCX+xZ52/HhiHe6b5BxPO79qER6llqEO0mgR6lFnnd7OOIdpQbhRhLoLLbIy26PR7wHsUWGvR+WOPfDQ/pasf4mKJPLng9JsBexRT52fUxCXeWL1mnHhySYOGAfx10fk1hCykjfN5SQMo7jyDximFf5onXd6eFogJgyjg97PyyBxJSR4DeOnDKOLBEKI6eMjzs9Gi2QU0bmRsKQMraGlLE1pIyNIWVsDSlja0gZW0PK2BhSxtaQMhY6vg/Dueaa9XUp4/V1GAaWzh8OT2/TAbs814oBEwP2+Z8/fW0Gz2Gdf+7Cl0qL21akjN+nxT8fu77fHN9ujtpDlYOhTxnfbzpnlx2PJIe7E7lCFpgYsM/88l0K9rLTMjkKJ/Ol/FioU0bhD/ZZJncF8qn8wqVNGeXRy8vuphulAvlUPKsk/2zypL/KA/zxsq85+as8iPtUeHJqU8b0lrztqExe5THcpHAWQ5kyJvoBn3ZTJnMFUj7Tp0wZ5cHLt32UyWyBjKUvAUgsC0r2F+R+wI/tP5J1la8q1Q6CNmVcOj3Gh40vlzglejbVWkSbMi5vzqbL5Lp0jSg+AuqUMWeDtlsmOQVS2CLqlDFri8bnTcYqT1kFUtgi6pQx7yTZZEh/ztz3okU8+pQx9zTZXJk8vWXs9KRkPKJfyyj/hWRbZZJfIGUXrRVrGRe7v79+ZzNloiiQwgUK8k/OXgYTOZhoKyG9HLunGqTkPFy1ljH/urWRuaxk7G6wx+vWMqqapP8yURXIY+HurlzLqLqqdj6XpSuQ0g6mNmX8oel59BzSL8Tuf5T3LgvWMurKpNeQfjF2v1FhBCYXZOYZvf0y8S6QlWsZf/159vB97LJMdAUy1OhUFj8xnZmETmqtwHSiK5BKabd8K9CsbcmbLai82S5UJ1utGSF9yigI2XJzQWdanSemM2adLTbeVNTVuNYT0wF3QFO6AqnZY5FPhBUpgH8v0VJcr77mE9PuIykzkSPfqk9Mb6VMQoe98mm9+olp30TOhjJBrbwP61PGFFVq3WJIP6gKpPoOGDwx7TmzU1/41heljCkdl0n4phemjMmfDb0Sr9fAXdDsvYw9hvRX3cStTU+xPGVM6W8uq4nRVJWUMaWvMmlkKGX7Xsae5rJaiRus38vYy1xWyLyUqFrKmNLHXFY7szse72Vsfy6rpbPG5b2Mrc9lNXXKVE4ZU1qey4qbl5LUTxkT2g3pG+uhJ955Y/Gv2pzLam4Ua5IyJrRYJu+tDWGNUsYUZYpntBW/qM4Rl5X97l9/8XtEKYemC+g0YyD3MixPTlWZGDeJ5nkkp+kC05QxRVMmpu+rf8q/h7hNqcV8/UXTvbE8EvnXLL8njeVtsv/6S/4QwPCWNvfCttttcBwcmaeMKfllYrcxuXcRz+VLkV9/yS0Tu4LN6/n6LvGTt8np6y+Zc1l2l62sMnVe3+eUMqbkJa5m/z6jRbxTaLeUMSUrdDU7KMv/2v0Dd44pY0rG3dXsOp4RfHo/4eKZMspyrltmLZJzH/G9rzunjMIGZN3bzf593gDR89Ye/Y3pvP6vXYCQOR5xLBP/lPG33DGiXV88cY0QDolTmYSkjP/LzlEM++LZuZZTzhj5jen8EKXCZ27SW5Gf/bpk8VEpoy6PN12JM/8pghseZRKWMmrmrIwHR5o5RPMyCUsZNRNWbU3rGo/UglLGliZ1D9q1KLZrg0JSRt36IJdep2q9lmWZhKSMqjV0biMz1ZpGuzKRuxmmN9IGC2SiKxOr3p9/ythmgUxUa+NtJk3cU0bd8wrub+bQLY+3KBN5wG6XMjZwEja+hb4pY/wZ2PxG+qaM7RfIJPJOJw/YbVJG3fPToS/UDOwNOqaMjfT2M4WViVvK2MyIOFdQmcifVTdIGfsqkMmrJnkr/cbIN6eUsbsC+aJ66qhOSO+TMup2rKW3+6sC6hpzWS4po/teVeVcJh4pY0DlV3VUXXFLLy/2KWPfBTJx7JWYp4y6N+s1++1Kv46JdcrYcuyu41Umtiljs/NSa/iUiW3KuJ0CmXikpJYp46YKZOIQ0humjLoTqpcvhJuXiVnK2MW81BrGO2aWMvYyL7XGSXN31Ba/Ucq42QKZWN4gbVJGXc+9rwKZmHUiEwP2sl5Pr7G7ilWZWKSMPc5LrWFTJvVTxl0UyBeDRDsxYC84b1VffOq4QCb1Q+3aKeMWYned2mVSOWXUvOiwxXmpNXTPJC3+A/nv1vZGE6NN0SYKZKLpySyNvCqnjIq+x0YKZKLozCwd27opY/41q4PYXSe/TBb2vG7KmB2cdBG762SXyfxlK7EsaO1WZV60Nlcgk8ynfOdbpHLKmNcgGyyQSV64Ot8ilVPGnA3qZl5qjZwJiNkWqZ0yZjRId7G7TkaZzB6B2inj4tZ0Ni+1xuJc1my3qXbKuNTd2HiBTJZC+rkkr3rKOB/xdDkvtcZsSP8294PV1zLOvVav89hdZa5MZjs29dcypi9b3cfuOskymS2RyinjYaZI9lQgX+Qr+GX2xLRYyyj33nZWIBMppL/Mn+4maxmFHy1+vKVXd2Wy0CBGaxnvmmRTsbvOnzJZGo1VThn/d3vh2tC81Bq/Fx0s5nlmT0z/PjN2XCCT75D+8rF8L5UH7FWu+e9fv13rcfuuHc/DcM6JV03WMv78+mkYhi2nvAYC3suIWfLwen8juWbUX8uIMt7vZcSS2K+/4J48YN/LDEaDPN/LiByBX3+BSJ5QYYgdxiplxFqh35iGwDBlxBq2KSP0SBlbQ8rYGFLG1pAytoaUsTWkjI0hZWwNKWNrSBkbkxiw7/2wBJLfXULKGEduEVLGOHKLkDIGkhqElDGSNDlCyhhJirVIGUPdF8n8E6SwdvwbbC09HwfvJqHrG+7mkcWNvoCsN8N3uvVwZijSiH/Pxw2vdLIAAAAAAAAAAAAAAAAAAAAAAAAAAAAAAAAAAAAAAAAAAAAAAAAAAAAAAAAAAAAAAAAAAAAAAAAAAAAAAOsdDof/ABl8go2+NUsdAAAAAElFTkSuQmCC;fontStyle=1" parent="1" vertex="1">
          <mxGeometry x="934" y="525.5" width="44" height="44" as="geometry" />
        </mxCell>
        <mxCell id="9JEJFbvVPndM7wwkYAKE-10" value="" style="shape=image;verticalLabelPosition=bottom;labelBackgroundColor=default;verticalAlign=top;aspect=fixed;imageAspect=0;image=data:image/png,iVBORw0KGgoAAAANSUhEUgAAASwAAACoCAMAAABt9SM9AAABKVBMVEUAnPn///8AnPcAm/sBnfqn1fYAnfcAnfUAm/31//8AmvYAnfvu///x///5///8///n///f//8AmfIAnvPh//8Alej//f8AleUAl/UAn/QAlvD///zY//8Ame8AnO4Bmv6K0Otds+sAluJguu3f8fro9PoAmuaD0vfL9f+79P84qNnV7PmLy/HC4/UAlfac0/MqpfQAkNfN//8Amd0AjtxTrfNuvuYdntyP1u2HvuTN9P+53viUy/J2vu2DxfF5xflatfQRpe1Eq+phuvEAkv1DyPyZ+v+q8f1nxeuk4/lCquVWtuCk2fIAjdSv7v6b6fZnxt+6/P8Mj8h4xOcwotq8z9lesduKv8y15ep/2/lo1/tAuvKP5/xRo8ONyuNOudw5mcas1ORx3PXod9OmAAAbHklEQVR4nO2di1viSLbAQypdlVRCEhIiIZAEQZG3SGjxamsL7twW7GGmW647PT07s7v//x9xTwVasQeUlyLOnM/PVlqS1I9T51UvLvK3zCzcuh9gk+RvWHPI37DmkL9hzSEvHJYm7ZRP3rw7O73YDuXi9Ozdm5Pyzu5anublwtJ2yx/fn3fqhFLbpnatJoaCOA579bfn79+Ud7VnfqQXCkuqvttue7aIfEopx0RGMghCsiAISERIdLz2+bvqs6rYC4Sllt9stw1KkpwocD6PMaU8jzlOGImMmIb5CBNQufz2fll9rid7cbCk/Yu6b/OCLCSTMkfhiwON4phOjWTYHX0R4STBwMu72H8m/XpZsKSTXN4GOqEW8Rw3pMPdFzQUjr0eWjFquxcnz6FeLwnW7n7HM/hvvU3gJpH6jluoZBwPHfXtu6dXr5cDa7fSdgwe8AAmbk5YPM/5teTZzhM/4kuBVT7NWxSBZQJ3xy0EiwPrdVp+0od8GbB2K8S2OcJMEeXmgMWNwzIM6tYrT9kZXwIsdb9ucxwLD27pTIXFMxnXLbD0wx/YN1mm7f2nM/UvAFZ128Xg++5BmBnWfREEQrzt6lM96dphqRXLJd/BkheFRQjBxPDOpKd51nXDqoILxJjnxyEwRIvBSiaxIIvUrp88ycOuF5ZagfyPBQurgmUCLB5SR1p5Csu1Vlg7HRvy5DAefxjC3IJqnSeIItYJ6yRkNYTFrRiWSOtvVv7Aa4T1zvN4VoB5Elg+wbiy6ideG6zdnG2Y+KlgyaJMiJNbcYS6Lli7565BxmGtWARRTibzK6a1JljlDsWYhQzfYK2cGLhRXnB7K82t1wOrXGcVUNbzngwWx+J5bLRXGc6vBdZOvSbyw0j0SWGx/Dq5Qt1aB6xysoZk/OSwWKgrCLS+uoBrDbB2277PoTvNkp8MlsDjZNLtrEy3nh/WbqeGHq1TrVAQ6qzKJz47LGnb4B4v6q1QMEbnK6L17LDOTH6GCugKBQlIvFjNsz83rIrBo+eFBf3Qr60m83lmWCceQnTl4fqDQigShORKClzPC2s3yXzecFTwWYXWV+ESnxXW7rk9Kuw9MyzZrnVWUGp+VlgVg1sPLI661v7yz/+csKpmaNvXAcvwTHP5LPEZYe12OGFNsGTKy1x76bL8M8Kq2Lz5VKnNLGIvHT88ESx1d2enXC7v7Eq3UxmrecqbT1ZhmEFoftmO+ASwtPL+6UWnXcek3u5sX1RGUxm3XYrJOjWLs8+XbNmqYe2+OU+6DjV4DJE6hwmp1Ryz864cOaGY59cKS5aNJQd8VgpLK591DF+kHAJMJi9gTDASRWoYyfO6gCmPb2E9Y7rzTQSC28tl1KuEVX6fd034ADmeqRSbdsC+YfZPOImWUnldPZAJT7C7XLC1Olg7Z4YBWNiAFs+HnMYkrPRxsvwUw15zwDLaS2U9K4NVrdvhBOzhjCkejwn/QmCZPDWWCh9WBEs9c2p+OHV42M/4e/JSYFHR9pZJEVcDaxfigtEEz5FRugdrNDgxgiWvrRvCI9rLWK2VwNrp2OuMn+aSZQryq4BVbntrDTbnEnuJWGsFsHbfcnidacxcItuddcLaPTfCZVqbAYsj3uIZ4vKwLigh8uZ0Q9M9Wx+sEwiv+GF16g7Wy8UGn+rida1lYZXJbZSwEbCQzzkLj/QsC+uC8hsFCxJ4eromWCcm2SxYnCmghWsPy8FSO5AObhaspIwWHnFdDlbV4J57MH4Fghb1h0vB0s4NeQNhcfV1wKp6FG0iLLpgVWspWGeGLIbrujcMlv3x+WFpbYjx1t3wRcRe0GgtA6tMn38cfjVyvlgQvwysfftuW4GNErpgKX4JWNoF2lBY3IKVhyVgqW+5TYW14Gjr4rC0srexsGrvnxVWef+ivpGekC0mkP23zwZLqp62LZeGG39toggCWiyGnxuWtlPpeIZB2DL3zYQlC4tObJsXVvk0T4kgm2wrhg2L229FkFF9oSrNfLCq5zYl8MnISYzXMEy6GpGhG5KFlorNA2u3kmQ3YzvJbaQPHAnbc2qx2bizw9JOvNooVpA3GhZb4UoWqv/NDGvn1LnNbjYbFjw8NheqO8wKq9x2KI9fBaxQsxaaHzIjrIrl8Jjw4UrBTYfFHv4JYanvaTg97SUPRMwhDFZukd1NZ4G1e2F4bG7o64GFCXHbpyfzTmybAdbuW5okPvdqYLEdqCD/QJxZf1+ea3vmx2GpF/8QCeFfl2axPYdlQRSTuXkCrkdhqR3qI4OY4eI37jWwkoewECS3suzXerPjegyW9p7DY0oV/rjhIo/V4JAvovr7WRPFx2BVKEb864LFjcMSkUxpe8YQ9RFYb4hBbO71wmKCZGzOtnfUw7AkzxgtKXlFsMZL4TwhnOgL2JlpD5YHYak5B9AQzHbS5m4XA3x3b97YtGrNuGYxWKIMjXBnsPMPwto35FuZemvTJJuvbWzp5uMjPg/B2q3b6FFY4IfZAornbNeTiGx7j5r5B2Bpp+7dwomp4RV1X4dmgfl6lNYDsMp5w3gUlkzzP3hkQ+sP9wRhkn+kJDgdlrbtIPodrPEOydZgyqLb+t8fLKZaorjhXRHJnG09XJqfDqtKbN/nps0VBe8o85zt9D58aJn1NpFF9ArUiz4cQUyHdW4jcTosxM6/wYlcQb/M5n+4dGQqr2Pd86rFfnCnramwdhyKRiceTILFeqOTvdajxwdm8CEdmGxfrHU2czXCo3eLwKo8AIttmIqQe7CvR6IZj3Ri0b28aW5+PQKsi48f6IjTYO12KAWjPbzEPVgyW7LKJXmn1Y1qW4WBaVWkVLqUNekaG7kiEQTxHw/MCpwG68Tj2VKvSVeEQBXxXrZXjEqaspd1gmIqFe22vHsb4G+ogJPC0yP5abByPGWHvk26HhKIaWZzDSmVSqU7htOLpyQ1dpVY19rnFcsDM2ymwFLr/NQNMpFoO4nrdDSVikgZo9b8KKXUlFQMaq8D1gMTv6fAqppTYYHNMg72dEkFWLGeXQuOtVRkK6Wf1thuM88M6ynuZ/emjfpMgVVx6cQD4Ng37La6SgS0KSV1f+SdQ30rpakprdAy2JYNk26P7vdoFLaR1X1EBF5k/uZgdgWD5/jvM3g5LOVxS65iMKZlPZNhaRfGsOBw/ypyeCyj1+pLW2CvUlr6yjMTXeiPqspsfBb58qQwnp1NOL5VD6KYk3ksYAGCXtGfP+QgIkeoy7Pdbe97FYFSgEWXXMtAp20dNRmWWhcnHeQiQzOxGRwpkQj0QTX6U4u4ATNeqqaltvRBAhM8Mem5n4ibfBiCuAmXGry8gGYxVRVdy3Kcb3uRjISnBIOfkZebwYmmxVqTYe0Y4sQFTNBtSOIwDn+RAqLxnifkLxUNdIy9oPVbU+oPrpWwrNvf+ETCshGklV+u8i4vPFzemWKTZNntZfr9PQvfhwVqYVkJQ6bsA5qRzZ8sn1+bEsZPhnVSQ5MMPEIi7zb70VQISypmCQl+UlNDUbX4YQJPeELZyO3t7eUcNqeEhf/OJfz61W1/iDU6Fi88UN9hO7Hc/jI+D0VAbq+hK3oRYNGx041EAefh6l8d6OR/gjUd3neweLszeaB6Mqx3PsdN8oZINhI5RR0qUvzQJVYpDR1SYwZMVaPFljEhjJedjB6NNjybE7Aom16+EZXSP2dbn6Kxrx7Hm2AdRVGG3BI+DHColHUyMGQo3NeGEvAAhD1ICIsnmKVa2AiKqt7NXLrZoNOmtxZR5pxcLBrt5x3KI3F4NhR7bITZ1hO8jIYTYdnIC8AM/wSJYXx4DxbyJvfDybDe20icYOA5JLitwjAd0KR+QEh2j4VbWiSlgajRTNaYBGsf/kjJOQLGomAeXEqRlP6zlc8dXQaeLBs2uEoRARTeZju6udAGsPoGG/8Ej2KKvkjYHsPhSDI2scwTeIwrXf34OZskuU+frlg9Vx7uEIQsdmJfrGTZkNmGqiRwFPxukrDLiUjAISwfEfDEWBYx+nZA4hgw0Z8Sak2GdTEZFhjj5p4yVFFNuc6b5KDI0GkRbSiNwURYR9BxpS6Yf2gmDvpwAf2a8qbFTmBlnzIhBpVF3wBzz7IDHvm26/HQp3gMDYJnB+VjiEDtPCpypiw4OUX/Oev71n40zmD5w4BYFg8aanlXyiRsGzLbcMszHsMl4csWfd82sMBjymBh6hJBgI/CF335Pix4lMkrMCbC0s6naZYH3S78ky21GDiYXsS37mCBGese/Nley9aRopTVdM9lW4vgi5j+f5p+bWPX8mqiIDiml8gHoAqO5RFqegYmXj57EHiO45qA0c2y/wVlqjmJg6AVJDwPU+dUUq4PHKv5LqLfOJbt0yEs41BRbn5RCwPbR46TSCSy2UQ24RpOImtB14QrWwZnwJW9bJB3XS+Rzedd+LTuuwnk1yfGpTPD4qEfcHIA4WgoKQniVrGW00fvGMKKxK4M+fuQEDRLif1Th5ybEBFZR9Ff/qnEoRteHn2xEOcGV0f9YvFLJ//rl18Hue6Hr9lsCRxdv3uat1zDCHLdYrG/Vydm0Dr9CD/u97LexX4VsozM/rv98pZU3fvSrg27kpDvRgufM0r6Z8cX83uZ/f39DHzba+3tXwYmEYyLzJeO09nbz32+LP7Wzg8u4dbdi+8CEEztyZt8T4b1FpT4O1jseoaTS48KGKl0wILNbFfRWN7zDZZaPGCJ0n3VAs1K/+sXqdCiWDQGjejl70rs50TQl9J53h38pkuKrsfPgk/6L9cNRbn8vJeORvWYEv/Qs5z8h7iix/TGV5L4o6izl6X03sFvurq1pSm6EgWljsYbOVsMW2sP0srRj6V0tNv0UbuohCJJDbhpsZXEsrWn6Dknp0sff49LjdKgDzeO6bHLvDlu4TGhk9fYTYFFRyvF79SD9X0335dG5l3fS/AcpV6rK6naHayIdBngcafNmgDKlP73ZVQ5BbeV/V1PH1QAlpXvRvSs1/qgRI+vDw9/+iEoSjvHjW73KqNLx5XD6348WswnfpKUjzel0y8dq9NQ9I+Hl0dxKf7HVaaqqtVM5kvmOBX9BbTFDV0atipgwrygr8ZamMvvVSp7md93Vf3sx2Op2CIcTexJSs66iW7tpov7Rzf9aPy6dNVXYocWGouNMZ6yxm5GWDJixta91iMj814YODw4ezPbakgQvt/C0ooDQ/wTLCld+pyOfvQEMuhHPzZHsLT4QXYvrvQHWSsftIPClta4spp/NNRj6GmJwU+qfj0oRo8/Z13HJYmuFN0/aFrZQ10qDg4Oo/rPgec191X9JuG54daePGkVGZR8RpEOXZoAo5T48SYq9VsHBXjdFLgRLCUS7bYSwZkS34MLlorRD01/LOsCWM7EsHRaN/xeswQZES9IA5Ct8C8yFqLUZ3MzSwVVU29hRaSj5ngXDGFlAFYAlqTnJP6IpUvNihQfwgpaRTUWeBCZIhQUNemwKTpHunLqeAImPUXrQ0MK/wpczjZ6abX/IwXn/2MXtKcJsA4dBFGJpF+5Ik8YLM79IyZlApIfwN9mDZMksVtqSMeBYx2Pw8pBVx64XL4YKQaWlf+c0dJt35fvwfqf5WCJODiCLhfC2lJaLsSBPjhzN3sZ05hDHOkceD0jNABoTLOU9ADC1+iZlT9S+nmrIukjWKW02k1A8gtRT76oHfdcHjQo3rPBE9jZglT495ESTR9dgWvMxaU9B/w8htBOOQRYyqEFrnRfil+5PjUBFjOOUf0mCFqfq1J82zU9YgTQx3JWzQk1C9/B+nAgoE5BOz66vs78fqLBHceM1nywIufwVPLt3u3Djig622mmPltbEGF+tDBk9hAQQ/qfzTCXCPnO8L1SNyCiDMnsLWkGq2Qc9KPH2U5BubacW1gHV3r0d4fNZAo1qxgg3CyoxwHzL0a2zxTyKK0o6e7X5qkinVnI97nEoRLdcxisBI8ZrJwN8SZ8ce5BQ4pWq/1+dUeL7iVMz2O9/LLJ2xaDBeFsAkDnrCtF7TZl7iqtRXUFvATcIOeSexnLPLDe13z5e1i02ZVYpB7ZSqnpEj+qUAkQOeWP9DA5DN+aiuhXCVA5+dYIsNChUSLNw5h+eB1rtIxbWLGDGz3adRD4DsRBalDMi6JV1NI9ysu8F4BmDbygdHSsKI2rQ0Xaa1KIIa1rhWmWpFwmeMFisGo+E5FmD6Mqaz60X4IwkJOzhzGl2zQEIwGwAiQKTCtziStd6lqicZVWy9eVs7NKpXLZdvE9WO4csM4MQr+H5WzHwoQ5jD2zo8WG4WRWO+iG2fS3TtwPoFOI38OyWgXpP1W9mxecSjSEpcYOSjGp2jQg3eEgj5JCWF1NL7lE5rxWDFpoUzM72I9GuzcxqdukBkXNYTdksEBp97X4ts3cr4/kfF9TPh4dHWUyRwUVGP6D4W7B1akVwpKF5p4aBc0CWE2R9hpq9cBhYjVZuWRRWG8o5GD3YTng2oewtEj8yvlWA2DlTtECL7TFXCJDFdnSM03XFm+rfQxWukSIlYlKSnrbkb/BkmKtVl/Vc1lXcIzQk+V90foZsr6sRW3WsIxlUErdZkzq/7sAtsxysRMca8dtC7rhZYICLFU5dGybDdqRXlwrHjQTlu00cypcJHschduZnutYVTV2Y4sUPC7TrDjAqtEs2IGcSzlKLMMedaVFYFVdSDjvw7Ku9WEpJrKldbP26LJsoSOYl8TVMZgyBiuV2tqCKMcSxduSyhCWgWkHVLOfhRYyWC7ASg8SkAKkM4PB4PIrOMZiIIouBBfKx1JrcJ2OFlqdvVLeCqALdsGbSsc3g0HuRJKuHftQ0UNYFUnqDjptl+cEMEhSpml4Rk028mlwDhlJ/c+/ejc3pd5BRlGKpWDQVbaYZjFYIp+AIKRw1cq2Sl++OpAuLgpr1+PvqSXBZFBQU2HUAK4w595mgOFcNsw3b+Kj4CHF8sZM00Z3eanD4izw881uRLpOEDMR2iz2wbbcBISgSrrQiF1+Bs0KfNFO9CDyTh+n9Wgj1+w10sVuMaamr/IH3ZikF4vwrZuQUY7BkjljO6ZJjU+XLjxqUIS+53KEKaMFxH+JRSJRPR6PxT6VIIKQ0sVGo6opOeeGdUOectkjRYsV+oV049ISx6bsyRCSzAFLfUvHjj9DHCGhdR/CgujktiYHmgWJFWhXggUQo5KZpsW2HU64g/Vr8cPAEVHiqtjveYT3Lguf/uDdL4VPgedmc8VYLNbofw1+Kv6WB3dnWK2jYjrWKHZ7Lm7/lk7H0oUuRKlecFkspNOF4mHAy+ii+OkHF9xo/rIYi3/6Sn2efv1Q6AYGChMf96pYKBaOmRQKhX4vUWKX/HBzWSx+dXqfil+ahBdr1nt4NRY73oNACI/DEu3Zg9JI5KJ2V1YGDeXcHrPuw6wGApzb6UVyuPoQeqIZHEW1W1hSvzkWt/DtVicPRszNt9p5D0JZ+N0TxXavk/cgqg16V7mOZ+B6u5OkSDRcN9+5uip1soYsePle7irXC0yECGe1e/A6pNdw+2Sn13bZ+e0evLvUFkWPr/c67XwSh0fDG0a902bSaQ3gu2tbras/vgbZdquXd/O9dt3FguzXnGwpl+u1svAJ3odFZ093wMLb4zV40W7/pCt6XA+lH3C3hXO2+BDAQdrl/Pgf7a4Yqx9a7i0sbBqux/t+zaYGTwzR9eDhBB6CRvCCAgY6BmVVJniBp7yXFGTsMpNrIMTD//HwbsJKgBjZ1LN93oOo0a8Z7E1gLcABeEkkeOD0DJwkQjK0C4ij4V7+xHVYbC+yCpnHDj1gpwxTeJZwl3HquEwIz4/vMAewyOyJdCSy442N7gAZ7+v29naptN3r9bZLFiLmnc0iLPjLd7b/p3oHS4UI6bYMKHNU5KiPIEaSIdLGoj2cmMMKxSKCEIsaHOIBHAG9wGGhFHQD2ZBFyOGZISRcl+SHOQUWRJvNJRd9k0ICRiCe84Vwrn74fpNDyeFqPwyhGtxAkG1MBJmYJg59kcAsEnXZSXgIEjZ2MglIOK45DmuOEg1Ihw7bGbYKUnrXsQ3DZbaTmhzcm5WA4AXLaga9w0y3WIjpt90QwouUkrkbzmGjQhARyiIb7hvNW2Jlc4FtYM2CdwqPCiE/NtlFWe2d8sPbs16OCVuxENIK13Nx0MbhRyjz8AaO+V1QJQHJxMPhBdkBTvywUMQAYBzC4tmWxmLot3iTR+FwyO3neW/aIvzd29mLfxF2/BKl4yfxit8uwxpKKStmBsH24V63mI4rUTaE8S2VHg32QIr4DJPbnmjiDp2jrAxSNu/DGp/Mhr16++vlbx/AlYAJU6ISSDQU6U7iv20sLJ7SeQYs2FzlabBkr/711//+979HoWSmyn+TSPhuSdHq5UlgYeLOMxQG8tGeDEvmSNIE755PhGJZCYv947qQYg0lfNUD38NtKCzTmGuQlamWC9nw8Lgq+W4RK/sBjKnM5nXcrevh73bPH70CJpch2sytyDg61/A9k4oLDjmENTYLd2yATR5h+IYjHF0ZbZExmta2ofu2IXOuiSFMdtpecniAAD8R1jdKD8DaUM2aelrdA2t3Kl5yOPTwEKw7eT2w5pzMFspumx+WhifDEh6HtYHdUOYE++20yd0PrTfcp3eaxXPynwbzp91vg1daeITjavNOwB3KuR1e4RXMb59VIE80ph/M8yCscjvMwv46sJDPY2/6osOHV99/dL6dufDXgMVhk+amb0/zyL4O5/QvBUvAwuTizEywym2DkL8OLI4+eBDpY9urlJNcEv8lYLFG0lruIRiP7nL0hv5FNCuE9XbBZb/fZN/9y2gWNRZdUD6mW/SVwwoHk6GNj51eNMuefxWC0GuGxUZ2BIFg57ENVmbaTfKE+Otu0FNKeOAuJg9Eo/PAilST9rpb9JTCypxGfbmNe8ak3Kmtu0VPJGwqKjGJMcsZILNuF6y9X3rN4wsVTMyk6Z4vvdnYPVondSOcl0PYHV6NvWcDvKBZpyvYxu6eSGcmm7mJX1WMisBeOZ0ZNzyfZ/N8rXxuspXJrwmWzBnts1VtvfkdrmrPdekrgoV8+2L2ExrmPh2lepqk4aTzTTX3409tm6fzHGaxwLk75Uqbs2u1cAGHIAhI5uimCFub5bOFnAI1bNuon5VTj7d3KViM17u3nu2zuT8Aa4O2Ww6fVRRF13Dc+ll1ri27F4YViai71Uqu0/YIW3C8boWZWSCzMQxM6tunb55q8/ypIu2UT07ebJicVMu7Cx7ovuwJ5X8p+RvWHPI3rDnkb1hzyN+w5pD/B7yEL/jcwsQmAAAAAElFTkSuQmCC;" parent="1" vertex="1">
          <mxGeometry x="1176.81" y="616.56" width="111.5" height="62.44" as="geometry" />
        </mxCell>
        <mxCell id="9JEJFbvVPndM7wwkYAKE-11" value="" style="endArrow=classic;html=1;rounded=0;entryX=0;entryY=0.5;entryDx=0;entryDy=0;exitX=1;exitY=0.5;exitDx=0;exitDy=0;edgeStyle=orthogonalEdgeStyle;" parent="1" source="9JEJFbvVPndM7wwkYAKE-6" target="9JEJFbvVPndM7wwkYAKE-12" edge="1">
          <mxGeometry width="50" height="50" relative="1" as="geometry">
            <mxPoint x="1023" y="498" as="sourcePoint" />
            <mxPoint x="1111" y="515" as="targetPoint" />
            <Array as="points">
              <mxPoint x="1078" y="571" />
              <mxPoint x="1078" y="722" />
            </Array>
          </mxGeometry>
        </mxCell>
        <mxCell id="9JEJFbvVPndM7wwkYAKE-12" value="Sevice Bus" style="shape=image;verticalLabelPosition=bottom;labelBackgroundColor=default;verticalAlign=top;aspect=fixed;imageAspect=0;image=data:image/png,iVBORw0KGgoAAAANSUhEUgAAAOEAAADhCAMAAAAJbSJIAAAAflBMVEUAccb///8Aa8SgvOIAacPu9/vU5fQUesmoyei80OpxqdsAZ8MAb8XN2+8AbcVmmdREjND1/P6ew+aKtuBrpNmRu+IAZMJfm9dUltVioNcAYsEAdsiHst651O2dw+Z3r93h7vjJ3/Fdn9kzhc44i9Dk8vqvzurE2O50qNy71u63t1fyAAAE2ElEQVR4nO3dbXeaTBAG4IWsYLNbgmhsrRrxadQ8//8PFk8bwQjLi+zujOe+v8ZwuI4zzKIIIggO26dHzfEQBCI4JkqGjxkpZRaIQ6LF40bLXByl772wGjkVT6HvnbCa8AlC7oGQfyDkHwj5B0L+gZB/IOQfCPkHQv6BkH8g5B8I+adVmEj6Se4RJpsp/WxMxDah+h7Qz3cFIYTUAyGE9AMhhPQDIYT0AyGE9APh4wunpmsTJQdhZHqPZCaiX81/1nrie/c7ZCIMV8gu9yJ4VklTVOZ77ztlK2Wia5OoVSCC4Lh6qc/Hyfe+d0y+eUlr85Kdr/N+9EDIPxDyD4T8AyH/QMg/vYWzb34zsy6cCOXxO3slep/P9Reuff5eUa/tC4PM9KGB7ajX3vs74EiTGT4VsJxlf+CgY2mm/BSqlgOAw6ZFJr0QBwEHzsNs6QE4oAeHCwui83dxSA/eIXReqMN68B6h66ExGHjHutTp0BhaokOEk/8uRHdDozzIPB/sC8XPC9FVL5YlunKxLo3ljwvRTS+W7+BCxS6EOiyJLuZi2YMLqd0IhXRYqJUxsVLClVBUCtX2rVFkpUSFO2GVaLdQqyUqXAqviBYLVV0DXQqd9OJ1D7oWCgdDQ131oHOhKIfGm50F3K8vJepcWCnUNwsLOF2+g6vLAdux0G4v3vSgD6HNXvx6FPUkFNYWcMtaoAehpUK9HRP+hHYWcPJmTHgUVgt1rKHRUKK+hNVCHWdo1I0Jr8KRe7GxBz0Kxx0at0s1AsIxe7FmqUZBOFovVpdqdeXgTzhWLzaOCf/Ccc7665dqRIRjEJvnIAnh3YVqHBMkhPcu4Np6kIDwvjON9hIlILxnaBiWapSEw3uxQw/SEA5dwLWOCTrCYb3YqQepCAcUapcxQUnYf2h0GROkhH1XN51LlI6w19c2uutBhpSw0ovGnzeKXj1ISlh5F7eh6fVaTj9f2NqDtISVoZHHjYdULdfRBdjpqERIWCnUYJ7UPgdFJ+Hu8hrTUo2osErMF+Ht+xiGP/IS2HEBREooZFpeV59v4mWoP/9T61Ctd1G50Z9dz7ZoCUX4u3qJ1n7+Hn5ecv8+31c3+d75zobEhMWs217/8yHan/bRl0vTTtp4X0DSwoL40bZHs02fM0lywqJS11Pj5o5xrw88CAqLmRcfGze2/d3zMyuKwnOpxpu8Zkv5a9z783GawmK/QpnuTlXl4bRJa2YkW+FfpIjTxWZeZJHGQhqXqxyF573TxTrtnPNNLIZug7RwjEAIIYQQQgghhBBCCCGEEEIIIYQQQgghhBBCCCGEEEIIISvhWjbeh99+pIM7Q852zz6zs3//UnaBkH8g5B8I+QdC/oGQfwphNP+ozWbK4Yld/zKrzfkvIpjKhpOFUGkuj7R6TePapK+FcFL7e5Z/Z2P974fqJamqfyiZ1ioNxP+mX6vIve+d75K94VeOy70w/s5Tbtu37z8mgmx5wiMP4dxAaHuGJYQ0AiGE9AMhhPQDIYT0AyGE9AOhUfjN9953yV3CLGKQZ8M9GdqEQocMYrp0olXIPhDyD4T8AyH/QMg/EPIPhPwDIf9AyD8Q8g+E/AMh/0DIP4XwaPvB2n4jpyK3/nR0n9EqEsGbkr6/eLAWqebn67zz7OlRk0VB8Adyp87vRUjf8AAAAABJRU5ErkJggg==;fontStyle=1" parent="1" vertex="1">
          <mxGeometry x="1219.5" y="688.75" width="66" height="66" as="geometry" />
        </mxCell>
        <mxCell id="9JEJFbvVPndM7wwkYAKE-13" value="Logic App" style="shape=image;verticalLabelPosition=bottom;labelBackgroundColor=default;verticalAlign=top;aspect=fixed;imageAspect=0;image=data:image/png,iVBORw0KGgoAAAANSUhEUgAAATYAAACjCAMAAAA3vsLfAAAAyVBMVEX///9ZtNl/ugAAcsZPsde73+/l8/nt9/vF5PFXs9l3tgB6uAAAb8UAbcQAeMn8//9VldPW6Lh0qNrW58C2132+24nI4JxQqtaGxeHb7vY7ic6aweWRyuRhuNtjtcNXtN5st5Kr1+rk8MnP6PMAZsLY5/V2wN/J4Kyw2uyPyuRtvN2e0ef5/PLw9+Pe8PfJ5vG21O2PuuKBsN5HkNLD2/CixuckfspsntZ1uN222sjd7c7w9+CizqCKwCOjzVrM4qaq0GmWxkOfy1VmiKZ4AAAIx0lEQVR4nO2de3/aNhSGMcgXQRI3aZfhBK9zTV0wKbRdm25kbZJ9/w81G0iw5Jt0pCKZ6P2v/QX5+JGso5tf93oy5S6DOI4DqWUKK7Y9z145qsOolLuKxhbaaqw6GFKTXVjh3HZVx0LItROMEMbWRlgzbAu0iyuLMbG1aXV+ZO0C0xNbVIwOWXM9wAUpwpbO2GZEpWbgFhqAiy1ammPLwXmqYwow1h2bTWOzMIrVhuSHpcamHTavhM3CltqcuiiHpB22VUWMagdJbkVE2mGLq4JES4URRRXtX7vhbrAfUhbCnCuMKKTDQTidRMrzFCk3ms1DVIrUVxaQQzU2jHQYElVqFVKxInWVS6d2pNkkntCcGvUu1EWC5VL7dH1Rrc+fJAwYqB4lFS8RqJSkFgkV5n+eTk/rNJ1eCIOjxm9ItDywqGdU6Mbcq9NBk04H70XDtYjmhlSNeF2JCx9t1AaDk1PRdDMh4lXWES/JMGYiZX1po5a1t78E4yWfUmWplBx+C02PnZNWaoPB9KtYvAH5kNpipYEVy2v036YM2E4vxOJ1LS2wUalJZJZ30f6MZr3blVi8emIT6bFfMWE7E4v36LD5r1j6toHBRspgA4nAdkbKYKtVAdvJleMWVSRqsJEisFELYYVsYbCRIrBRc0WDrVYGG0gGG0gGG0gGG0gGG0gGG0gGG0gGG0gGG0gGG0gGG0hmKg9ScXXo9prQtyuzcFQnYpmSOsdQXMAUi/e4sdXLYCNlsMH0nWnD71Ys3uPDxnAEJMMmeAjk+LB9ZTrMcC0W7/Fh868YOrep4Im048PG0tymgo3tGLH1rqct7W36XTTeY8TW+zY4rQd3cnryWTjeo8TWc77cntVQO7u9ED65e6zYssQQvM/19++kvr4PpBxPPlZsO42p1x1kFfzCsMl6Gc9gA8lgA8lgA8lgA8lgA8lgA8lgA8lgA8lgA8kNdcQm7bXWX4XNJ177FnuRU0B2x7CRb8sLvqMOF2GegkNpxhq/DFuqBTbiJWosz+mgiC13R5SGjXCSUOYpRBgzSIyi2GfGmaQ1Y+rxkFUsn0iHAXlt3i+0NrlPEumtJW0dj0+kC580owOfsIeRmu+ogZuSzs0lbDWkZQQnoVxOJhI9nBKiaCXed6RnEJJj7OVHZesriU6S5JBJgWOaP6YahYxnNFigKvdBZEWSuiGX9DlC48O6kTkzi6ImWnHOKkpQFbQtOGSNZzK2ryifPoyjg7kGOmE2mqKsdrFAc3DiKNmQaVT+B+HEC8Tah59SfUB+2cOQW1oly0JovnPjaJxXQrnEOnTYShaxQB2VDW/xgcyOlqXbAabyYB5W2Ubu7qYWZUY5zR5ZYPSrUs7BarBhC9TWVgn9qBNs5m5a/9jmrurpDNbXxbTdohpsaAy5bJA09mV5+/UnDVitjTk4CJw71wEbZLXPXzQRwSjdunN5VnOeQGEEyhDk8E3RQ8pf5/RMgLgJK3v8nmC4C6uxxWGU8KcHd0IVogYbSjmv69C9SwEDChO72IKcSe0fby/OPYfQpG/LxeV455RMjncEsgy5iEtN1/USqz7hZqT5eomyMfvBsJVSOM/2i1tBLR/LJlEZ2dNPgtl2eFeNm4dbUDHoPBg2+g5wwt41U5NZjLYzp9YCnHiRN7uKvo7D3tFPqd9idKjhbs91Y8oymWOaQM4Ks2n63OOY3AR21teVKi1kTkoLus7GK+eQy0dUMmSO3KWWIAA+oH48SxBsBYhcI7Rwenj7/wTkK1qsbsjoYSeXXIJhfUypz8KkCtYpyXbDaNFd/JHgejcxYk7YfkO5eSsxLKbWrphaTmF8LmwXHHATcEhqE8EAYKJ2rpgo7BfzJeytOPueis3Gn7J5VvT5IaLJM9Wdv4+b8bFq1N4vmW3Tk8qjir7PQVqbs3DYf85DjqP3fhzEtOlJnpKQUXEQEXmJqb6D/S+kbKrsy2Pq3MgzIKo+z2GT2Biy+fO2OMcItUn7iRpT69XjxBH/+TZvj01Ox7LHxjBu1OR8G/9pSrXY9DxNqT82y2DbymAD6YVge4t3MtiYsN28y/XPH89a5/++Ew0hfPskhu/EdA7bZX+40aj/rO1/9N/cwK59c/4h15/P+nfz7/Om4jqGbf1j2K/TqH8OuPLdz9FoRFbDaFMto9HP+hbcLWzr/qiWWt7sPnBf+H5UX+Kof1/3s05hu3lspJaJt4e7r2+8G3B13DqF7bKN2uiB77J3bQXW1UOnsP1ou8l+/yPXZR+g9dAlbHft1IZcWeFje4E/qvNpl7C9a32k+qNLnquum3u2TYHvKn/ZJWyvGbD9xnPVloSQa/i68pcvGltrijHYqmSwGWwGG7MMNpAMNpAMNpAMNpAMNpAMNpAMNpAMNpAMNpAMNpAMNpAMNpAMNpAMNpCk7SUYbCWtW2+yP6zdR6/Sy9hLYNgnHXFty7+MnSuG3eBHrqu+jH3S9tvk211+IbvyrZ3R8A3nZdv3+WsOR3QLW5b7Gs5VcVNrr4e61tsxbL31f6P8xF5Zw+Ej5FTgfcOJuYZzhl3DlnVw92+qdHkHO/l897A7xFpS/6H++FL3sEnXx/V5ldZNZ760xIYP/7o+pzTBtuoYNkcPbDGBTc0L+zxakl4S8gxW+RQgLWqPWXq8Kl94hXvzkMpx3v2FIl+VV+SNTRgGbKTolX1mUaa7ysIN9egsGEUlfkUG9j3a6UBhICzyKX8jVZ9LKPlqKLJxYRNtVKwwg8VU58Ztt3g4ebTdnbxvfvCr5N+HkiiW8+laeVrG9jyk3fKU9iiTErfcz0+z1DCvcrZUZmeRa1llF6nbuLeiblUOP3KNK0LqAjZlljNbuRXGrkrbf4WqehJVtlBP8srOpPpjk+SwJCK7/PEWtQ9ASSVsKFU1HS0oGFPglDl81YjGhsbK29pGAfnlA62xYZSuVAf0rGAR7snpNsfaY8v9pFWtstVoQ24rdZPkSs2f4spmMFqubTmx7XmerVmFZkHZXryU2qH9D/JBziysWy2KAAAAAElFTkSuQmCC;fontStyle=1" parent="1" vertex="1">
          <mxGeometry x="1340.5" y="627.08" width="123" height="64.67" as="geometry" />
        </mxCell>
        <mxCell id="9JEJFbvVPndM7wwkYAKE-15" value="" style="endArrow=classic;html=1;rounded=0;exitX=1;exitY=0.5;exitDx=0;exitDy=0;edgeStyle=orthogonalEdgeStyle;" parent="1" source="9JEJFbvVPndM7wwkYAKE-12" target="9JEJFbvVPndM7wwkYAKE-13" edge="1">
          <mxGeometry width="50" height="50" relative="1" as="geometry">
            <mxPoint x="1065.5" y="735" as="sourcePoint" />
            <mxPoint x="1220.5" y="747" as="targetPoint" />
          </mxGeometry>
        </mxCell>
        <mxCell id="9JEJFbvVPndM7wwkYAKE-19" value="Event Stream" style="shape=image;verticalLabelPosition=bottom;labelBackgroundColor=default;verticalAlign=top;aspect=fixed;imageAspect=0;image=data:image/png,iVBORw0KGgoAAAANSUhEUgAAAOEAAADhCAMAAAAJbSJIAAAA8FBMVEX////8/Pzn5+f7+/v5+fnz8/P9/f3l5eX39/fo6Oj19fX6+vr29vb09PTq6urm5ubu7u74+Pjx8fHLK4OIiIi5ubnEJX+ysrKvr6+kpKSfn5/Y2Nibm5uQkJC/v7+Xl5ft5OjFxcXlscnVNYny3Oblu87dhK/TI4Pb29vOJIHTTJKDg4POzs748/bWKYXlp8Tu0t/JAHroxdf14uvnmb7fd6zeYqPTh63o3+TLWpj16/DZQ5LgfLDuu9TfaaXcVprqp8rgmLzts9LWdKjQVpbOOovmwdbQTpfWkLXTc6fLQo7cgq7bk7rFLobZob3jydeZJrO2AAARg0lEQVR4nO3dCVfiyBYAYBACkQCSsIsgmyAKgqC2QqPSio5L6///N1MVSFJbkgIrgT6HO/PemYMs+bxV91YV6ZlAYBe72MUudrGLXexiF7vYxS42FepeqVurZH2MSq0UVX3SBeXTmp82I/L5fKUUC3ruC6VK/onQWDyW7aYUb4FaaTE2K7VuycPo0lGrZSEzny2lPPRFovr4rHRP9zU5tOZ7IBEKLiNkhhKGocK/ZCPiIKTUfrQEkIBZOY2IZSEXt0hgNxmLEJeqR9A+QmgoVoTNUFUV8egRMyIBIxYDymgXGrNdj2ZjqKv7Uiqtc8DxEFXLhwjjmHARqWgNTsramgPIORQdeBpm2ty9bKKOUzGhE1GSEqDSQaIH9UYH1vYDLAc1YFlIkmgNT1siQygl4tEKJIZFA4OwSdSSgSB1/TTPBon6sAlIEm1m4pIoxXSi8LkYBUWmkgyEyMu28zGQ2PhkEB2SGEOFUjwKG0dULFCCbSIaCa3AQ5CAFiQnIBeRnUQpdgoXOJpIoD5GT8FVrggkph+buPo4lRJdQCyJHKcSGKO1WHAVILPCuBD5hSk4FSWBQpjCfW6gQxEVRozm84WuOKACO30cF3LQ2EYuonsSwTgtiGuKp3SZ4cXRREFJBMWmUBImBIW0pmEpZOGcuAKTKC2ESbB8q4gChkAKSyEcSHR+9wHrTFwliQuiBMupqGGaBM0+im51iItfueCsNE5J4RKYKIFheiBIeArXa+hF8vhooyORI4mGbRnRbEHYRARr7pqEXB8vkDSuP07R5BmRrBQKNUFCsLXuhm2EzkDCuE4S6Qm4DK1WKIgqNRUgDK4J/AHRbgYaExEIswKFEaaQA4gRnaYiInTYHloREywMrA3EjE5JlI0E2u6AvRPmfyh0I7pWURbRDyE3kEk0M8jfCv0RrgVkbaacagyPUGilESDEiNyt0HaYaprmlXBdYITguTQK1yRuo3ClVkgnkVjRbJeQXWO4k8hYsfki5GQhQTcKSmhNRMdmrxM3KaRx3Ek08+fY7DcotLO5EskFm8uKzQ/hijbXJK60nPG0HzKEXDgbopG+1ZYzvgjpb2jWEDJqDHcSvR6l1Dc0KxKpPRP/cmbZLDTJC6GiLL9hWR+ohJglZrXljB7Cc7icOFTjXy13VI3hWc7Q+dME5zCbL9QiawtDeLg3e1zI6BPic7iuMMQKh8MLUmjXCbdByLRZwtDiOXq9MksPInTuE6awWMhvQuiAW740EuqNR6NRE4+x4XPthF4IC1xCVxuISKDXHEyvrh8mjTYevxN8R2z+C0OcNhiBSHN6dT+5uLhoUNHu8QolX4SruExfYAh5kAOMRArb15TQZZgmKsWiZ0JEyh2RwKD1sOC1J9dXf06GAyzGnMekplDySKgQueSMYGB8NVlk7+axOe71ZOuLkGX34BJqVogXLtrXesJIeLoYng+P40BweVcU95KUwfNAGAz/QBgZt9qAN7mfBgNB/kV3jL0g9UnISVw8s3kDE3j/2Aug97S5Lrrt+sSWCK0nhoewwkyumpEQ13rNZsHtl9BlmCpUhMLTBzgBpz2jWNkuuuPkCZuvwpCLkKYtn6ZA4MV9U3E5Q+RvE34JFVecHsHBGQT2gvZHiKs2Qq+FWBIdcTAiowkEqkHkMUvodjbjr1DFhWg2HTLYg0XmuocCFTN/rqdPGxJSyXRKYQsA70fYgojz4IJ5guitUDUmDr8w8AKANwOiiG6pUJFl48K4kxgc3YA+OA0reO7BW4BdPutIeVm55E0LuYmRK9AIWz0CGA6DVdxL/6plEx+zUXxDwhWSqP80OACd8GEUxHlKRJn+fj6bNC46NpGehXmFBY+EjkQkVTCFjxHcF1T/PCA7+3Q6DU1YdFrKpnNoJ8STtUhhEHs0JA8f4C6j05hMzuziuilvSmhLJCfaIvoXjYs/WAqD40d4RNM5u76aNnt2Xz+GZLuTUs9HKUNoH6HRNSikWJkJjn6DBHYerobhCHJAan87sI/C4kKIEPW/nazBIViuXQUx4HW7cdFoDcF+g7nzXUGYSqVECvOIcHlRqls6ld4jGKTNEAr8DR45+zMOcd/H5rNQvwbzqtyIofH9ReNmbA1SpQdK68XZS1whVjS8QmxR6oEwvLwIbuEIDlJkGkam8KxtGLI/nnEQamT4IHQjKkMw5wbWNAS946LRfolYL3Ofhj4KiwyhC1G+umhMmtbZR2/WbnRaAf4/Mmo/Qj0WspLIICq96wuwbTILTWgAxuhDT2GkkBK6dAnPhXxEpXfTuGiZhUaRH0EKp8jekPXHKRPuNRQTHnotdCIqvQlaaJTxQ6MDKqvKENr92S2/hWrcmaiSQtD7+uaDoWa70e73yBSy64vL6YVnwthKRKUHSFNrGoJBOhmGEKD5TnSviLmn0BthjCG0JS6EZikNXnca900Fz56sxllVhREkTg8te3joldCOqBLCE0s4Aa1ibK21oTDcGz3eNC7pmL/E7YQpJAQLK0DIQVRthCHQ7Wc9tMnLseZnmtz7LnfAH+FNCVcgWkL9UQUWGgUBqr3pQ0ff31Nxme7LbiPUB6E9Ef6rZQxhaDnxVOWy0a6HkAz2/px1gO/+s1+n4qSaYOm8FoZjtknEifoDsroULp+BCWHZPJkA4M2wOZaNgWy9PGYL9EHoTEQf0YXmuESF4LXqCGbwY6yqaDfk6vOeC22IVDgK5UQLAnth+297NygkiTbc8NhOCFM4hkN0FEbuztsmoUVECw9pVAbtRoMlhE9VHoGwLjut09ynoVBhwailBpHOJ2kM6ss0VNjRhfoTg/eds9Zom4TLbmFcTSxG55M0Rm7gN9vGIkZdCI1fTXDSehljQB5higjRQhm5HHuigVTAXgJsnszqGoZCc6Crw7Eax4AsoQPOE2FcYhOZRjUIdviTqWIWojCch9ZUltE/g+6eQiZQ+DwEi2FeYlyOPDYanWvrXjxZxYWL16kq4+Q3EY/xAb0Q8hLlWB/e4vWiLEsueEYCG6X6i6Tq5yd1X5cUGz0NUy4T0EOhHRFpIDHgG83g92Yzxfq5PL5MY8K41JzNO52ZFseBieZd5/LupSpxCY88FRrE+GI3YXz/lBgP6vcXjUa71bMWZKC0gO44VRFx/VnfOD324lgGm09w95RuDdyBwoWLDQ1JTMRH9T4as9aDfotzC3YDM8Kgxb+/mEJl0Eovdobzx3GcBELjcz21ISFCXPyjOoN3NC+j3W7rvPbZHwwYC153OjcDQyi/PJs733mraZSWeKJ+bzycm/+qcgiPiuKFEj5tEso1eVP6RXtyNZDiKDDem8OdhHHTYfga3do/twb6d3Xj6dN7znw0d/kiOQMFCw8r6LYbIcovE/yG9Ml1fSzFMWAsPE2nG7OwXjnBi9QZfngxP7v//XT3Pkcfy11WXVIoXEgeDplE6iZFVcZ9oLzed9JnQ9lIf6xJHc+QBza53LPkt5A+xCQnJruRgMTJdZCej7g1uoNzUpgmgZ1HN6BvQhYRIHXo4p/lEUghdkIY/s08Y0OAucuBE0688PCwktA4iWgt0rHjzwaoM+hvSH50FAJg7u+tG1C4MKbZEk0j82dafwKKSROdx/GpkxACc/ONCO2J9pFI1CeddLuOlWK57iDUgRvK4RpEsJoBVaX9qWH5JdsFDczlfBdmdeFqRFBrxvfwYPtjjNcp5d5WaAAvTzYkNIiuXFhKe9V+A1Ja4zjxM1dgLvfkKkzlPRHioQ9Ea2MYM08xEr1qczg7gwl8nxFAKd63E+aQaLoS88dChQmWEBCrU/qLh3q9P/t4TuvfvNyfaPgQ1aTbZw5g7s21Ifoi1OIz8k+7ttudDvxfutHodF77WJvQfynjFstGAnO5vrQVQpnaWxh3xnZA/voDjTx1kVIzcs3W6bw/v6Y7BDD3XnfJomAh43wWRuLE2lsgX+O2G6+/+4OqRv1e4tVfFPBjcAui/npJEOezqmMa88fHPgidgnwJXODUX0nfu3li0aLS+Kpv9dm+pHAheQJGXLz7b6B6e/KRviRn4HPTzLM0I4W5y9zdVzPpl9CR6B7VFnXLOoj3F+RXU32jiBD5xcyiF8IfEaXBHaML5lpV6ykpbThnEHMzljDpidAgGp+yijDxzeqC87pVi8D73bKSmPtPImyLECs8yjKr2irC4RlD+PxtDlL9/eiZCOKXROL8E65ATAzfGYP0ron4UinpiynUWECfhPxEZ2Fqe4XuxmUfYY7S3HKUmu/lKEx6JyweOQhxI7GJ0lLV5uAWPkP6Jnu9WWmsN7KpNP4IHZeIJrA6PMGiPvu4SS8O6G26xRh5Y+dukdykMKUtkIl+o039WbvOxy382e0Ho+Hn3pG9vFb9oHlgVXPCBPosXCYy9kEjOpfPejlJDU5mT2n850BwN7De+ZPy/X37OvmubosQGKWTOX6raGf++jQzvtSVUreDT9SoI56HCf29Je3jL1Vjvm+NRSkF3IgQRJWKJFaJUkPrm7UlY/42iMXlav+Z9L2fIGvurRG69kXp9gkH6nPtb47cHILkoic1NBAIy+UNCB2Yyx9KzTsCyI6/385AKNxEDplI/EfSy5wDePlldWCWb7M5dInEW84VmHtP2tu2IodOoQ3oSUelcOao04WFcvlwO4WpBHPpgkfTZ+FxXqQw9uQ+SG//aaH0y1X4fOsG3G4hvTxbXbi/1cIP6mSUHqUuwL29pEjhsVhhglqg0WE/D/dh7IkXLj5QENEdeFlnCPet8Ewoxvji3g9zb5RwHwd6JhRA1IiN7uXr29vbM7H2/usk3PNU+HOjdoZRPquLtz15xdjfKVug58IfE7/fLd+vqnEKk9Lq1uO5N5cx6q3wp0at+bTczr9/pZY+/V2/75a+1y9XoMdCkriquvqlN4y/Xyls/7Ak/n37dgD6JIQg8pGVmN//gSH5lSR/cd9A/lYnmyEL6L3QNjh48FnV7/++GC8evp1Q2woKeABjc0JnI/Ksgz3Wi+nFDA48MGKTQhvmqu9AABdj82B7hChzTZsB3LPiYNuEPw5UhwP/fSFeOGngvyxkdAYGMCpWWPZBuE/FnhPwHxPSOhfgvyVk8kgfBdSFR6KE5XIhtU9dloc8DiAQZoQJD3WhSbIuwzcfAyhcaHMxHug4geKFi49a24g91QHH8jGBUJjxQMgy2iOdJbw+NtA7IV8e17HZAA/YQC+FrDTuC8Ax82cL9FTINu7/xGbnswd6LCSNTnCBPhTouXCPfWUiec5A8cID8tNtrmoNJacPB0b3iqKFBwfU59oiOZ1Or6d8BNALYZT+UGekk9PldYxPinos3Fu+78rGtcIFtwiBQrC3KEZtheKNrjZTKOp+Gnjz0emBk1EkksOmR+kwkxH1b/6ogM10d896by+JXDg9useZTEWQsFQuH9f2kTdnpvHnSG6cfg2VciZTEiSUy+VylvwAm1hTBv6PH7eIfCaTUQUJYTEtlshLsDOuguSqKOyA01BUKQ0EaplyubZHfYitkUeJPHl1HohaJnNeEyZMAGHhlPExDkZbJf6ktXQgTkGvOI8LEwaygNhlfpKjkWSKwekBUyjqvzIDI1mGLZH9WW5GkyPAZUbpCNSZpEChUsmUM2Q55TSKIRGRP8+cZxWBwkDykF1sbJXwIU9s+ofBMXokMoWBQKQLxulxd9/xcz3MGf5BXdDsy92IUGEgnAXEo65DFn2LA7hey2TDYoGgYxQzcPG2BcQayOB5MSYaGAjEILGctamovsUpXK2dH3oABMtTSMwcdk99mGq2vu7RORAWZS+AgYCaL4OmkSl0SxvylbpFmMByXvgcNCLUBctdoCxma1BJrVlY4Xg+w7NQgHEQPS11a9nDzDlsE92QV0AQ0Sws1ODvo2Ih73kUrCgWj8rnegKzUQ99IGR9X/bjOF85Fi/L5KPC9oS2EdYqx8sP9DOg8riieTYDiZC62eJx2U/gcTHblXzS7WIXu9jFLnaxi13sYhe72AUd/wNOJU5zjuLoPAAAAABJRU5ErkJggg==;fontStyle=1" parent="1" vertex="1">
          <mxGeometry x="1208.35" y="463" width="66" height="66" as="geometry" />
        </mxCell>
        <mxCell id="9JEJFbvVPndM7wwkYAKE-20" value="Event House" style="shape=image;verticalLabelPosition=bottom;labelBackgroundColor=default;verticalAlign=top;aspect=fixed;imageAspect=0;image=data:image/jpeg,/9j/4AAQSkZJRgABAQAAAQABAAD/2wCEAAkGBw8NDQ0NDQ8NDQ0NEBANDQ4NDg8NDg8NFRIWFhcRExUYKDQgGBooGxUTIT0hKCkrLy46GB82ODMsOCgtLisBCgoKDg0OGxAQGy8lHSItKys3Ly8rKy0rKyswKzUrLTMrLy0uLS0rMDUtLS0yLzAvLS0rLS8tLS8tLS0rLS0tL//AABEIAOEA4QMBEQACEQEDEQH/xAAbAAEBAAIDAQAAAAAAAAAAAAAAAQUGAgQHA//EAEQQAAIBAQMDDwoFBQADAQAAAAABAgMEBhEFFlISEyExMkFRVGFykZKxstEHFCIjMzRxc5PSNXShs8ElQmKBoiSU4RX/xAAaAQEBAQADAQAAAAAAAAAAAAAAAQUCAwQG/8QALxEBAAEDAAcHBAIDAAAAAAAAAAECAwQFERITITNSFDEyQXGxwSJRkfCBoSNh0f/aAAwDAQACEQMRAD8A9xAAAAAAAAAAAAAAAAAAAAAAAAAAAAAAAAAAAAAAAAAAAAAAAAAAAAAAAAAAAAAAAAAAAAAAAAfC02ynS9pNR5Nt9C2QOhLL9BbSqPlUV/LAmcNHRq9WPiAzho6NXqx8QGcNHRq9WPiAzho6NXqx8QGcNHRq9WPiAzho6NXqx8QGcNHRq9WPiAzho6NXqx8QGcVHRq9WPiAzio6NXqx8QJnFR0avVj4gM4qOjV6sfEBnFR0avVj4gM4qOjV6sfEBnFQ0avVj4gM46GjV6sfECq8VDgqr4xj4gd2y5Ro1tiE03ovGMuhgdoAAAAAAAABicqZRkpKhQ9Kq9htbOp5FygcbJkaK9Ou3Um9lrF6lP+QMhGy00sFTh1UBy1iGhDqxAebw0IdWIDzeGhDqxAebw0IdWIDzeGhDqxAnm8NCHViA1iGhDqRAnm8NCHViA1iGhDqRAmsQ0IdWIE1iGhDqxAaxDQh1YgTWIaEOrECaxDQh1YgTWIaEOrEBrENCHViBxlZ6b24Q6qA6VqyPTns0/Vz201tY/ACZNylOlU83tO3tQm/5e+uUDOgAAAAAA69vtGtUp1NFbHOewv1aAx2QbNhF157M6uODe9H/AOgZYABQAAAAAgACAAIAAgEAjAAQCAQDoZZsqq0m1u4elF7/ACoDtZDtevUIye6j6Evit/oaAyAAAAAAYi88sLOuWpFPob/gDu2OOFKmloR7APsBQAFAAAAAABAIAAjAjAgEAgEAMCMCNYrDh2AMXdR+8x3lKLX/AEv4QGwAAAAABhr1e7x+Yu7IDIWX2dPmR7EB9QKBQAAAAAAQABGBAIBAAEAjAjAjAgADFXU3Vq50O2YGwgAAAABhb1+7x+ZHuyAyNl9nT5kexAfUCgAAAAAAAAIAAgEAgEYEYEYACAQCIDFXT3Vr50O2YGxAAAAABhb2e7x+bHuyAyFlfq6fMj2ID64gUCgQAAAAAAGj3pv4rPN0bGoVZx2KlSeMqcXopLbf+zUxdHbcbVzhH2ZGXpOLc7NrjP38nUu/5Q5TqKnbo04xlsKtTTiov/JPe5TsyNGRFOu1+HXjaVmqrZux/L0CM1JKUWmmsU1sprhRjzGptxOvjABGBGAYEAgEAgEAxV0t1a+dDtmBsYAAAAAYS9vu8Pmx7sgMhZfZ0+ZHuoD6gXEC4gAAEAAJNJNtpJbLb2Elwgea30vo6uqstik1S2qtaLwc/wDGD3o8u+beFgbP13I4/ZgZ+kdr/Hanh9/+NDNZioyK2u5t8JWJqhXcp2VvY35UXwx/x5DOzMOLv1U+L3amDnza+ivw+z1ahXhVhGpTlGcJpSjKLxTXCjBqpmmdU976OmqKo1x3ObIqMCAQCAQABAMTdDdWvnQ7ZgbIAAAAAGDvf7tD5se7IDIWX2dPmR7qA+oFxAuIAAAA4Vq0acJTqSjCEE5SlJ4RjFb7ZaaZqnVHelVUUxrnueWXxvhK2aqz2duFl2pPZUq3x4I8hv4eDFr66/F7Pm87SE3fot+H3aeaLLRkVGyK4kVsN0r1VMnT1Esallm8Z09+L0ocD5N88WVi03o1x4nvw82qxOqeNL12wW2laaUK1CaqU5rGMl+qfA+Qwa6KqKtmqOL6S3cpuUxVTPB2GcHNAIBAIBAAGIufu7XzodswNlAAAAADBXw92h82PdkBkLL7OnzI91AfUCgUABQPhbbXTs9OVWtNU6cFjKUuxcL5DnRRVXVs0xrlwuXKbdM1VTqiHkt7b1VLfJ04Y07LF+jDfm1/dPwPocTDpsRrnjV+9z5jNzqsidmOFPv6tbPa8Di2RUbIriRUbIriRWZuzeOtk6rqoenSk1rtFv0ZLhXBLlPNkY9N6nj3/d68XKqsVcO77PYckZWo22jGvZ5aqL3SexOEt+MlvMwLtqq3Vs1PpLN6i7TtUu6zrdqAAIBAIBiLnbu2c6HbMDZgAAAAAwV8fdofNj3ZAd+y+zp8yHdQH2AoAAB1cqZTpWSlKtXlqYR2t+UnoxW+zstWqrtWzTDqvXqLVO1XPB5Dea8dXKFTGXoUYv1dJPYS4ZcLPo8bFpsU8O/7vl8vMryKuPCPswjPU8bi2RUbIriRUbIqEVxZFRsishkLLdawVlVoy59N7ipHga/k6b1mm7Tqqd9jIrs1a6Xsl38vUcoUVVovCS2KlKW7py4HwrlMG9YqtVaqn0ljIovU7VLJs6XeAQCAQDE3N3ds50O2YGzAAAAABgb5e7Q+bHuzA79kfqqfMh3UB9gAFAAeY+VG0Sdso0m/QhRjNR3tVKUk3/yje0VTEWpq89b53TFU72KfLU0s02Q4sio2RUIri2RUZFcWRUbIriRUbA2TydWmUMqWeMW1GqqkKi3nFU5SX6xR482mJszP2e/R9UxfiI83srZhPohsCAQCIDE3M3ds50O2YGzgAAAABgL6e6w+bHuzA79lfqqfMh3UB9cQLiAAAeW+U/8AEIfl6ffqG/ovkz6z7Q+c0vzo9PmWoM0WU4tkVCK4tkVGRXFkEbI5IBxbIqMis/cB/wBWsfOqfszPLmcmr983twOfT/Ps9qMF9GYgRsCAEBiLlbu2c6HbMDaAAAAAAwF9fdYfNj3Jgd6yP1VPmQ7qA+uIDEC4gMQPLPKf+IQ/L0+/UN/RnJn1n2h85pfnR6fMtQbNBloRXFkVGRUZBxYVCK4tkVCK4sis/cD8WsfOqfszPLmcmr983twOfT/Ps9sMJ9EgEAMCAYi5O7tvOh2zA2kAAAAANfvt7rD50e5MDu2T2VPmQ7qA+2IDEBiBcQPLPKf+IQ/L0+/UN7RnJn1n2h85pfnR6fMtQNBmOLZFRkVGQcWwqEVxbIqMioyK4sis/cD8WsfOqfszPLl8mr983swOfT/Ps9sMN9EAQCAMQMPcjd23nw7agG1AAAAABr19/dYfOj3Jgd2yeyp8yHdQH1AoACgeWeU/8Qh+Xp9+obujOTPrPw+d0tzo9PmWoNmgzHFkEZFcWFQiuLZFRkVCK4sioRWfuA/6tY+dU/ZmebL5NX75vZg8+n+fZ7YYb6FADAgEQGIuPu7bz4dtQDawAAAAA12/HukPnR7kwO7ZPZU+ZDuoD7AMQAFxA8r8p7/qEPy9Pv1Dd0byZ9Z+Hz2ludHp8y1Bmgy0Iri2RUIqNkVxbIqMiuLIqEVxbINg8n/4tY+dU/ZmebL5NX75vbg8+n+fZ7ZiYj6BAIAAAYe427tvPh21ANsAAAAADXb9e6Q+dHuTA7lk9lS5kO6gPqBQADEDzPyo2SatNG0YPW50lS1W8pxlJ4P/AFL9Da0ZXGxNPnr1sHS1E7yK/LVqaSzSZLiyKjIqNkVxZFQiuLZFQiuLZBCOTaPJvY51cp0qkU9RZ1OdSW8k4Sil8cZfoeXMqiLUx93twKJm9Ex5PZMTGbyYgQABAMRcXd27n0+2oBtoAAAAAa5fv3SHzo9yYHbsj9VS5kO6gPtiAAAUD5WmzwqwdOrCNSEtuM0pJnKmqaZ1xPFxqpiqNVUa4YrNPJ3FaXTPxO7td7qdHY7HTCZpZO4pS6Z+I7Xe6jsdjpgzSydxSl0z8R2u91HY7HTCZo5O4pS6aniO1Xuo7JY6YM0cncUpdNTxHar3UvZLPTCZoZO4pS6aniTtV7qOyWemDNDJvFKXTU8R2q91HZLPTCZn5N4pS6aniO03eo7LZ6YMz8m8UpdNTxHabvUdls9MJmfk3ilLpqeI7Td6l7LZ6YZSw2GjZoa3QpwpQ29TBYYvhfCdVVdVU66pdtFFNEaqY1OwcXJz1mXIA1iXIBNYlyANYlyAdC7GTKlklaXV1DVaUXDUNy2E57eK/wAkBn4yTA5AAAADW7+e6Q+dHuTA7dkfqqXMh3UB9cQKAxAAAADEBiAxAYgAIAxAAQABypvBpsDRr92a20KsrVTr1/NqjWxTqTiqTwwwaT2nwm5o+uxXRu6qY2o/1HFgaSoyLde8pqnZn7TPBqDyxauM2n69XxNHcWumPxDK7Te65/MuDyxauNWr69XxJuLXTH4hy7Te65/MuLyza+NWr69XxOO5tdMfiHLtN7rn8y4PLNr41av/AGKvicdza6Y/EL2i91z+ZeoeTC2Va9hnKtUnVlG01IKVSTnLU63TeGL2duT6TF0hRTTdjZjVw/639GV1V2ZmqdfH4huZ4WgAAAGuX8X/AIceStFvqzX8gfexSTo0mtCHYgPviAxAYgUAAAAAAAABAAAABAAHL0ZxdOpFThNOMotYpp7zRYmaZ1x3pVTFUap7nmN87rSsUnWopyssnt7bpSf9suTlPoMPNi9GzV4vd81nYE2Z26PD7NUbPdMs6IcGzi5ODZxlyiHrHkk9wq/m6n7VIxNI82PT5l9Borkz6/EN7M9pgAABj8vWLzmy1qS3Tjqoc+LxXZh/sDAXYtmuUdalsVKPotPb1O8/4AzIACgAAAAAAAMQGIExAAMQJiAAJY7CAx148vUsm0cXhUtE1hSpJ7b0nwRX6nqxsaq/V/rzl5MvLpsU/eZ7oLsRtVeyTeUVGWvtuNNxSaotbUl07Bcnd0XP8Pl7pib2u3/m8/ZoN9bqSsMnWopzsk38XSk/7ZcnAzUxMyLsbNXi92Pm4M2Z2qfD7NSbPZreCIcGzjLk9a8kX4fV/N1P2qRi6R5senzLf0XyZ9fiG+HgaQAAAANRvDkerQrefWNYvbrU0ulpb6e+gOWTcvUa6Sk1Sqb8JvBY8j3wMrGSe00/hsgUAAAAAGADAAAAgAABAAHzt9onZ7LWr0qbrVYRxhTWOLeKXQscf9HZZoiuuKap1RLqv11UW5qpjXMeTXLsXcq163/6WU8Z1pPVUqM1sR4JSW9yLePfk5VNNO5s933Z2LiVV176/wAZ8od++F6VY0rPZ1rttq4RhFelreO1JrffAjpxcXefVVwph35mZuvoo41T/Tu3dsVo8y1vKMtfqVdU5xnhLUwl/Y3vnVfro3mu1wiHdj0XN1qvTrmXnF97pSsE3Xopzsk38XRejLk4GamLlxdjZq8Xux8zCm1O1T4fZqDZ65l4Ih655IPw+r+bqftUjG0hzY9PmW/ozlT6/EN9PC0QAAAAAMPlO7dltLcpQdOb250moSfxW0+gDESuThuLXUiuBwx7GgGZU+Oz+m/uAmZU+Oz+m/uAZlT47U+m/uAZkz47U+m/uAZkz47P6b+4BmTPjtT6b+4BmTPjtT6b+4BmTPjs/pv7gJmTPjs/pv7gGZM+O1Ppv7gGZM+O1Ppv7gGZM+O1Ppv7gGZE+O1Ppv7gGZE+O1Ppv7gO5k67teytyp21tPdRnQ1cX/0B0L1XndhgrPSkrRb6uEY4RwUMdhS1K3+BHtxcXefVVwph4MzM3X0UcapcboXWdCTttseu22p6XpelrWO38Zcu9tIuVlbcbu3wpj+3HDw9id5c41T/AE69770VNcWTsnestdR6ic4bOtrRj/ly73ZcbGjVvLnhgysqra3VrxT/AE2HIOSZ07DCzWufnMtTJVXP0k9U29Rs7aWOB5rtyKrm1RGp6rNqabcUVzreX35ufOwTdegpTsk38ZUZP+2XJwM1MbKi5GzV3+7Hy8ObU7VPh9m3+R78Pq/m6n7VI8efzI9PmXu0Zyp9fiG/HhaIAAAAAAAAAAAAAAAAAAAAAAAAY3L87RGzVnZEpWhQ9UpbWqx2X8cMX0HZaiia42+51Xpri3O78TXbn3TdCTtlseu22pjLGT1SpY7ezvy5eg9WVl7cbFHCmP7eTEw9id5c41T/AEyl7lbPNZQyek685RhJ4pSjSaeMo47+10s6Mfd7eu53PRlb3d6rXf8ADq3NupCwQc5+stVRetqvZwW3qIcnLv8AQc8nJm7OqO6HXi4lNmNc8ap820pHlex8rVZo1YShOMZxmnGUZLGMk95liZidcJMRMapdTIuRqFhp6zZqapU9U6jipSljN4YtuWzvLoOVdyquddUuFu1TbjVTGqGRODsAAAAAAAAAAAAAAAAAAAAAAAACNYgEsADintgVIAAAAAAAAAAAAAAAAAAAAAAAAAAAAAAAAAAAAAAAAP/Z;fontStyle=1" parent="1" vertex="1">
          <mxGeometry x="1305.27" y="463" width="66" height="66" as="geometry" />
        </mxCell>
        <mxCell id="9JEJFbvVPndM7wwkYAKE-22" value="Power BI" style="shape=image;verticalLabelPosition=bottom;labelBackgroundColor=default;verticalAlign=top;aspect=fixed;imageAspect=0;image=data:image/jpeg,/9j/4AAQSkZJRgABAQAAAQABAAD/2wCEAAkGBwgHBgkIBwgKCgkLDRYPDQwMDRsUFRAWIB0iIiAdHx8kKDQsJCYxJx8fLT0tMTU3Ojo6Iys/RD84QzQ5OjcBCgoKDQwNGg8PGjclHyU3Nzc3Nzc3Nzc3Nzc3Nzc3Nzc3Nzc3Nzc3Nzc3Nzc3Nzc3Nzc3Nzc3Nzc3Nzc3Nzc3N//AABEIAJQA3AMBEQACEQEDEQH/xAAbAAEAAgMBAQAAAAAAAAAAAAAAAQUCBAcDBv/EADgQAQABAgMCCA0FAQEAAAAAAAABAgMEBRFxsSEjMTJRU3PBBhIVFiIlMzQ1QVSRkhMkYnKhgRT/xAAaAQEAAgMBAAAAAAAAAAAAAAAAAQMCBAYF/8QALhEBAAECBAMGBwADAAAAAAAAAAECAwQRMTNRUnEFEhMUMpEVITRBU4GxImHx/9oADAMBAAIRAxEAPwDuIAAAAAAAAAAAAAPO9et2aJru100Ux86p0hhcuUW471c5R/tMUzVOUQ1PLGXfV2vyavxHC/kj3W+Bd5Tyxl31dr8j4jhfyR7nl7vKeWMu+rtfkfEcL+SPc8vd5Tyzl31dr8k/EML+SPc8vd5Xth8dhcTMxh79u5McsU1LbeJs3Zyt1RP7Y1Wq6PVDYherSAAAAAAAAAAAAAAAAAAACJ5ESPlvDC5VF6xa19DxZmY6XN9vV1RVTT9no4GIymXzsy5+Ho55omUiNQNQbGV3arWY4eq3OkzciJ2S28FVNOIoy4qr1MTbnN0WHcvCSAAAAAAAAAAAAAAAAAAACJ5EToPkvDH3ux/Sd7mu3tyjo9PAemXzzwW+AiQRqmB74D37D9pTvbGE+oo6sLvol0il3bwGQAAAAAAAAAAAAAAAAAAAInkROg+R8MvfLH9J3ua7e3KOj08B6ZfPS8Fvo1TAapyETIPbL5/f4ftad7Ywn1FHVhd26nS6XdPASAAAAAAAAAAAAAAAABKJGFVyijn1RG2WFVyin1TkmKZnRj/6LXWU/dj49vmhPcq4E4i11lH3Jv2uaDuVcHynhdrexdmbfpxFHLTwue7bqiu5T3Zejgs6aZzUP6Vzq6vs8Tuy3u9DznWOCTJKEiJB75f7/hu1p3r8J9RR1YXdup0yHdPASAAAAAAAAAAAAAAAACJ5AfMXrlV25VVXOvC4i9XVcrma5z/69WiIiPk8+BVlDJE6GUDHXTkA8aekFRm9NNN23VTGk1ROv+MKoX25aGrFYiZB75f7/hu1p3tjCfUUdWF3bqdOh3Ln0iQAAAAAAAAAAAAAAAGNfMq2BD5T5y4Wr1T+/wCvWjREyxSjUGMyhKNQVWdTxljZV3IlbbV8sVyNQe+Xz+/w3a072xhfqKOqu7t1On0u4eAyAAAAAAAAAAAAAAAABjXzKtiJ0HyUzwy4WrX3/r14YzLFKNQRMiUaoFVnPtLGyruJW21fMoWomSBsZd8Qw3a072xhd+jqwu7cuoUu3c+yAAAAAAAAAAAAAABj40dMMc44pyPGjpg70cUZIrmPEnhjkRNUcU5S+Sq1iZ4Pm4iuP8p/f9etGkMJ2MGSNQRMoSjVAqs5njLGyruI0WW2glagGxl0+sMN2tO9sYXfo6sLu3U6jS7Zz7IAAAAAAAAAAAAAGrjrlVu16M6TMtLG3JotfL7rbVOdSt1npl4k1TxbWUI8aelHekyR409Mo708TJjpHRDDKEoqoprjSYhExEwmJyVdfBMx0S8+rVsxoxmUJRMoFVnE8ZY2VdzKNFltoapWImQbGW/EcL2tO9fhd+jqru7cuqQ7Z4CQAAAAAAAAAAAAAaOZ8yja87tHbhdZ9SveLm2UaoSTKMxCJlKECpuT6dW159WrZjRjqhKNUCrzieMsbKu5lSstq+ZZrEag2ctn1jhe1p3r8Lv0dWF7bl1WHaueSJAAAAAAAAAAAAAaGZ8yja83tLbhdZ9SueJm2hGaUIBAjUSqLk+nVtl59WrZjRjMoSx1BV5xPGWNlXczp0WUNCZZM0aiWzls+scL2tO9sYXfo6q723Lq8O0c8kSAAAAAAAAAAAAA0M05lG15nae1C+x6pVrw20aoEaoShGYGaVPcn06trRnVsxowmWKUagrM459nZV3LKFlDQZs0ag2Msn1lhe2p3r8Lv0dVd3bl1ml2jnkiQAAAAAAAAAAAAFfmvMo2vL7U2oX2PVKteFm20aozEIzSaoAFNd59W1pVatmNGGrFMMZkSrM4njLOye5Za0lnS0NVrM1Bs5X8SwnbU71+F36Oqu9ty6zS7Nz8MgAAAAAAAAAAAAAV2bcyja8vtXahfY9Ss1eBm3DVAieRAgSaokU1yfTq2y06tWzGjDViljMgrM3njLOye5dZ0lnS0VrMmQbOVz6ywnbU71+G36OrC7t1Otw7JzyQAAAAAAAAAAAAAV2b+zt7Xldq7NPVfh/VKrc+3EaoSjUzEIzBGYpbs8ZVtlqTq2o0YzKEsZngQlWZvPp2dk9y6zpLKlozK9kiRLayv4nhO2p3r8Lv0dVd3bq6OuUuxc8yAAAAAAAAAAAAABXZx7Kj+zy+1aZqsfLivw85VKnVzmbdQjMNUZpQAgUl32te2WrVq2o0Y6oSxmRKszeeMs7J7l9nSUw0dVzImUpbeTW6rua4SmiJmf1aZ/1sYSiar1OXFVfmItzm65S69z7IAAAAAAAAAAAAAHjirFOItTRV90TETGUitnJ6vld4Gt5PDzrRDPxK4+55Hr608lh+SDxK+J5Hr648jhuSDxK+J5Hr648jhuSDxK+J5Hr648jhuSDxa+LynweomeGaZ/4xns/C/e3Hsy8e7xR5u2/4/ZHw/Cfjj2PHu8Tzdt/x+x8Pwn449jx7vF53PBjD3NPHpoq05NYZU4DDRpRHsnzF3mY+amE6q3+KfJYfkj2PM3eY808J1Vv8TyWH5I9jzF3mbmW5DhsDd/Ut0UxVHRSst2LVuc6KYhhVdrq+Uyt4XMEgAAAAAAAAAAAAAAAAAAAAAAAAAAAAAAAAAA//2Q==;fontStyle=1" parent="1" vertex="1">
          <mxGeometry x="1398.5" y="466.79999999999995" width="88" height="59.2" as="geometry" />
        </mxCell>
        <mxCell id="9JEJFbvVPndM7wwkYAKE-24" value="" style="endArrow=classic;html=1;rounded=0;exitX=1;exitY=0.5;exitDx=0;exitDy=0;entryX=0;entryY=0.5;entryDx=0;entryDy=0;edgeStyle=orthogonalEdgeStyle;" parent="1" source="77WKknoFe-UdvtvTZswO-19" target="9JEJFbvVPndM7wwkYAKE-6" edge="1">
          <mxGeometry width="50" height="50" relative="1" as="geometry">
            <mxPoint x="814" y="961" as="sourcePoint" />
            <mxPoint x="864" y="911" as="targetPoint" />
          </mxGeometry>
        </mxCell>
        <mxCell id="9JEJFbvVPndM7wwkYAKE-25" value="" style="endArrow=classic;html=1;rounded=0;entryX=0;entryY=0.5;entryDx=0;entryDy=0;exitX=1;exitY=0.5;exitDx=0;exitDy=0;edgeStyle=orthogonalEdgeStyle;" parent="1" source="77WKknoFe-UdvtvTZswO-19" target="9JEJFbvVPndM7wwkYAKE-4" edge="1">
          <mxGeometry width="50" height="50" relative="1" as="geometry">
            <mxPoint x="363" y="827" as="sourcePoint" />
            <mxPoint x="413" y="777" as="targetPoint" />
          </mxGeometry>
        </mxCell>
        <mxCell id="9JEJFbvVPndM7wwkYAKE-26" value="" style="endArrow=classic;html=1;rounded=0;entryX=0;entryY=0.5;entryDx=0;entryDy=0;exitX=1;exitY=0.5;exitDx=0;exitDy=0;" parent="1" source="9JEJFbvVPndM7wwkYAKE-19" target="9JEJFbvVPndM7wwkYAKE-20" edge="1">
          <mxGeometry width="50" height="50" relative="1" as="geometry">
            <mxPoint x="1068.5" y="568" as="sourcePoint" />
            <mxPoint x="1118.5" y="518" as="targetPoint" />
          </mxGeometry>
        </mxCell>
        <mxCell id="9JEJFbvVPndM7wwkYAKE-27" value="" style="endArrow=classic;html=1;rounded=0;exitX=1;exitY=0.5;exitDx=0;exitDy=0;" parent="1" source="9JEJFbvVPndM7wwkYAKE-20" target="9JEJFbvVPndM7wwkYAKE-22" edge="1">
          <mxGeometry width="50" height="50" relative="1" as="geometry">
            <mxPoint x="1552.5" y="491" as="sourcePoint" />
            <mxPoint x="1602.5" y="441" as="targetPoint" />
          </mxGeometry>
        </mxCell>
        <mxCell id="9JEJFbvVPndM7wwkYAKE-29" value="Alert Email" style="sketch=0;outlineConnect=0;fontColor=#232F3E;gradientColor=none;fillColor=#DD344C;strokeColor=none;dashed=0;verticalLabelPosition=bottom;verticalAlign=top;align=center;html=1;fontSize=12;fontStyle=1;aspect=fixed;shape=mxgraph.aws4.email;" parent="1" vertex="1">
          <mxGeometry x="1604.5" y="624" width="78" height="69" as="geometry" />
        </mxCell>
        <mxCell id="9JEJFbvVPndM7wwkYAKE-30" value="" style="endArrow=classic;html=1;rounded=0;exitX=1;exitY=0.5;exitDx=0;exitDy=0;" parent="1" source="9JEJFbvVPndM7wwkYAKE-13" target="9JEJFbvVPndM7wwkYAKE-29" edge="1">
          <mxGeometry width="50" height="50" relative="1" as="geometry">
            <mxPoint x="1109.5" y="1183" as="sourcePoint" />
            <mxPoint x="1538.5" y="649" as="targetPoint" />
          </mxGeometry>
        </mxCell>
        <mxCell id="9JEJFbvVPndM7wwkYAKE-31" value="Solace&#xa;PubSub+ Cloud" style="shape=image;verticalLabelPosition=bottom;verticalAlign=top;imageAspect=0;aspect=fixed;image=data:image/svg+xml,PHN2ZyB4bWxucz0iaHR0cDovL3d3dy53My5vcmcvMjAwMC9zdmciIHZpZXdCb3g9IjAgMCA3MiA3MiI+PGRlZnM+PHN0eWxlPi5jbHMtMXtmaWxsOiM0NmM3OTU7fS5jbHMtMntmaWxsOiNmZmY7fTwvc3R5bGU+PC9kZWZzPjxnIGRhdGEtbmFtZT0iTGF5ZXIgMiIgaWQ9IkxheWVyXzIiPjxnIGRhdGEtbmFtZT0iTGF5ZXIgNSIgaWQ9IkxheWVyXzUiPjxnIGlkPSJDaXJjbGVzIj48ZyBkYXRhLW5hbWU9IlB1YlN1YisgQ2xvdWQiIGlkPSJQdWJTdWJfQ2xvdWQiPjxwYXRoIGQ9Ik03MiwzNkEzNiwzNiwwLDEsMSwzNiwwLDM2LDM2LDAsMCwxLDcyLDM2WiIgY2xhc3M9ImNscy0xIi8+PC9nPjwvZz48ZyBpZD0iSWNvbnMiPjxnIGRhdGEtbmFtZT0iUHViU3ViKyBDbG91ZCIgaWQ9IlB1YlN1Yl9DbG91ZC0yIj48cGF0aCBkPSJNMjAuMjcsNDcuOTR2OC42OUgyOWExLDEsMCwwLDAsMS0xVjQ2Ljk0SDIxLjI3QTEsMSwwLDAsMCwyMC4yNyw0Ny45NFoiIGNsYXNzPSJjbHMtMiIvPjxwYXRoIGQ9Ik01NC42NywyOC4yOEExNCwxNCwwLDAsMCw0MC44NiwxNS4zN2ExMy42OCwxMy42OCwwLDAsMC0xMS41OSw2LjM1LDkuNTksOS41OSwwLDAsMC03Ljc5Ljg2LDEwLDEwLDAsMCwwLTQuNiw3LjcxQTEwLjk0LDEwLjk0LDAsMCwwLDkuNDUsNDAuN2ExMC42NiwxMC42NiwwLDAsMCw3Ljc5LDEwLjEzbC41Ni4xOFY0Ny41NmwtLjI4LS4xMWE3LjEzLDcuMTMsMCwwLDEtNC43OC02Ljc5LDcuNTcsNy41NywwLDAsMSw1LjkyLTcuNDlBMS42NCwxLjY0LDAsMCwwLDIwLDMxLjU1YTYuODYsNi44NiwwLDAsMSwzLjE1LTYuMiw2LjIzLDYuMjMsMCwwLDEsNi0uMjMsMS42NSwxLjY1LDAsMCwwLDIuMjEtLjc1QTEwLjU4LDEwLjU4LDAsMCwxLDQ4LjMsMjEuNzJhMTAuODcsMTAuODcsMCwwLDEsMy4xOCw3LjdBMS42NCwxLjY0LDAsMCwwLDUyLjcxLDMxYTguODEsOC44MSwwLDAsMSw1LjgyLDQuOTFBOS4yOCw5LjI4LDAsMCwxLDU4LDQ0LjE3YTguNDgsOC40OCwwLDAsMS02LjcyLDRINDIuN2ExLjY2LDEuNjYsMCwwLDAsMCwzLjMyaDguNmExMSwxMSwwLDAsMCw5Ljc5LTZBMTIuNTEsMTIuNTEsMCwwLDAsNjEuNjYsMzUsMTIsMTIsMCwwLDAsNTQuNjcsMjguMjhaIiBjbGFzcz0iY2xzLTIiLz48cGF0aCBkPSJNMzcuNzQsMzguMzZIMjUuNDZ2My43M2g5LjM4djkuMzdoMy43MlYzOS4xOUEuODMuODMsMCwwLDAsMzcuNzQsMzguMzZaIiBjbGFzcz0iY2xzLTIiLz48cGF0aCBkPSJNNDcuMjYsNDNWMzAuNjlhLjgyLjgyLDAsMCwwLS44Mi0uODJIMzQuMTZ2My43Mmg5LjM3VjQzWiIgY2xhc3M9ImNscy0yIi8+PC9nPjwvZz48L2c+PC9nPjwvc3ZnPg==;fontStyle=1;fontSize=14;" parent="1" vertex="1">
          <mxGeometry x="712.37" y="220" width="55.25" height="55.25" as="geometry" />
        </mxCell>
        <mxCell id="9JEJFbvVPndM7wwkYAKE-32" value="" style="shape=image;verticalLabelPosition=bottom;labelBackgroundColor=default;verticalAlign=top;aspect=fixed;imageAspect=0;image=data:image/png,iVBORw0KGgoAAAANSUhEUgAAASwAAACoCAMAAABt9SM9AAAA/FBMVEX///89oe////z///v//v89oPEtnO8/oO/8/////v3///k9oe5Dounr9fn6//86oPPk9PdBm+HX7/iTyO9/u+FCn+m+4O2+3PVMo+WQw+X///YzmejC4PL2//00m+bo+PjZ8PNRp+S21vGo1Os0mfC11+f4//jK5u3K5fM3pO/y/v6JveCcyOU+n+NSpep8td5SmtHq9fHS5fNVndoulNnB4OeNx+NytONjqt6fz+9+utOXw++rz+g/od1pr+BSodRfrdaHu+h3t+03mfugyu5su/CszuyWyuBltuK54fRSnOSz0eVwqtaLu+hqrOiUze7O7+7G2t6t2ODK3d8c6nV4AAAV30lEQVR4nO1di0LbSLJttdTqh4TacizHlizJjoX8wIYhJLFzB5hlNpMMm1yyu/f//+VWyQ8EAZKQALbjk5kEWZYtHaqqT1W/CNliiy222GKLLbbYYostttji8ZDn6U6appUdQGUnfurbWW3EB42g0Wi4gEbjt+pT385qI3aZnoMbUf2pb2e1Ee8H2ikA/27Juhtxw+DGDIwnW7LuxJas78CWrO9AiSzOtmTdjTJZekvW3diS9R2IG86WrG9F3MiYZgz+1zzLtmTdieFBY4nOSe+pb2e1obydIokuEulUPvXtrDby8oH8pasOwjQPX1xityJV2t39uDj+mJr5y27pfP71j9xcxMr7PYpsG/8D2DVP1aIss218Cf68ofFRli3O2q9eP/UNPyUsqd4wgzEOcBwnqylSczS2fsVL9hs6BJ01Pxsw+5duDZVHmzaQhZkfyAMOZJ1phgUZFFbafkPy/UADV0gfC+4q0QiyQzY7/lNFmtwxFmA1KmtML1+wmzJ2XbYQpbcm0pY0qaic7FWUKR73AR4T1LxCFj+7H1lCSJJPuN2oe+pxH+AxcZ2se1qWkNLbTdyAZW+gvbSsx32Ix4L8umXtD/hXybJMknYwIXKiWiwFfdyHeCzIG2KWcZWsUtXh1g4Lochugm9znGgvtzY0bl0ji9+XLDOeFu+CK+234aaSBW7IrlkWX5LFv5Us6lWjGVfM0FFvU9wQlJBFSxD0DUpzNoO9R8n/GPYCPEMFX/w4O5+8JpeXQiBfRHIRNmdeaHDGB3/EG2Ja137pylPVZ5doVil5+fu75WGzbeWtd8vjZ7/vyMsPKAibQdCpM28zudbR8YaEeEqEJ+eAh1VCqtLzK0VJfnlMVShiKksX52BPZH45KSmEis8Wzgri/yRV3iaIeQmayLuEMAkpHXqECghAy7MxtADKXB7H1KJCXHn/HK+TReRzDM2jXeptgm1RmR75lziIacsfLw/Hb0PS9cfLF45eyHzyr/H8lfHJUZvkp8s3+/4faSjRhOTbaKFcC8JOVa7AbtF6Q3N9NapHepG+RCMlTc0uj2tC1CCYL4/3RNwoihDFkRPVReovzkGiHVVNUfjbiJfaVMPwKzGGf3Bqosz1TReV7EWlp2qkZpMZy3jDDkyQDkut4OimyvddrDrgERskdZr6S1ocFvXMWZBvlmQ/6rNeGObxMI4hKiq5tpZFSd/mS7AOWJbNNZsf2zVCag5bHBpGk8Tc1fPqljGI6hIsa34WTCuqKlnYzWe7TFagD55Nph3A9OxzqwLGZ61lvBekX7Is3khlWcHbNyTSpbEORkHWIjqxAQc3LGIW+ZBpowy+4JtF0cmklVPp0fXzRrSs+5LFZ2QtaGEDtiRrN7rihqVv0Fxn0WmVqi1ZC7Lar24hC4QEd41sXFeoUtYM9E43vKlS+gVZSzd0jAVZ1mGjLB1KcAKsSDvRLmRZT/3s3w0q7yLr61WHElnccJaWlR/cZlmFCWq/ItYwxn9B1neWaG4mi9JWdjtZ2rWbYv0i1twNL7UDkmU7xuIV+2BG1kI6zMiat2xFa0iW0mFBFnqXIPFU304Wb1TWyqwkakNMf1X7yL3E6VB2S4fuyJSjYHnUCD7SfLI8DLhfNYf/uDw/PtkRmI9bxArryY2m5YCIYHY3fOrn/y5IRU0T61dhnu5cwqOxKh3uUOWFO6WRIIqGcel0JRTysPx+Dz4UgpEiw3P3RrI4Ou2eir2v3+LqwLJMhW03xbJCqYAH7JjlWiBoR6rk4qyknoAEb3FIlIXZ8fzQpJLgX9RLe81G4txMlsPtSSzNtWoKqVlpPW+1Ws8LzP/BH5avLV6H48Ur8x/xTcXhef15/fzyYry29eJdbRpkyUAbt1hWdKDoWnUmmirei+zM/kHgWJFrL9g24/wmlhwN7QTT2u+uWWnLovEbmwU4hmGWH9+F0jvmA0KWz+9ccbVrh9cA+iPLnPGkqtRaxSsIPZUTHhi3iOxrYF+l86uY9SByO5i8VOqLuv+Kg9J2wkAWfRMNWI8pP/hVQ7v5zBWmBjqJoqhxcba7I0xp0fXiCpq8anTDYz0IIG/+s/eyWkmHT/3U9wRV7eTRyHKznlImNdexJoN4TLIC3RmCrJeeR9avJoMAkTV+LLKcbJcKy7LkWmWDJVC50/jRFu6bAF+iG6lYV54KULLTeSSynGik1nv0HyXe9FHIAtnrV+L17ShE0JhOmP5GUfpDZLl2k6y3FxKS0xpjj0AW6N72WpsVwFJ0FD0GWUFUU2RtO6BnEEq2QMLfXvj9WXCiw3jdyaIWaUeXQxgeBvDpPGmuWdZ8A4CstMGdh7UshzMWpN6a29WsRjJxBg/shownx+H6kwVtuXzG3QcmSwcdrOI/9cP+BMi+PX5YsngQ9Z/6KX8SaBrwwYOS5di/r3WaU4IFGv5BuTKMo+Hat4RzWKob3dG98IMIBplr99TGTDdX7QcsaWk+iEbh+g4evQ6THjxcgIeGdpKb3nqWRr+EFObuw3VacLeTmus4avRmSE8Nj+7uFr0nHKYNx6+GZHOmk0tBaTNhDxDjuR44WT30NsWsABLYSl/ph0mmoxfEoxsT3QEqFKpp/3DP/HU4BudRN/Tkps31pZUT9pOVKQ8YS7pkw4hCUHpsf/35vwta63G3PGNxYyDE8Gd38gTaP1d0I2ZiXgc1e0kw+Fl8sYEO9G99JVS4ScF9AdP0RpHzs8KWk7nZtK020AULSGXGf//zZ1Vq9MDe88xNSXFuAPV2flrYcht1LFhvqmURfLRKR7vOj1iXg7M3HSepVUxr/Qb2fRe8sNKI3B+JW5w7nNv7LcuiG1PAuhmmR+XhNHN/hCytbbebC+VtTE3mFnimEDLe+xFxyiN/lBYrs2xMTeYumF6rYQcBetR3cFQMTx7o6ORNZZPj1HWYpjl85tuafU/DyLTmLEs63WGoNjEZvA3UpJZKR0fZzfNtbjOtxN7//aUKJca9p36ER4OFObVHybA+cSPGBiUdsSSP42wT/BsnGzgY0/3OWcszFU5Jpb+SZc0ACsnbeT7pZLg61my6RLH+Ffom/DNb6pVxpu0oahy8r8a/jjndBMvyVJi3d2sXbhJFCWeoN2frznAUntyOkqhx+uxF9VDRtR2r/VNgSSo9UxKPSHpY6b94h0uiNNxxAvDdRudi0jzefXk4lBLcTvziZEmQSVIKJWmxDhY1iUfna2fFnvC8+ZRK+MlSYFhrOX9+iy222GKLLbbY4mEh8h/LfCUFmbVmyzPcG8qSP7JyjqSWBQLe/DUk/I8uuAdkqbWfwPQtsIgaNv98N6T3XxwaksPhaPI53Xw/pF7+yXayWhjfe5Q6jVUtyaIDj2zauKLroKLqGwEbV+S9XdGiaeQwzqsbT5alqicBc4MKvfd0XEumY5fxpL3xYctT1YRrJ6iY9yaLispYG9pv/8z7Wk3Qts+YAZb1A9W7is8C7Vc3ZzzybdiS9R0oyHK2ZH0LKGknBmNbsr4FEshytmR9G7ZkfQfk1g1vAXbwSWHSuHp+fPx2t1/BFVvbfoksKiAnjtNe993b7nk1ViGVqlS/yS3pSTKsnr+F89VUUCGURb8giypBafr+fWpKC75SeVKacbt1jJ+ZwufR2bZ9iqq4/66Vy9iicdrvvn/bfV4dUqpWhHTT9OjhqPMqSbhtR8Gf9fwqWYTSvH4wTqIsS8bjzuhqFmR68Jzt5n6WuEliRONaP6Q3kWVRLzx2s2xcoZBme5TS6jP4To5LlzbO+rj5Eb5NyngUZdEzpbwWfGeS2Sx5ddJMyUqMrRTUFPkzB9fhdjhnmhlZp39olGKWVP1ppHmAg63gvO0/G5Z6TwUJK2dR5jgM94/RPLMvii09rpKFKx9UTm3uDKKuiXMyw7RpJ3hNgEMkHH9SFYVlSbJz5AycV4f90yzDEQE4MoBlf6QrsRWPJczqRcJZQQXjA0cbLPnLnVsWtYSMmz4OZMANT4xi5eOkU1nkQTiYr3eSwEmHA7+Og6SOu2bZsiQ4naDDY3jBAeN8o5QyzX7HdzR+Hl41YDhFxVTwqZAnBTzTTs12WWBoB8ftAqPRe/X0CbllWbR6hGvCwPPy4tdoBLNxQwVZROEASRCoBi8WI2WzLWSOehS77wVYmKpjHgk2wgLX4ZrjYCP/Y5ksLwSuqtMEPlb7POqFnpD9MTeCgHMncBzDcXHYm//Bo7hgdSUoxsEZOMtnDL9Axx24BtjjU1OFoJWjYpuAIPE7f/3dyaJAz7YXQrKIGas9W8Ov2Eiixt9/dV5FxaiZ7KSKNy/Bh/sJmB1uZ+JP/7wYR0i5dqdCVny9tCwSj/yC5UHUeCmVp/pgq07AdJTsn3bGCf6GuI7ehZ5akIVcGU7W+Huyn2UsO0pXYnJi3EFyHL9zHoN/0PRzhOFrQZYi3QjMSvvB5wqF8/H5tFAVWQcXYLWssD3WruFo/6AXo1m0947AoJzTS8sSRJj9P+wMJ/Jzf6TAnWh6lAXo7afncQiRvFrzNXeZTs7RtJZkJcG7FL5S5b1ms/L0AwcFtINNMAYdJMfQaHvw9JJUJnbg4P5W6IZWGkEQ4/bpoQJJIDxowo+DgR5wu+kpCyxhkkC0024LzcwDCUH7UztLWgVZnAFZiuZnSRHy3GhaBRlCrfjMxnbkpE6o9KBdVObL6T8DPRj8Cxu9gqyxHkQHlRDvSFhEUtN6esEGysfHAJX0F8tkU8+Ma8AVL6oORJ0lfMD4JA6X3VriNQYw56gNooH00e/0SXUZfqWZfvzQB1UEbohkKa9+YuM4eGecvc1n39mD9gQauP5CDQDF6SeG06A+LGOWY+95wlwF11sAmrIROJ2TvA2X2hGaruEFrstuYPEvjYCqoDM0xXJxTEW7NgQZeyRjEU7A7Nir3uVGjhaFsIML2VZ8CM5JtfK/EYNPc3QyaYfFJmHUrOH2IElv2R8iQRSnDYhqrDGck8X5RS7zeJXIklR1cAzoNF/ajQeyi/ZcVpClxIuxDnjSN1FyLy7y1CluO7ufWiT12YDZTdCbi48EzxXo3UAWxL3gcwfiegbtYGM3n88gt9JC8dbgXcuLqGXWUb5E9TlZTgS/AMtaqWXhzfY4A4vfLZePwSm8CbiQE4BU/xtsQH+Kc3KZJYo4rEdcs6QtzPNEu/xVuzTPC9Vn8QfIwmbCQVnCg0mFmvPPCPsRKIVxu3QbuHlpPgXxaTRBuxYXXtBV285JyLoP2tuFSF6WfAIcrbAsQjrgZcmIlLvEoOUfvoKgk9SF/GDogTG9ce5S8cyLQd/Bv81l/IEPR5vrlLC/v9/oOA7ortM5WQnoqhUji5BukgVsml/diUSoHjin4VbkEAIPRP8r9w3NojmFqGN3CWnaoEef3di7eIUszQ/J0lObQFZQ2npT61mmZIAG2Re0uDDqrdwkHypHCUjHKe5CW3pZiSruMuBWVJ4AWVFVlOnwoKk7gEiWjaSs2WzA7yILYhvmQXzQ2JHzxp++KfJQxw0CdwBwXVzChYMcMUDCeLOYFbXJqs21A7LgYdhU5Fe2MJO0j52sQdvKI0g8kv6VSc0CyPoH5L/2iJh/upmbNW8hC8IeCM1RfYxbNOlpTmauqJqZi5GQFdlmGUaQTSVYFigXCGmr5oWCQIRmvLMTkqt01COwiUZqeT6YRvTiys70FGTkiQ6c6CMhIyNz9OTGtA0sC/KVaT8k9Qx1mz2JZ322cgRuCO1D9AWyxO9hnrSaZJEioQXJI68GCLGHbdhpbpEpuBCrXdE7oBPaSQZxv4e7X4JBjG/ceqKCVYWgB40a7UYDzYOoaRaVHfN5wpzMP299gf7zFHy1Ml5VstITDL9NKpbrLOC2Z5Ujzo2oCfnYZxTr41RSOeNTQopEzTfoQX6q5L9xFYNoF2cPLD4RzNVEVoAsrv2XYSyo+owb3gbJSIGIM832K2gN/V0ykxLFtueYeZlFOVRia8hXkSzIWycZhI9xNYytWXUNJKmgzQTSE7tOLFKNcIfeJmaFxZOBIvJM7FXkeuKZcjjVIM5/i9VwwZZHFOR7IiSLqgN+Tb4HGaR2/Y8mFqTjC/BxpzG8HBzgWdKcf/9clMKFK1GTKUEK1YdshOlOig27NXtJ1e1Ac94pmqMOhHJtn1NVaHwpLSscTjNX6+gc0mjZzYAs+yDMF0FeUpHHphrKy3oWFSqugYrXuK4KZN+yC6qU2bV8seCfoKFM/1sN8RtWlywQmPI0wB0cpykh8wEv9ByyNNfIdot7r2N9iyXnMzLQcdKprQ2dTIcQr1X6B0RxePDh0kji47F/ANyVyKKeHJ5qF5oSvweOSNIORLogOksXt2HG3VdRNiq+fXXJguet+lgWdca7Q4qdPLS9l2Sugfki3q0V/hVgvTnZa4fEBDmaP+9kuEcHKFUBHmWeg0IIHHva8ood+bz2qQ1RbIS5IXdZQZagliXTaTbIuOu3CaSOz8dYXben/VgV4zHbtWTgZL9VIA1HspwiZplF/FuB0kwJdNcOcOK33Wm+aLXeTiC8OpCNnFSKzNkL04bG2m4ynnTrrd1mI2O4O7n9Fk1NWmH+DOccMp5Mm9CevT0dY9lVH5hIVmAsOiyoUtUGcyGKdSpYGGsmRTU2mb5r9Vvvz3wsY4zhzXOymAGkmjhfTz590a8MGX+wURFyrXHWIK5d6Ops3JttWCI9eEossUBGkkVJhBNYmeb2m6IeYOKkuQlEvQACW5bZcDnEcSD+Db1GlrSg5dQu5FanQ+WZ8Z8RrrvItR3BdxpYVA6y0+E1sojneau1JaT06DFuYek6xVzUwQCUddZoA1cY4KmySKWTgLp2nKKDBzdwdKIPqljMQkA4EuFZoot18IveMJ45PDo9tAo3XJIlPSFpHaLYQEdd5Qma11D2gvoasNmsap5NcTWDBVnjKvb+/uf1f4YrZVnYYmPtAZwLHBCXbWDRwc6VVDGtRWhQ3EEHBRPw66Wz1FLdhM+6yrDzR/OkOSSmPLR5wMBAlmNKrbAbuQ5jTZpDcPSOT2w9wJUf4CL4RUS1uPhO6uFOUiz6t5XLSv3D691wlWpaFqY38Yd/JXzgYgeMnUz79MpmjCI0+xeJMcB+RcNOgtGV37b0wjBtjnHJh8ANWJJM2ir0TOF9MvQ/Pw0vx5R6Xogl1qiP+6dhx2JzbGBPI8DOPlXlbOsdKuJPmZEcxVbuteu7/329WvMO4Gk8oKv+7gLLSpPjKijpKyMLKDxmWH1/Bqf3L5qvc8vKS+kPSFBoCHdazdOGuz8961aUKawY+4kmjUl5L2grF3R32tkFhxTFhrbk8PzsohEE+xfvD6GNJHQ2sIJW9jr/aMMdWOT/0A1XiixwRGVJQSHUx9j+h551dTi2aULIwW6yOI6hLZcyvpJ1m/DwuNsegcuBBUhoBFhFaIVkCBL08o2eBWmAF2PXPsYj5AtMLD5MvRAiH53XH034AhKDthcWBHch7j9geosttthiiy222GKLLbbY4hfB/wMMmfMleRQGmAAAAABJRU5ErkJggg==;" parent="1" vertex="1">
          <mxGeometry x="327.97" y="589" width="111.5" height="62.44" as="geometry" />
        </mxCell>
        <mxCell id="9JEJFbvVPndM7wwkYAKE-39" value="" style="rounded=1;whiteSpace=wrap;html=1;fontColor=#00C895;strokeColor=#00C895;strokeWidth=2;" parent="1" vertex="1">
          <mxGeometry x="486" y="442.5" width="132" height="104.5" as="geometry" />
        </mxCell>
        <mxCell id="9JEJFbvVPndM7wwkYAKE-40" value="Solace OPCUA&#xa; Micro-integration" style="shape=image;verticalLabelPosition=bottom;verticalAlign=top;imageAspect=0;aspect=fixed;image=data:image/png,iVBORw0KGgoAAAANSUhEUgAAAZEAAAGRCAMAAACT/35lAAAAM1BMVEVHcEwAyJUAyJUAyJUAyJUAyJUAyJUAyJUAyJUAyJUAyJUAyJUAyJUAyJUAyJUAyJUAyJXew374AAAAEHRSTlMAgDBQ0OBw8BAgkLBAwGCg7vN8PgAAAAlwSFlzAAAWJQAAFiUBSVIk8AAACWJJREFUeJzt3e1aszoQheHSalu/Of+j3dcrurV2AhmSmUnguf9bgTCQrAQ4AAAAAAAAAAAAAAAAAAAAAAAAAAAAAAAAAAAAAAAAAAAAAAAAAAAAAAAAAAAAAAAAAAAAAAAAAAAAAABQ6vU8DMPpiePYhqePyzh5eN/7sWjC+/jL4+veD0e8mwYZx/G89wMS7Wn8iyaJ9XHXIiMXrlCX+xZ52/HhiHe6b5BxPO79qER6llqEO0mgR6lFnnd7OOIdpQbhRhLoLLbIy26PR7wHsUWGvR+WOPfDQ/pasf4mKJPLng9JsBexRT52fUxCXeWL1mnHhySYOGAfx10fk1hCykjfN5SQMo7jyDximFf5onXd6eFogJgyjg97PyyBxJSR4DeOnDKOLBEKI6eMjzs9Gi2QU0bmRsKQMraGlLE1pIyNIWVsDSlja0gZW0PK2BhSxtaQMhY6vg/Dueaa9XUp4/V1GAaWzh8OT2/TAbs814oBEwP2+Z8/fW0Gz2Gdf+7Cl0qL21akjN+nxT8fu77fHN9ujtpDlYOhTxnfbzpnlx2PJIe7E7lCFpgYsM/88l0K9rLTMjkKJ/Ol/FioU0bhD/ZZJncF8qn8wqVNGeXRy8vuphulAvlUPKsk/2zypL/KA/zxsq85+as8iPtUeHJqU8b0lrztqExe5THcpHAWQ5kyJvoBn3ZTJnMFUj7Tp0wZ5cHLt32UyWyBjKUvAUgsC0r2F+R+wI/tP5J1la8q1Q6CNmVcOj3Gh40vlzglejbVWkSbMi5vzqbL5Lp0jSg+AuqUMWeDtlsmOQVS2CLqlDFri8bnTcYqT1kFUtgi6pQx7yTZZEh/ztz3okU8+pQx9zTZXJk8vWXs9KRkPKJfyyj/hWRbZZJfIGUXrRVrGRe7v79+ZzNloiiQwgUK8k/OXgYTOZhoKyG9HLunGqTkPFy1ljH/urWRuaxk7G6wx+vWMqqapP8yURXIY+HurlzLqLqqdj6XpSuQ0g6mNmX8oel59BzSL8Tuf5T3LgvWMurKpNeQfjF2v1FhBCYXZOYZvf0y8S6QlWsZf/159vB97LJMdAUy1OhUFj8xnZmETmqtwHSiK5BKabd8K9CsbcmbLai82S5UJ1utGSF9yigI2XJzQWdanSemM2adLTbeVNTVuNYT0wF3QFO6AqnZY5FPhBUpgH8v0VJcr77mE9PuIykzkSPfqk9Mb6VMQoe98mm9+olp30TOhjJBrbwP61PGFFVq3WJIP6gKpPoOGDwx7TmzU1/41heljCkdl0n4phemjMmfDb0Sr9fAXdDsvYw9hvRX3cStTU+xPGVM6W8uq4nRVJWUMaWvMmlkKGX7Xsae5rJaiRus38vYy1xWyLyUqFrKmNLHXFY7szse72Vsfy6rpbPG5b2Mrc9lNXXKVE4ZU1qey4qbl5LUTxkT2g3pG+uhJ955Y/Gv2pzLam4Ua5IyJrRYJu+tDWGNUsYUZYpntBW/qM4Rl5X97l9/8XtEKYemC+g0YyD3MixPTlWZGDeJ5nkkp+kC05QxRVMmpu+rf8q/h7hNqcV8/UXTvbE8EvnXLL8njeVtsv/6S/4QwPCWNvfCttttcBwcmaeMKfllYrcxuXcRz+VLkV9/yS0Tu4LN6/n6LvGTt8np6y+Zc1l2l62sMnVe3+eUMqbkJa5m/z6jRbxTaLeUMSUrdDU7KMv/2v0Dd44pY0rG3dXsOp4RfHo/4eKZMspyrltmLZJzH/G9rzunjMIGZN3bzf593gDR89Ye/Y3pvP6vXYCQOR5xLBP/lPG33DGiXV88cY0QDolTmYSkjP/LzlEM++LZuZZTzhj5jen8EKXCZ27SW5Gf/bpk8VEpoy6PN12JM/8pghseZRKWMmrmrIwHR5o5RPMyCUsZNRNWbU3rGo/UglLGliZ1D9q1KLZrg0JSRt36IJdep2q9lmWZhKSMqjV0biMz1ZpGuzKRuxmmN9IGC2SiKxOr3p9/ythmgUxUa+NtJk3cU0bd8wrub+bQLY+3KBN5wG6XMjZwEja+hb4pY/wZ2PxG+qaM7RfIJPJOJw/YbVJG3fPToS/UDOwNOqaMjfT2M4WViVvK2MyIOFdQmcifVTdIGfsqkMmrJnkr/cbIN6eUsbsC+aJ66qhOSO+TMup2rKW3+6sC6hpzWS4po/teVeVcJh4pY0DlV3VUXXFLLy/2KWPfBTJx7JWYp4y6N+s1++1Kv46JdcrYcuyu41Umtiljs/NSa/iUiW3KuJ0CmXikpJYp46YKZOIQ0humjLoTqpcvhJuXiVnK2MW81BrGO2aWMvYyL7XGSXN31Ba/Ucq42QKZWN4gbVJGXc+9rwKZmHUiEwP2sl5Pr7G7ilWZWKSMPc5LrWFTJvVTxl0UyBeDRDsxYC84b1VffOq4QCb1Q+3aKeMWYned2mVSOWXUvOiwxXmpNXTPJC3+A/nv1vZGE6NN0SYKZKLpySyNvCqnjIq+x0YKZKLozCwd27opY/41q4PYXSe/TBb2vG7KmB2cdBG762SXyfxlK7EsaO1WZV60Nlcgk8ynfOdbpHLKmNcgGyyQSV64Ot8ilVPGnA3qZl5qjZwJiNkWqZ0yZjRId7G7TkaZzB6B2inj4tZ0Ni+1xuJc1my3qXbKuNTd2HiBTJZC+rkkr3rKOB/xdDkvtcZsSP8294PV1zLOvVav89hdZa5MZjs29dcypi9b3cfuOskymS2RyinjYaZI9lQgX+Qr+GX2xLRYyyj33nZWIBMppL/Mn+4maxmFHy1+vKVXd2Wy0CBGaxnvmmRTsbvOnzJZGo1VThn/d3vh2tC81Bq/Fx0s5nlmT0z/PjN2XCCT75D+8rF8L5UH7FWu+e9fv13rcfuuHc/DcM6JV03WMv78+mkYhi2nvAYC3suIWfLwen8juWbUX8uIMt7vZcSS2K+/4J48YN/LDEaDPN/LiByBX3+BSJ5QYYgdxiplxFqh35iGwDBlxBq2KSP0SBlbQ8rYGFLG1pAytoaUsTWkjI0hZWwNKWNrSBkbkxiw7/2wBJLfXULKGEduEVLGOHKLkDIGkhqElDGSNDlCyhhJirVIGUPdF8n8E6SwdvwbbC09HwfvJqHrG+7mkcWNvoCsN8N3uvVwZijSiH/Pxw2vdLIAAAAAAAAAAAAAAAAAAAAAAAAAAAAAAAAAAAAAAAAAAAAAAAAAAAAAAAAAAAAAAAAAAAAAAAAAAAAAAOsdDof/ABl8go2+NUsdAAAAAElFTkSuQmCC;fontStyle=1" parent="1" vertex="1">
          <mxGeometry x="529" y="449.5" width="44" height="44" as="geometry" />
        </mxCell>
        <mxCell id="9JEJFbvVPndM7wwkYAKE-41" value="" style="endArrow=classic;html=1;rounded=0;exitX=1;exitY=0.5;exitDx=0;exitDy=0;entryX=0;entryY=0.5;entryDx=0;entryDy=0;" parent="1" source="9JEJFbvVPndM7wwkYAKE-39" target="77WKknoFe-UdvtvTZswO-19" edge="1">
          <mxGeometry width="50" height="50" relative="1" as="geometry">
            <mxPoint x="561" y="1040" as="sourcePoint" />
            <mxPoint x="611" y="990" as="targetPoint" />
          </mxGeometry>
        </mxCell>
        <mxCell id="9JEJFbvVPndM7wwkYAKE-44" value="Generator&#xa;(Molding Press / &#xa;Drilling Machine)" style="shape=image;verticalLabelPosition=bottom;labelBackgroundColor=default;verticalAlign=top;aspect=fixed;imageAspect=0;image=data:image/png,iVBORw0KGgoAAAANSUhEUgAAAS0AAACnCAMAAABzYfrWAAABRFBMVEX///8AAADo6Oiqqqrl5eVOT0+ysrKcnJytra2Hh4e6urqYmJh6e3xaWloODg729vbNzc11dXX5+fkATYpfX1/Cw8MyMzPu7u7d3d0APnChoaEAABjV1dUARHoAOmkAAA2QkJABK0weHh4ASZEmJyg7OztGRkZFeKwAMFYBJ0UARJBnZ2eDg4MAS4cAACYATZUAMWlaX2UAACAAMV4AFitKSksAABIAHjxvkroOXZ7l7fQAI1UYGBgANV+ss7sRGiQAHFSrvM8AP3t9j6IAMHSLp8YAFUUADy3J09+Voa4zQFAAHkgjW5MmLDFZc5NOfq8RJjwAPIwAADIsTnIAETekutRMYnrJ0twADyUXQ2waN1QgLjs0YpJtamVJaYzD0uFsgp2FpMUAKnZjcoNeh7SBi5cAFVKcqLZHU1+FmK9ebX04UnEFDEdtAAAMOklEQVR4nO2b+1sTORfHMzO90Qsz7bSdobTQ0ou0pbZcFAWKUl9dFQQvKML6ouy6urr//+9vMpd2JslcCt1HfZ/z8VHoJM0k3yQnJycRIQAAAAAAAAAAAAAAAAAAAAAAAAAAAAAAAAAAAAAAAAAAAAAAAAAAAAAAAAAAAAAAAOAnR/7RFfh1qCLt7v6PrsSvg/hg++HBj67Er0Kyens4uv+ja/GroKFH/zkCyxUORUHo8c6PrsUvgSaXbz85M3+fwxbsx9bmJ0aMRCJisvTb6tLoqfm7WN54pkW4iLoi8lPMZDdB6TYB018rS6V4PF5KKJGcZx66zEn7KDTX99gqmZp4vScfxWSeHy71+kfk12i3sVgbHGaiLsjHZibTFJZfUCmTLPmW4CaTp/IKHjRacwUPIcpzRWfOVrXMzbZGFzlOoROyzq8V2LrEyHq3VvWSy6hT+XhUP7Fe/LK2VOl8dKXr2KhFhDJqvm+fe9m2crZIvbgVp6a0l1pmM3SmyFypwcnI5sPmw1OteSoh7fxaly29hZAUz0q8l9hoOXRyy/792cNK/5bd1Wljmsj4X3lNf/G+jSesLZfkLCHBaxd+d8GRR/ZVSxC61JQs8bMpM1OLWyERSdVSyXMumuQmU+HxK0M5vYrQ+us3kya82MBiVXp1c+qvLz8ap8RWPCVoThoXpJYgOLXV6aHKy3QztZK84ktIjyeS/mK5ODCUkwR5/XQ4OsJjSUmSmZg+JWJ13iKU6aL1jfauJZfoaZAMsnY/BKslxMd1kDzz8FpyPbXyvOKLOMFzNfFDrG1W1L418+S8dvawohKxULzU3agNlwZXJIHbQ05WIqHVEhJezZ8Qm5VaGr98P5Plo1USaZW6LZZOJsDHjiEW3oIvtocLFfUVXgziITQoh1bLqmvaJ0eCU9drqZXgl18NqQ82MeJL4qQaa1lcyKGdI0usyINlkvARi4Xbk+6+21yqqPV7CKXCSGDKlQuTs2l0hl+O0qzU8jAg8z4KOZ3HVER/eTg4E5Uq8Sx1BT8if6SoWH7wvr17hn8XtapQ0DL5yPlI7Z+IYiyMApgyLlEPlTMZNLfjnFZcRy2PichfdC3yDrItobbUe/W8i3E8zkSbwhZeDgcX3XxX2Gg/+T3bzWc/dE7+222GEoAQxQWFytj0boZJakZqea4jac4LOFTRuwH2tZBc0L+7EprE0arUBjuotNGurS6RSZl7jP+h3XdvSBXC5Yxk/NOrM1LLu+7h1MKO1HGH+FrJ3w4vJ48LczoRSxXWUGqxXdvcXRg8NVPCGS0TJZyVF4Q7AekzUkv0fgPPo+NzhX0NZQO77GN3HsVX0M7SSO0coNRdLNanHeyhGjujwOY7u6/JZG8VCoVY2tux9WBuNmr5rOX50GoR9NWFXv3EUithrOk72NFKltdPa6tYLVXtXLF1lJgZlETOcaLQa2LGfEE2SB6DvfHWakZq+Znc6YKiOz17j432hbbhT+y8RUIXfT9cWhj9oXYeE2+DskOyOS+b+W7ebBlxuh1y5Wm7ZamF9gKlyih4JytHUg1Xe2+klu8CzXOAKeQqlnT9T1Ouz2OxXm8PrVACUfx4MPr8tH+F9vEukRPvEObMvHrWnv0OuSIeanEiAS6KkyhNoUHFXK6tltula7qdljvBaunYh+ye7n4a12xPRjFhX9/cPDf30WUyN487V3iY7WM/4ivlcM81heYkRJNMig3NLRcdU7DVCpiKLdeuLYtH+CzUcsdM5iibr3HeQVDGlAvYLg0rnc/Wx5KgSHdP/9rfXBgdkc/Ju9/L+OdR51KXbpPQzarrBSvYgSmUx6Vh9VfMd47lilI1t9Xyd9oalBFJ8Dp+arXK7qdJykrw9guEdDZtkRWya2QX/Yg8WcsL66nmcrv25MtCpaf+sb7WwnPyNU5ae7T2YhEbe/x0KJAgnv2GotDNZyyizpnvFaKw1ArYlTOe9UyigdQXIlQlix5qOWqBK/a0bvoGSH6+fZEVL7YPvx2MemrnHtIX95XdzWMjUbvYPL8cqeqWYUTGcmXc5YlWdE/2ClQZC7XmEfOzaQbW+1pquf2WPaaE4EAEyfERiyXPadrv26s14Uw+3z14OiJilRdPn+1jt9RcKpUvB0jtb1nvtq035dQpghGpkT0dqpVoNMoPuTrwmhM3U0txP8wwI7wa6rUEUShhsZZIaEs+HxhiKYvb7YdkTo6IG6a/3/7w+f53ATv38SL+HDGrxDWNcrB/4Av/1OKmalELS5zZY/sFIihy8sUhEev+DtKOelgspNxuH37dH/TUOnbxI++326tq5W8sFioY67m4JzT426ubiiUEBMivqRb1lNjGFfZROCRZfjMyxMLNvX+PPDrb3T04G6nEaY1sbbcPD1Bl9PfkG0oVsd2Rm4FY/45atKdIZkWXky8MEezLyh/qhlhIt+bX2WBgiUVG1ublN/zpL4RiUZIo7hXT7NhSqjcXK+QOd0q1KGWMFZAO4IRVi8QiUO5kh4Rw9I131sOznto3PPzv26vDhQW8JKp4y5a8Y4hllE9fCIgJU++YWcL18XRq0dt7w5pQHhi/m5JeFPDfVHKrNrgsGB8Ljzo9/COVSF5sEhesX1+2drhErDh276oFdwEBcSoudONC7nA91WKi20Qt2sMzI/3UQ96WAaX8KG3UFir1D/FUKl4sxb+WUqWicHs9cYzNff+WsYmuWqtJk+y7si6Ctn9cdGbuMoNrqtNXJqiEVyZEd6NpG2kneupjsqpuxFLJb6bjE3uuXAx19LneP5LNzqhqDdHeMLpPY5hQYYsdOBSNCGJjgVRAYI0XfWKOPezFgd7JC1U2ID+vyZgcfZciRCDCjYide0OsNeEl6RVJ+I7+2RycoZOj3GSiK+NR5D4YpTsrHaTWXI4bjnUeW+gtriVjNgR2xzGnLJLnyRhNiEAEww4ZkGlhq711+2vibvvwCzZao6dIRuXlrS1n4Sli0scnDOJ8mRnxlANN0UgZqy8v7hS1XVSdjGJeNJAJHu2Z8yjH7BWS3vtWGq9AhB+yboi1OqzsLrZr/3wlFr6zQ8Rqr5py6WRslcxA90q1LMuRJNJaZIV0yTVP29EV+2Cpm03Fxn4Vd1dZzKakatdsOk8tVuOigmdXgS1MDzpSmhBu0+WmK2SJMMP2am+1tvkJXfZInNkQa7jQJipEsmbJkxjReLuScb2cqg0//B04T6q8b4VVAC+x3jcsKIIDESyanlokI2trq99/Y/gO9Sukm2JV1JqtBHLIhQ2NWDR28c5+zHnE5SlyQdaNq1ZYbyU6zaneNW5EyDJ6djg0PKy36HiEf1yhCBarZjy7XyPFSqggO+WKmXbLtfGRGN+Hr1Zg3/NOX1lr7oHErpLesP2SCCDWFBLJ54OKqtYvYzFpQe1/iCWkB8SfJwKqy0YVZKsNE7kMoZ2+fCJBy+ChVkAslXuyH+6OhUAsd5hbLjbMa+JBlEr476e62vlG7spKt+4ZP/7cNcQ6ImUSh0+3fDmdxFAF05eQnQsS9nBpp8hLrYD7Enzjy9w85ZIO7AsX4cJFLFev3roffDL8ebOSirm1JLTw/sqQK4Y018giiVRdvNQKMPS8G0khrzvhoRXu6opF6EAEzUf6wb26cTvV8EwVZM0PIhbKGXJJzpGV4jXIUy2/u26ePnYYy5UIuOzEcF21WO6ZZ/+mXEltLJYtlwNTyvBq+d5287oTGrwvJbEG2l2dH5+8ZDJ5xj0LfyMiEMtUGb1lzPCWXToll9W+KdTyGwKeLQjy0cn76LiMuxLM8RM3EHEzyg1TrtakIU65WrabPo1a3INwE+8YsP/oMlrOLAauNYN18691XzcAMhKUO85ez42XnomZmUotJHsdYfssVH7Lg2kNmPikuzRmKk4diAhDLk6q4bAo1iFi07mAhfROx5T5Drrfsq55SZw2F212Y+8ONjL2MuouX5oNMYlsKMbaWF5qF/uzE+iwClUTDjp7u6sV958cWondSTdLtoPDzFVqL8jOf3f4PDEjuaQYRrJbUkiQj7EEm8VBqAVHL6VbjZX5+ZViNJtK6GHizmJsrWWrvNKaSzoanKSqEKOMoJyg0hPhzpx+LnJTW1tZ0yKiBv+XFwAAAAAAAAAAAAAAAAAAAAAAAAAAAAAAAAAAAAAAAAAAAAAAAAAAAAAAAAAAAAAA4P+U/wEhDi3FlX/kMQAAAABJRU5ErkJggg==;fontStyle=1;imageBorder=default;strokeWidth=3;" parent="1" vertex="1">
          <mxGeometry x="319" y="459.75" width="129.43" height="71.81" as="geometry" />
        </mxCell>
        <mxCell id="9JEJFbvVPndM7wwkYAKE-45" value="" style="endArrow=classic;html=1;rounded=0;exitX=1;exitY=0.5;exitDx=0;exitDy=0;" parent="1" source="9JEJFbvVPndM7wwkYAKE-44" target="9JEJFbvVPndM7wwkYAKE-39" edge="1">
          <mxGeometry width="50" height="50" relative="1" as="geometry">
            <mxPoint x="506" y="1041" as="sourcePoint" />
            <mxPoint x="556" y="991" as="targetPoint" />
          </mxGeometry>
        </mxCell>
        <mxCell id="9JEJFbvVPndM7wwkYAKE-46" value="Microsoft Fabric" style="shape=image;verticalLabelPosition=bottom;labelBackgroundColor=default;verticalAlign=top;aspect=fixed;imageAspect=0;image=data:image/jpeg,/9j/4AAQSkZJRgABAQAAAQABAAD/2wCEAAkGBw0PDQ8NDw8ODw0NDQ8NDQ8ODw8ODg8NFREWFhURFRUYHiogGBolHRUVITEhJSsrLi4uFx8zODMsNzQtLisBCgoKDg0OFQ8QFSsgHR0tLTcrLSsrKy0tLS0tLS0tLS0tKy0tLS0rLS0rLTctLS0rLSstLS0tLS0tLSstLS0tLf/AABEIAOEA4QMBEQACEQEDEQH/xAAcAAEAAwADAQEAAAAAAAAAAAAAAQIDBAUGBwj/xAA8EAACAgADAwgGCQUAAwAAAAAAAQIDBBESBRMxBiFBUXGBobEiMkJhcpEHFENSYpKiwdEjM4Ky4RVTc//EABoBAQEBAQEBAQAAAAAAAAAAAAACAQMEBQb/xAAwEQEBAAIBAgQDBgcBAQAAAAAAAQIRAwQSITFBUQUTYTKBobHB8BQiQnGR0fHhUv/aAAwDAQACEQMRAD8A+4gAAAAAAAAAAAAAAAAAAAAAAKWWwj60ox+JpBOWeOP2rI41m1MPHjZF/DnLyDz5dZwY/wBc+7x/Jx57doXBTl2RS82Z3Ryy+I8U8t1x57f+7V3yl+yRNzcb8S9sPxYT23c+ChHsTb8WReSud6/lvlqMJ7SxEuNku7KPkc7nl7ovU8t88mE7Zy9aUpfFJvzOdyt9Ud2V87tvg8ZOqSabcemLfM1+zGPJca7cXLlx3w8nff8AkqfvHq+bj7vpfxHH7uYdHcAAAAAAAAAAAAABEpJcWl2vIMtk86wnjqVxsj3PPyN045dTxY+eccezbFC4OUuyOXnkNOGXxDhnlu/d/vTjWbej7NbfxSS8sxpwy+KT+nD8f+uNZt632YwXbnJ+Y08+XxTl9JI4s9r4l/aZfDGK/YPPl1/Pl/V+EcezE2y9ayb7ZSyMcMubky88rfvYmISZWxKIq4sRVxJFXEomriSKuJSIq5Hdf+F/Eer+H+r3fwn1dwel7gAAAAAAESkks20kuLfMgy2SbtcSzaVK9rV8Kb8eBXZXmy63hx9d/wBmMtrw6ISfa0v5N7HG/EMfTGqPak3wjFdubHai9dnfLGMZ7QtftJdiQ1HLLq+W+unHsxNj4zl+ZpDThlzcl88r/lx5GuFZsxNUYRVGYmqMxNVMYkAY1KIqolE1cSiKuJIq4kiriSauOZsurXdBdCep93P55G8U3nHp4Me7OPTn0H1QAAAAAAHXbQ2pGv0I5Ss6fux7f4OmHHb414ep63Hi/lx8cvydJdiJ2POcm+rqXYjrqTyfH5OXPku8rsiTUxpEx0jRErirBVGEVRmJqjCKzZiaowlRmIQYJMaGVqSKuJRFXFiauJIq4kiriURVx3PJ+rnnPsgvN/sejpp517ukx88ncnre4AAAAADrNs7Q3UdEH/UkuP3Y9fadePDu8b5Pn9d1Xyp2Y/av4R55Hor4bSJzqo1iRVxpEx0i5i1WE1mzE1RhFUYTVGYis2YmqmJABjUomqiURVxKIq4lEVcSTVxJFXFkRVx6XZNWmiPXL0338PDI9/DjrCPq9Pj28c+rmHV2AAAABW2xRi5PhFOT7EbJu6TnlMcblfKPHX3OycrJcZPPsXQj2yamo/LcnJeTO531IkVkaRIqo1iS6RpEx0izMUowmqMxFZsJqjMRVGE1RmJqpiQxoZWpIq4kmqixFXEkVcSRXSJRNXGlVeqUYrjKSj82TJuyOmOO7I9bFJJJcEsl2H1H2JNJAAAAADrOUF2mjT02SUe5c78vE68M3lv2fP8AiXJ28Pb/APV/9ecieivgxpEiqjSJFXGsSXSNImOkSw2s2YiqMJqjCKzZiaozE1RmIqoYkxoiaqLEVcSiKuJIq4lE1cSRVxZEVcc/YtWq5PognLv4Lz8Dr0+O89+z1dNjvPfs9Ee99EAAAAADznKK7O2MOiEc38Uv+JHp4ZrHb4XxTk3yTH2n5utiXXzo0ic6qNIkukaRMdI1RjpEMxlZsJqjCKozE1RhNUZiKzkYmhgGNSTVRKIq4kirixFXEk1cSRVxJFXHe7BqyhKf3pZLsX/Wz2dLj/Lb7vodLjrG33doel6gAAAAAPG4y7eWzn0Sk8vhXMvBI9kmpI/Kc/J8zlyz97/z8FYk1EaRIq40iY6RpEx0jRGLirMZVGEVRmJrNhNUZiKowmqMxIYCJqosiKuJRFXEomriSKuJIq4lEVcWis+Zc7fMl1slcj1WDp0Vwh0qPP28X4n0+PHtxkfV48e3GRsWsAAAAHG2ldoosl06Wl8T5l5lYTeUjz9VyfL4c8vp+fg8hFHrr8vGsTnVxpElcaRJdI0iY6RcxajCKowmqMxFUYTWbMSozEVUxgY1JNVEoiriyXR0kVcjevCWy4Vz/K0vmZ22+jvjw8l8sa5FeycQ/ZUfikv2Hysq9GPSct9HJr2HZ7U4rsTl/Bv8PfWu2PRZetjkQ2HD2pyfYlH+Tf4aetdp0mPrXLw2AqrecY5y65PN93UdcOLHHxkdsOHDDxkco6OoAAAAAHTcpbsoQr+9JyfYv+vwO3DPG18n4ryawxw9/wBHRROtfFjSJFXGkSXSNImOkaRMdIszG1RhNZsxNUYRVJGJrhYjaWGr9e+mHulZBP5ZjVTqutv5UYCPNvtT/BCcvHLI3tp2ZOvu5aYZepVdP3tQgvNvwHZWzirhXctrX6mHhHqc7JT8Ekb8v6qnFPdwbuVmPlwlXX8Faf8AtmPl4rmGLhz2ntC5qH1i5ym1GMYT3ecm8kvRy6Te3Gei5jPKR9+2bhFRRVSnnuqoV6nzylpilqb6W8s8zm/QYYTGSRyQoAAAAAAAAAAAHltuXasRJdEEoLzfi/A9PHNYvznxHk7+ez28HDiK8caRJXGkUY6RW3FU1/3LK4fHOMfNmOkcK7lPs+vjiIP/AOanZ/qmZpcdbieXmCj6kb7PhhGK/U0/AaLXV4j6QX9nhe+y39lH9ze1Nrrr+W+Pl6qorXRprlJ/OUmvAdsS6+7lBtCfrYmxZ/c01f6JG6jPBwbZ22f3LLLPjnKfmzTakaPcDuaKkHcsqAzuXVANrrDk2qleg5DbL320sPms41SeIl/hzxf5tBNr09Lj3cuP08f3977QQ+4AAAAAAAAAAACs5KKcnwim32IMyymMtvo8RfevStm1FNucm3klm8+J674R+RtueVy9a6bF8pqo81UXY/vP0Ify/A52u+PBfXwdNiuUeLlwmq11VxS8XmzHacWMdXiMZfP17bZfFZJr5ZhWpPRwpRDGUkGbVcQm1Gg1Nq0YBm2kYBm2kYBm2igGbXjAM20jWBrGsi1UaRrJtVHvfo0wOX1jENfdoi/1S84fIl9T4fh9rP7nuQ+mAAAAAAAAAAADrOUeMjThLJyeSa0t+58fDMvjni8XX59vBZPPLw/f3Pj+09pWYiebzVafoQ6Eut9b950t2+Rx4TGOKkS6qSDGUjWMpIM2rpCbUaQi0UDU7aRgGbaRgGbaRgGbaRrDNtY1i0aRrItVG0ayLVxpGoi1UfU+SeE3OBpj7U472XbN5rwaXcbH3ulw7eLH9+btzXoAAAAAAAAAAAB8/wDpRx7zowifNk77F18+mHlL5I6YeT5fX5byxx9nglEp4l8uYxrOSDGTRrLUaQi1GgJtNBqLUxgE7aRgGbaRrDNtY1hm2sazLSNY1kWrjaNRFqo1jURauOXgcG7La6l9pOMOxN87J268eHdlMfd9WjFJJLmSWSXUjq/RJAAAAAAAAAAAAD49ywxe+2hiJZ5xhPcx9ygtL/UpPvO2M8Hw+pz7uXK/vwdNkHKJZjWbRqajIJqMgimQTTSairxiEtIxCWsYhjaEDLWyNYQItXI2jAi1UjaECLVyNowOdq5HoOSOF1YnXlzVQlL/ACforzfyNw8a93RYb5N+z2x2fXAAAAAAAAAAABxto4pU0W3PhVVOztyTeRsm6jPLtxuXs+Iybbbbzk3m31t8Wd35/wDuZEqirRhUZGppkEVGQTTSaip0hFXjEJaxiaxrCJNrZG0IkWrkbQic7VyNoRItVI3jEi1cjWESLVyPY8kcPppnZ02TyXwx5vNyOvFPDb6vRYawuXu746vaAAAAAAAAAAADzH0hYvRgd2uN9sYe/TH02/0pd5fHPF4+uz1x693zLI6vkJUTFKuJjKjIIqMgmmRqKnSEUUQitIxDG0YmWtkbQic7VyNoRItXI2hEi1cjaESLVyNq4Z8y531LnZztVI7PA7IvtkkoSjHpnNOMUu/j3CYZX0enj6fPO+T22Ew8aq41x4QWXb1s9Umpp9fDCYYzGejU1QAAAAAAAAAAAPnX0jYrXiq6VwpqzfxzebXyjH5nbjnht8nr895zH2n5vKKJdeJdRJapKJiapkE0yCKaTUVOkJqVEIVni6IetbXHtnFP5GVc48r6MJ7ewcftdT/DGcvHLInVdZw5ez1XJPZMto0PE1y3dO8lXF2ReqTilnJJdGby48UyLLHs4egzzm9yPTUci4L175y+CCh5tkaerH4bjPPL9/i59PJbBx4qyfxTa/1yHbHfHoeKe9+9zatkYWHCiv8Ayipv5sds9nbHp+KeWMcyFcYrKKSXUkkU6ySeSwaAAAAAAAAAAAAAA+QbYxO/xV13FTtlpf4FzR8Ej1Sakj89zZ9/Jll71xFExBdZCCznKMF1ykorxMa62/bWEj9qn8KlPxSMOzK+jhWcpKF6sbJd0YrxY0fKri2cpn7NK7ZTb8Eg35H1cWzlDiXw3cfhjm/FsN+Ri41m1MVLjdP/AByh/rkaqcWE9HGssnL1pSl8UnLzC5JPJRRDUtBj9LcitmfVNl4TDtZSjRGdi6rZ+nNfmkzhbuvscWPbhI7sx0AAAAAAAAAAAAAAAAADr+UGK3ODvsTykq3GD/HL0Y+LRWE3ZHHqM+zjyyfIsVia6Ya7JKMVzLrb6kulnpr4Em/J5faHKS6ecaVuodfM7H38F3fMnbtMJPN0tkpSeqTcpPi5NyfzZi1dINp0gNINp0g2aQzadINmkG3a8ltmfWtoYXDNZxtvhvF11R9Kz9MZGW6i+LHuzkfpk4PtAAAAAAAAAAAAAAAAAAA8Z9Jm1IUYeuMnzOTsklxelZRj3uX6TrxTzr5/xDL+XHCev6Ph20MbZfY7Jv3RivVhHqX8l27eGSRxtIbtOkM2aQbTpBs0g2nSGbTpBs0g2nSGbfQfoX2brx92Ja5sNRpj7rLXkn+WM13kZ3we3osd53L2fZzk+mAAAAAAAAAAAAAAAAAAD4b9Le03ftOVCf8ATwsIV+52Nam+7Xl8zth5Pk9Xlvlv0eK0FPNs0Bm06AbToBs0Bm06AbToNNp0BmzQDadANvtX0R7O3WzN816WKunb1PRH+nFfpb/yOOd8X1+ix1xb93tyHrAAAAAAAAAAAAAAAAAAB+atq3O7FYi587uxFtv5pt/ueieT8/nl3ZW/VxdATtOgM2nQDad2azad2Dad2DZuwzad2Dad2GbWjS21GKzlJpRS4uT5kgb34R+i9k4JYfDUYePCimurPr0xSb7+J574v0mGPbjMfZyzFAAAAAAAAAAAAAAAAAAA/N2JwrhZZW+Ndk632xk1+x6H5rLwtnsoqgzad0GbTujTad0GbTugbTugbTuwzZuwbNANu95D7O3+08NFrONc9/P3Ktal+rSu8nK6j09Jh382M9vH/H/r7icH6AAAAAAAAAAAAAAAAAAAAD41y92Q6No2tL+niX9Yg+jOT9NdurN96O2F3H5/rcPl819r4/7/ABee3RTybTugzad2DZoBs0A2aAbNANmgGzQDb3/0UYD08TimuCjh4P3v05rwrOfJfR9X4Zhu55/d+t/R9FOb64AAAAAAAAAAAAAAAAAAAHR8rthLHYfSslfU3OiT4aumD9z80n0FY3VeXq+n+dhqec8v39XyO7DShKUJxcZwbjKMlk4yXQzs/N3ctlmrFN2GbN2DZuwbN2DZuwbN2DZuwbWhS5NRinKUmoxilm5SbySS6w2bt1H2Lkrsn6ng66XlvHnZdl/7JcV78lku44ZXdfpul4fk8Uxvn6/3duY9AAAAAAAAAAAAAAAAAAAAADo+UPJmjGLU/wCnellG2KzzXVNe0vH3lY5aePquiw5/Hyy9/wDfu8BtPk1jMO3qqlOHRZUnZDLreXPHvSOsylfD5uj5uK+OO57zxdRkjXk2nSg3YopvJc7fBLiGb8dOZTsjFT9TD3y96qnp+eWRm47Y8HLl5YX/ABXPo5IbQn9hpXXOda8M8/Azujvj0HUZf0a/vY7DD8gcU/Xtogvwudj+WSXiZ3x3x+Fct+1lJ/m/6ep2DyWw2Ee8Wdt+WW8ml6PXoj7Pi/eRcrX0um6Hj4f5vO+9/R3pL2gAAAAAAAAAAAAAAAAAAAAAAAB5Llh7XZ+xWL5vW+VeJwf93vOt8nxeL7b6Vyb/ALfcca/RdN9l3Jj1AAAAAAAAAAAAAAAAAAAAAAAAAA//2Q==;fontStyle=1" parent="1" vertex="1">
          <mxGeometry x="1194.8" y="374" width="58.56" height="58.56" as="geometry" />
        </mxCell>
        <mxCell id="g6LIm--5TCJFVdgI6rz6-7" value="" style="rounded=1;whiteSpace=wrap;html=1;fontColor=#00C895;strokeColor=#00C895;strokeWidth=2;" parent="1" vertex="1">
          <mxGeometry x="891" y="669" width="132" height="104.5" as="geometry" />
        </mxCell>
        <mxCell id="g6LIm--5TCJFVdgI6rz6-8" value="Solace Azure&#xa;Service Bus&#xa; Micro-integration" style="shape=image;verticalLabelPosition=bottom;verticalAlign=top;imageAspect=0;aspect=fixed;image=data:image/png,iVBORw0KGgoAAAANSUhEUgAAAZEAAAGRCAMAAACT/35lAAAAM1BMVEVHcEwAyJUAyJUAyJUAyJUAyJUAyJUAyJUAyJUAyJUAyJUAyJUAyJUAyJUAyJUAyJUAyJXew374AAAAEHRSTlMAgDBQ0OBw8BAgkLBAwGCg7vN8PgAAAAlwSFlzAAAWJQAAFiUBSVIk8AAACWJJREFUeJzt3e1aszoQheHSalu/Of+j3dcrurV2AhmSmUnguf9bgTCQrAQ4AAAAAAAAAAAAAAAAAAAAAAAAAAAAAAAAAAAAAAAAAAAAAAAAAAAAAAAAAAAAAAAAAAAAAAAAAAAAAABQ6vU8DMPpiePYhqePyzh5eN/7sWjC+/jL4+veD0e8mwYZx/G89wMS7Wn8iyaJ9XHXIiMXrlCX+xZ52/HhiHe6b5BxPO79qER6llqEO0mgR6lFnnd7OOIdpQbhRhLoLLbIy26PR7wHsUWGvR+WOPfDQ/pasf4mKJPLng9JsBexRT52fUxCXeWL1mnHhySYOGAfx10fk1hCykjfN5SQMo7jyDximFf5onXd6eFogJgyjg97PyyBxJSR4DeOnDKOLBEKI6eMjzs9Gi2QU0bmRsKQMraGlLE1pIyNIWVsDSlja0gZW0PK2BhSxtaQMhY6vg/Dueaa9XUp4/V1GAaWzh8OT2/TAbs814oBEwP2+Z8/fW0Gz2Gdf+7Cl0qL21akjN+nxT8fu77fHN9ujtpDlYOhTxnfbzpnlx2PJIe7E7lCFpgYsM/88l0K9rLTMjkKJ/Ol/FioU0bhD/ZZJncF8qn8wqVNGeXRy8vuphulAvlUPKsk/2zypL/KA/zxsq85+as8iPtUeHJqU8b0lrztqExe5THcpHAWQ5kyJvoBn3ZTJnMFUj7Tp0wZ5cHLt32UyWyBjKUvAUgsC0r2F+R+wI/tP5J1la8q1Q6CNmVcOj3Gh40vlzglejbVWkSbMi5vzqbL5Lp0jSg+AuqUMWeDtlsmOQVS2CLqlDFri8bnTcYqT1kFUtgi6pQx7yTZZEh/ztz3okU8+pQx9zTZXJk8vWXs9KRkPKJfyyj/hWRbZZJfIGUXrRVrGRe7v79+ZzNloiiQwgUK8k/OXgYTOZhoKyG9HLunGqTkPFy1ljH/urWRuaxk7G6wx+vWMqqapP8yURXIY+HurlzLqLqqdj6XpSuQ0g6mNmX8oel59BzSL8Tuf5T3LgvWMurKpNeQfjF2v1FhBCYXZOYZvf0y8S6QlWsZf/159vB97LJMdAUy1OhUFj8xnZmETmqtwHSiK5BKabd8K9CsbcmbLai82S5UJ1utGSF9yigI2XJzQWdanSemM2adLTbeVNTVuNYT0wF3QFO6AqnZY5FPhBUpgH8v0VJcr77mE9PuIykzkSPfqk9Mb6VMQoe98mm9+olp30TOhjJBrbwP61PGFFVq3WJIP6gKpPoOGDwx7TmzU1/41heljCkdl0n4phemjMmfDb0Sr9fAXdDsvYw9hvRX3cStTU+xPGVM6W8uq4nRVJWUMaWvMmlkKGX7Xsae5rJaiRus38vYy1xWyLyUqFrKmNLHXFY7szse72Vsfy6rpbPG5b2Mrc9lNXXKVE4ZU1qey4qbl5LUTxkT2g3pG+uhJ955Y/Gv2pzLam4Ua5IyJrRYJu+tDWGNUsYUZYpntBW/qM4Rl5X97l9/8XtEKYemC+g0YyD3MixPTlWZGDeJ5nkkp+kC05QxRVMmpu+rf8q/h7hNqcV8/UXTvbE8EvnXLL8njeVtsv/6S/4QwPCWNvfCttttcBwcmaeMKfllYrcxuXcRz+VLkV9/yS0Tu4LN6/n6LvGTt8np6y+Zc1l2l62sMnVe3+eUMqbkJa5m/z6jRbxTaLeUMSUrdDU7KMv/2v0Dd44pY0rG3dXsOp4RfHo/4eKZMspyrltmLZJzH/G9rzunjMIGZN3bzf593gDR89Ye/Y3pvP6vXYCQOR5xLBP/lPG33DGiXV88cY0QDolTmYSkjP/LzlEM++LZuZZTzhj5jen8EKXCZ27SW5Gf/bpk8VEpoy6PN12JM/8pghseZRKWMmrmrIwHR5o5RPMyCUsZNRNWbU3rGo/UglLGliZ1D9q1KLZrg0JSRt36IJdep2q9lmWZhKSMqjV0biMz1ZpGuzKRuxmmN9IGC2SiKxOr3p9/ythmgUxUa+NtJk3cU0bd8wrub+bQLY+3KBN5wG6XMjZwEja+hb4pY/wZ2PxG+qaM7RfIJPJOJw/YbVJG3fPToS/UDOwNOqaMjfT2M4WViVvK2MyIOFdQmcifVTdIGfsqkMmrJnkr/cbIN6eUsbsC+aJ66qhOSO+TMup2rKW3+6sC6hpzWS4po/teVeVcJh4pY0DlV3VUXXFLLy/2KWPfBTJx7JWYp4y6N+s1++1Kv46JdcrYcuyu41Umtiljs/NSa/iUiW3KuJ0CmXikpJYp46YKZOIQ0humjLoTqpcvhJuXiVnK2MW81BrGO2aWMvYyL7XGSXN31Ba/Ucq42QKZWN4gbVJGXc+9rwKZmHUiEwP2sl5Pr7G7ilWZWKSMPc5LrWFTJvVTxl0UyBeDRDsxYC84b1VffOq4QCb1Q+3aKeMWYned2mVSOWXUvOiwxXmpNXTPJC3+A/nv1vZGE6NN0SYKZKLpySyNvCqnjIq+x0YKZKLozCwd27opY/41q4PYXSe/TBb2vG7KmB2cdBG762SXyfxlK7EsaO1WZV60Nlcgk8ynfOdbpHLKmNcgGyyQSV64Ot8ilVPGnA3qZl5qjZwJiNkWqZ0yZjRId7G7TkaZzB6B2inj4tZ0Ni+1xuJc1my3qXbKuNTd2HiBTJZC+rkkr3rKOB/xdDkvtcZsSP8294PV1zLOvVav89hdZa5MZjs29dcypi9b3cfuOskymS2RyinjYaZI9lQgX+Qr+GX2xLRYyyj33nZWIBMppL/Mn+4maxmFHy1+vKVXd2Wy0CBGaxnvmmRTsbvOnzJZGo1VThn/d3vh2tC81Bq/Fx0s5nlmT0z/PjN2XCCT75D+8rF8L5UH7FWu+e9fv13rcfuuHc/DcM6JV03WMv78+mkYhi2nvAYC3suIWfLwen8juWbUX8uIMt7vZcSS2K+/4J48YN/LDEaDPN/LiByBX3+BSJ5QYYgdxiplxFqh35iGwDBlxBq2KSP0SBlbQ8rYGFLG1pAytoaUsTWkjI0hZWwNKWNrSBkbkxiw7/2wBJLfXULKGEduEVLGOHKLkDIGkhqElDGSNDlCyhhJirVIGUPdF8n8E6SwdvwbbC09HwfvJqHrG+7mkcWNvoCsN8N3uvVwZijSiH/Pxw2vdLIAAAAAAAAAAAAAAAAAAAAAAAAAAAAAAAAAAAAAAAAAAAAAAAAAAAAAAAAAAAAAAAAAAAAAAAAAAAAAAOsdDof/ABl8go2+NUsdAAAAAElFTkSuQmCC;fontStyle=1" parent="1" vertex="1">
          <mxGeometry x="934" y="676" width="44" height="44" as="geometry" />
        </mxCell>
        <mxCell id="g6LIm--5TCJFVdgI6rz6-9" value="" style="endArrow=classic;html=1;rounded=0;exitX=0.917;exitY=0.504;exitDx=0;exitDy=0;entryX=0;entryY=0.5;entryDx=0;entryDy=0;exitPerimeter=0;edgeStyle=orthogonalEdgeStyle;" parent="1" source="g6LIm--5TCJFVdgI6rz6-21" target="g6LIm--5TCJFVdgI6rz6-7" edge="1">
          <mxGeometry width="50" height="50" relative="1" as="geometry">
            <mxPoint x="814" y="1632" as="sourcePoint" />
            <mxPoint x="864" y="1582" as="targetPoint" />
          </mxGeometry>
        </mxCell>
        <mxCell id="g6LIm--5TCJFVdgI6rz6-21" value="Solace Broker UK&#xa;(Azure)" style="shape=image;verticalLabelPosition=bottom;verticalAlign=top;imageAspect=0;aspect=fixed;image=data:image/svg+xml,PHN2ZyB4bWxucz0iaHR0cDovL3d3dy53My5vcmcvMjAwMC9zdmciIHZpZXdCb3g9IjAgMCA3MiA3MiI+PGRlZnM+PHN0eWxlPi5jbHMtMXtmaWxsOiM0NmM3OTU7fS5jbHMtMntmaWxsOiNmZmY7fS5jbHMtM3tmaWxsOiMwMjAyMDI7fTwvc3R5bGU+PC9kZWZzPjxnIGRhdGEtbmFtZT0iTGF5ZXIgMiIgaWQ9IkxheWVyXzIiPjxnIGRhdGEtbmFtZT0iTGF5ZXIgNSIgaWQ9IkxheWVyXzUiPjxjaXJjbGUgcj0iMzYiIGN5PSIzNiIgY3g9IjM2IiBjbGFzcz0iY2xzLTEiLz48cGF0aCBkPSJNNjEuMzcsMjguMkg1My45di04YTQuNSw0LjUsMCwxLDAtMi42LjA2VjI4LjJIMzcuMVYxMi45NGE0LjUsNC41LDAsMSwwLTIuNiwwVjI4LjJIMjAuNHYtOGE0LjUsNC41LDAsMSwwLTIuNiwwdjhoLTdhNC4zOSw0LjM5LDAsMCwwLTQuMzksNC4zOXY5LjIyYTQuMzksNC4zOSwwLDAsMCw0LjM5LDQuMzlIMTcuOHY1LjU2YTQuNSw0LjUsMCwxLDAsMi42LDBWNDYuMkgzNC41VjU5LjA2YTQuNSw0LjUsMCwxLDAsMi42LDBWNDYuMkg1MS4zdjUuNTNhNC41LDQuNSwwLDEsMCwyLjYuMDZWNDYuMmg3LjQ3YTQuMzgsNC4zOCwwLDAsMCw0LjM5LTQuMzlWMzIuNTlBNC4zOCw0LjM4LDAsMCwwLDYxLjM3LDI4LjJaIiBjbGFzcz0iY2xzLTIiLz48cGF0aCBkPSJNMTcuMjIsMzUuNDhBMy41NCwzLjU0LDAsMCwxLDE3LDM2LjgzYTIuNTMsMi41MywwLDAsMS0uNjksMSwzLjEsMy4xLDAsMCwxLTEuMTIuNjEsNSw1LDAsMCwxLTEuNTcuMjJoLS43NnYyLjlhLjIuMiwwLDAsMSwwLC4xMy40OS40OSwwLDAsMS0uMTUuMDlsLS4yOCwwYTMuMzksMy4zOSwwLDAsMS0uOSwwLDEuNTUsMS41NSwwLDAsMS0uMjksMCwuMzMuMzMsMCwwLDEtLjE0LS4wOS4yMS4yMSwwLDAsMSwwLS4xM1YzMy4zOGEuNjUuNjUsMCwwLDEsLjE4LS41LjYxLjYxLDAsMCwxLC40NS0uMTdoMi4xNGE2LDYsMCwwLDEsLjYyLDBjLjE5LDAsLjQzLDAsLjcuMWEzLjYyLDMuNjIsMCwwLDEsLjgzLjMsMi41OSwyLjU5LDAsMCwxLC43MS41NiwyLjE2LDIuMTYsMCwwLDEsLjQ1Ljc4QTMuMDksMy4wOSwwLDAsMSwxNy4yMiwzNS40OFptLTEuOTMuMTNhMS42OCwxLjY4LDAsMCwwLS4xNy0uNzksMS4yLDEuMiwwLDAsMC0uNDEtLjQ1LDEuNDksMS40OSwwLDAsMC0uNTItLjE5LDMuNDMsMy40MywwLDAsMC0uNTYsMGgtLjc5djMuMDloLjgzYTIsMiwwLDAsMCwuNzUtLjEyLDEuMiwxLjIsMCwwLDAsLjQ4LS4zNCwxLjI4LDEuMjgsMCwwLDAsLjI5LS41MUExLjkzLDEuOTMsMCwwLDAsMTUuMjksMzUuNjFaIiBjbGFzcz0iY2xzLTMiLz48cGF0aCBkPSJNMjQuNSw0MS41N2EuMjguMjgsMCwwLDEsMCwuMTMuMzIuMzIsMCwwLDEtLjEzLjA4LjY0LjY0LDAsMCwxLS4yMy4wNmwtLjM2LDAtLjM4LDBhLjcuNywwLDAsMS0uMjMtLjA2QS4zNi4zNiwwLDAsMSwyMyw0MS43YS4yOC4yOCwwLDAsMSwwLS4xM3YtLjcyYTQsNCwwLDAsMS0xLjA2Ljg0LDIuMzQsMi4zNCwwLDAsMS0xLjExLjI4LDIuNTIsMi41MiwwLDAsMS0xLjA5LS4yMSwxLjkxLDEuOTEsMCwwLDEtLjcxLS41NywyLjQ1LDIuNDUsMCwwLDEtLjM5LS44NSw1LjcsNS43LDAsMCwxLS4xMS0xLjJWMzUuM2EuMTcuMTcsMCwwLDEsMC0uMTIuMjEuMjEsMCwwLDEsLjE0LS4wOUExLjQ2LDEuNDYsMCwwLDEsMTksMzVsLjQzLDAsLjQzLDBhMS40NiwxLjQ2LDAsMCwxLC4yNy4wNS4yOC4yOCwwLDAsMSwuMTQuMDkuMTcuMTcsMCwwLDEsMCwuMTJ2My41NWEzLDMsMCwwLDAsLjA3Ljc1LDEuMTgsMS4xOCwwLDAsMCwuMTkuNDQuOTEuOTEsMCwwLDAsLjMzLjI5LDEsMSwwLDAsMCwuNDcuMSwxLjIsMS4yLDAsMCwwLC42OC0uMjQsNC4wNSw0LjA1LDAsMCwwLC43Mi0uNzJWMzUuM2EuMjIuMjIsMCwwLDEsLjE4LS4yMSwxLjQ2LDEuNDYsMCwwLDEsLjI3LS4wNWwuNDMsMCwuNDMsMGExLjQ2LDEuNDYsMCwwLDEsLjI3LjA1LjI4LjI4LDAsMCwxLC4xNC4wOS4xNy4xNywwLDAsMSwwLC4xMloiIGNsYXNzPSJjbHMtMyIvPjxwYXRoIGQ9Ik0zMi41OSwzOC4zNWE1Ljg0LDUuODQsMCwwLDEtLjE4LDEuNTFBMy41MywzLjUzLDAsMCwxLDMxLjg4LDQxYTIuNDEsMi40MSwwLDAsMS0uODQuNzIsMi41MiwyLjUyLDAsMCwxLTEuMTUuMjUsMi44MSwyLjgxLDAsMCwxLS41OS0uMDYsMS43MiwxLjcyLDAsMCwxLS41Mi0uMTksMi41NCwyLjU0LDAsMCwxLS40OS0uMzQsNC41NSw0LjU1LDAsMCwxLS41LS40OXYuNjhhLjE3LjE3LDAsMCwxLDAsLjEzLjE5LjE5LDAsMCwxLS4xMi4wOS43Mi43MiwwLDAsMS0uMjQuMDVsLS4zNiwwLS4zNiwwYS42Ni42NiwwLDAsMS0uMjMtLjA1LjE5LjE5LDAsMCwxLS4xMi0uMDkuMTcuMTcsMCwwLDEsMC0uMTNWMzIuMzNhLjIuMiwwLDAsMSwwLS4xMy4yNy4yNywwLDAsMSwuMTUtLjA5Ljc3Ljc3LDAsMCwxLC4yNy0uMDYsMi42MiwyLjYyLDAsMCwxLC40MywwLDIuNzUsMi43NSwwLDAsMSwuNDMsMCwuOS45LDAsMCwxLC4yNy4wNi4yOC4yOCwwLDAsMSwuMTQuMDkuMi4yLDAsMCwxLDAsLjEzdjMuNDZhMy4zOSwzLjM5LDAsMCwxLC40OC0uNCwyLjM5LDIuMzksMCwwLDEsLjQ4LS4yOEEyLjE2LDIuMTYsMCwwLDEsMjkuNSwzNSwzLjA3LDMuMDcsMCwwLDEsMzAsMzQuOWEyLjMzLDIuMzMsMCwwLDEsMS4xOS4yOCwyLjI2LDIuMjYsMCwwLDEsLjc5Ljc1LDMuMjksMy4yOSwwLDAsMSwuNDQsMS4xQTUuNjgsNS42OCwwLDAsMSwzMi41OSwzOC4zNVptLTEuODMuMTNhNC44MSw0LjgxLDAsMCwwLS4wNi0uNzcsMi4xMywyLjEzLDAsMCwwLS4yMS0uNjYsMS4xNiwxLjE2LDAsMCwwLS4zOC0uNDYsMSwxLDAsMCwwLS42LS4xOCwxLjMzLDEuMzMsMCwwLDAtLjM0LjA1LDEuMjUsMS4yNSwwLDAsMC0uMzUuMTcsMi40MywyLjQzLDAsMCwwLS4zNy4zMSw1LjM0LDUuMzQsMCwwLDAtLjQuNDd2Mi4wOGEzLjgzLDMuODMsMCwwLDAsLjcyLjczLDEuMTQsMS4xNCwwLDAsMCwuNzEuMjUuOTMuOTMsMCwwLDAsLjU4LS4xOCwxLjQ2LDEuNDYsMCwwLDAsLjQtLjQ1LDIuMTEsMi4xMSwwLDAsMCwuMjMtLjY0QTMuNTEsMy41MSwwLDAsMCwzMC43NiwzOC40OFoiIGNsYXNzPSJjbHMtMyIvPjxwYXRoIGQ9Ik0zOS41MSwzOS4wOGEyLjc4LDIuNzgsMCwwLDEtLjI3LDEuMjYsMi42LDIuNiwwLDAsMS0uNzMuOTEsMy4xMiwzLjEyLDAsMCwxLTEuMDYuNTQsNC42Niw0LjY2LDAsMCwxLTEuMzEuMTgsNC44Myw0LjgzLDAsMCwxLS44OC0uMDcsNS4xNiw1LjE2LDAsMCwxLS43MS0uMTksMi44NywyLjg3LDAsMCwxLS41Mi0uMjMsMS40OCwxLjQ4LDAsMCwxLS4zLS4yMUEuNTguNTgsMCwwLDEsMzMuNiw0MWEzLDMsMCwwLDEsMC0uNSwzLjM2LDMuMzYsMCwwLDEsMC0uMzYsMS4xOSwxLjE5LDAsMCwxLDAtLjI0YzAtLjA2LjA1LS4xMS4wOS0uMTNhLjE2LjE2LDAsMCwxLC4xMiwwLC42My42MywwLDAsMSwuMjguMTEsMy41OSwzLjU5LDAsMCwwLC40Ni4yNiwzLjkxLDMuOTEsMCwwLDAsLjY3LjI2LDMuMTEsMy4xMSwwLDAsMCwuOTEuMTEsMS45LDEuOSwwLDAsMCwuNi0uMDgsMS4yLDEuMiwwLDAsMCwuNDUtLjIzLjkzLjkzLDAsMCwwLC4yOS0uMzYsMS4zLDEuMywwLDAsMCwuMS0uNDkuODguODgsMCwwLDAtLjE3LS41M0ExLjY4LDEuNjgsMCwwLDAsMzcsMzguNGE0LDQsMCwwLDAtLjYyLS4zMmwtLjcxLS4zMmE3LDcsMCwwLDEtLjcxLS4zOSwyLjcxLDIuNzEsMCwwLDEtLjYxLS41MSwyLjQzLDIuNDMsMCwwLDEtLjQ0LS43MSwyLjU1LDIuNTUsMCwwLDEtLjE3LTFBMi42LDIuNiwwLDAsMSwzNCwzNGEyLjM0LDIuMzQsMCwwLDEsLjY2LS44MywyLjg2LDIuODYsMCwwLDEsMS0uNDksNC40OCw0LjQ4LDAsMCwxLDEuMTgtLjE2LDQuNzQsNC43NCwwLDAsMSwuNjUuMDUsMy43NSwzLjc1LDAsMCwxLC42LjE0LDIuNjEsMi42MSwwLDAsMSwuNS4xOSwxLjA5LDEuMDksMCwwLDEsLjI5LjE3LjM2LjM2LDAsMCwxLC4wOS4xMi4zOS4zOSwwLDAsMSwuMDUuMTMsMSwxLDAsMCwxLDAsLjIsMi45MSwyLjkxLDAsMCwxLDAsLjMxYzAsLjE0LDAsLjI1LDAsLjM1YTEuMiwxLjIsMCwwLDEsMCwuMjMuMjMuMjMsMCwwLDEtLjA3LjEzLjE2LjE2LDAsMCwxLS4xMiwwLC41OS41OSwwLDAsMS0uMjUtLjFsLS40MS0uMjFhMy43NywzLjc3LDAsMCwwLS41Ny0uMjEsMi42NSwyLjY1LDAsMCwwLS43MS0uMSwxLjY5LDEuNjksMCwwLDAtLjUzLjA4LDEuMTgsMS4xOCwwLDAsMC0uMzcuMi43Ni43NiwwLDAsMC0uMjMuMzEsMS4wNywxLjA3LDAsMCwwLS4wNy4zOS44OC44OCwwLDAsMCwuMTYuNTMsMS44OCwxLjg4LDAsMCwwLC40NC4zOSw2LjE2LDYuMTYsMCwwLDAsLjYzLjMybC43Mi4zMmE1LjYsNS42LDAsMCwxLC43Mi4zOSwyLjc3LDIuNzcsMCwwLDEsLjYyLjUxLDIuNCwyLjQsMCwwLDEsLjQ1LjdBMi41MiwyLjUyLDAsMCwxLDM5LjUxLDM5LjA4WiIgY2xhc3M9ImNscy0zIi8+PHBhdGggZD0iTTQ2Ljc2LDQxLjU3YS4yOC4yOCwwLDAsMSwwLC4xMy4zMi4zMiwwLDAsMS0uMTMuMDguNTguNTgsMCwwLDEtLjIzLjA2bC0uMzYsMC0uMzgsMGEuNTguNTgsMCwwLDEtLjIyLS4wNi4yMy4yMywwLDAsMS0uMTItLjA4LjIuMiwwLDAsMSwwLS4xM3YtLjcyYTQsNCwwLDAsMS0xLjA2Ljg0LDIuMzQsMi4zNCwwLDAsMS0xLjExLjI4QTIuNTIsMi41MiwwLDAsMSw0Miw0MS43NmExLjkxLDEuOTEsMCwwLDEtLjcxLS41NywyLjQ1LDIuNDUsMCwwLDEtLjM5LS44NSw1LjcsNS43LDAsMCwxLS4xMS0xLjJWMzUuM2EuMTcuMTcsMCwwLDEsMC0uMTIuMjEuMjEsMCwwLDEsLjE0LS4wOSwxLjQ2LDEuNDYsMCwwLDEsLjI3LS4wNWwuNDMsMCwuNDMsMGExLjQ2LDEuNDYsMCwwLDEsLjI3LjA1LjI0LjI0LDAsMCwxLC4xNC4wOS4xNy4xNywwLDAsMSwwLC4xMnYzLjU1YTMsMywwLDAsMCwuMDcuNzUsMS4xOCwxLjE4LDAsMCwwLC4xOS40NC45MS45MSwwLDAsMCwuMzMuMjksMSwxLDAsMCwwLC40Ny4xLDEuMiwxLjIsMCwwLDAsLjY4LS4yNCw0LjA1LDQuMDUsMCwwLDAsLjcyLS43MlYzNS4zYS4yNS4yNSwwLDAsMSwwLS4xMi4yOC4yOCwwLDAsMSwuMTQtLjA5LDEuNDYsMS40NiwwLDAsMSwuMjctLjA1bC40MywwLC40MywwYTEuNDYsMS40NiwwLDAsMSwuMjcuMDUuMjQuMjQsMCwwLDEsLjE0LjA5LjE3LjE3LDAsMCwxLDAsLjEyWiIgY2xhc3M9ImNscy0zIi8+PHBhdGggZD0iTTU0Ljg2LDM4LjM1YTUuODMsNS44MywwLDAsMS0uMTksMS41MUEzLjc0LDMuNzQsMCwwLDEsNTQuMTUsNDFhMi40NCwyLjQ0LDAsMCwxLS44NS43MiwyLjUxLDIuNTEsMCwwLDEtMS4xNC4yNSwyLjg0LDIuODQsMCwwLDEtLjYtLjA2LDEuNzIsMS43MiwwLDAsMS0uNTItLjE5LDIuNTQsMi41NCwwLDAsMS0uNDktLjM0LDQuNTUsNC41NSwwLDAsMS0uNS0uNDl2LjY4YS4xNy4xNywwLDAsMSwwLC4xMy4xOS4xOSwwLDAsMS0uMTIuMDkuNzIuNzIsMCwwLDEtLjI0LjA1bC0uMzYsMC0uMzYsMGEuNzEuNzEsMCwwLDEtLjIzLS4wNS4xOS4xOSwwLDAsMS0uMTItLjA5LjE3LjE3LDAsMCwxLDAtLjEzVjMyLjMzYS4yOC4yOCwwLDAsMSwwLS4xMy4yNy4yNywwLDAsMSwuMTUtLjA5LjkuOSwwLDAsMSwuMjctLjA2LDIuNjIsMi42MiwwLDAsMSwuNDMsMCwyLjc1LDIuNzUsMCwwLDEsLjQzLDAsLjkuOSwwLDAsMSwuMjcuMDYuMjguMjgsMCwwLDEsLjE0LjA5LjIuMiwwLDAsMSwwLC4xM3YzLjQ2YTMuMzksMy4zOSwwLDAsMSwuNDgtLjQsMi4zOSwyLjM5LDAsMCwxLC40OC0uMjgsMi4xNiwyLjE2LDAsMCwxLC40OS0uMTYsMy4xLDMuMSwwLDAsMSwuNTQtLjA1LDIuMzIsMi4zMiwwLDAsMSwxLjE4LjI4LDIuMjYsMi4yNiwwLDAsMSwuNzkuNzUsMy4yOSwzLjI5LDAsMCwxLC40NCwxLjFBNS42OCw1LjY4LDAsMCwxLDU0Ljg2LDM4LjM1Wk01MywzOC40OGE0LjgxLDQuODEsMCwwLDAtLjA2LS43NywyLjEzLDIuMTMsMCwwLDAtLjIxLS42NiwxLjE2LDEuMTYsMCwwLDAtLjM4LS40NiwxLDEsMCwwLDAtLjU5LS4xOCwxLjM0LDEuMzQsMCwwLDAtLjM1LjA1LDEuMjUsMS4yNSwwLDAsMC0uMzUuMTcsMi40MywyLjQzLDAsMCwwLS4zNy4zMSw1LjM0LDUuMzQsMCwwLDAtLjQuNDd2Mi4wOGEzLjgzLDMuODMsMCwwLDAsLjcyLjczLDEuMTQsMS4xNCwwLDAsMCwuNzEuMjUuOTMuOTMsMCwwLDAsLjU4LS4xOCwxLjM0LDEuMzQsMCwwLDAsLjQtLjQ1QTIuMTEsMi4xMSwwLDAsMCw1MywzOS4yLDMuNTEsMy41MSwwLDAsMCw1MywzOC40OFoiIGNsYXNzPSJjbHMtMyIvPjxwYXRoIGQ9Ik02Mi4xOSwzNy43N2EyLjkyLDIuOTIsMCwwLDEsMCwuMzMuNzMuNzMsMCwwLDEtLjA3LjIxLjI0LjI0LDAsMCwxLS4wOS4xMi4yOC4yOCwwLDAsMS0uMTIsMEg1OS43djIuMzhhLjE2LjE2LDAsMCwxLDAsLjEyLjIuMiwwLDAsMS0uMTEuMDkuNy43LDAsMCwxLS4yMy4wNiwzLjA3LDMuMDcsMCwwLDEtLjcsMCwuNjQuNjQsMCwwLDEtLjIzLS4wNi4yMy4yMywwLDAsMS0uMTItLjA5LjE2LjE2LDAsMCwxLDAtLjEyVjM4LjQ3SDU2LjA1YS4yOC4yOCwwLDAsMS0uMTIsMCwuMzEuMzEsMCwwLDEtLjA5LS4xMi43My43MywwLDAsMS0uMDctLjIxLDIuNzMsMi43MywwLDAsMSwwLS42Ni41My41MywwLDAsMSwuMDYtLjIxLjE5LjE5LDAsMCwxLC4wOS0uMTIuMjEuMjEsMCwwLDEsLjExLDBoMi4yVjM0LjdhLjIuMiwwLDAsMSwwLS4xMy4yNC4yNCwwLDAsMSwuMTItLjEuNjQuNjQsMCwwLDEsLjIzLS4wNiwzLjA3LDMuMDcsMCwwLDEsLjcsMCwuNy43LDAsMCwxLC4yMy4wNi4yMi4yMiwwLDAsMSwuMTEuMS4yLjIsMCwwLDEsMCwuMTN2Mi4zN2gyLjIxYS4yNS4yNSwwLDAsMSwuMTEsMCwuMzEuMzEsMCwwLDEsLjA5LjEyLDEuNDIsMS40MiwwLDAsMSwuMDYuMjFBMi45MiwyLjkyLDAsMCwxLDYyLjE5LDM3Ljc3WiIgY2xhc3M9ImNscy0zIi8+PC9nPjwvZz48L3N2Zz4=;fontStyle=1;fontSize=14;labelPosition=center;align=center;" parent="1" vertex="1">
          <mxGeometry x="716.5" y="681" width="78.5" height="78.5" as="geometry" />
        </mxCell>
        <mxCell id="g6LIm--5TCJFVdgI6rz6-24" value="" style="shape=flexArrow;endArrow=classic;startArrow=classic;html=1;rounded=0;entryX=0.5;entryY=1;entryDx=0;entryDy=0;exitX=0.5;exitY=0;exitDx=0;exitDy=0;" parent="1" source="g6LIm--5TCJFVdgI6rz6-21" target="77WKknoFe-UdvtvTZswO-19" edge="1">
          <mxGeometry width="100" height="100" relative="1" as="geometry">
            <mxPoint x="528" y="883" as="sourcePoint" />
            <mxPoint x="628" y="783" as="targetPoint" />
          </mxGeometry>
        </mxCell>
        <mxCell id="xQfZzW-gzSWbZSPTEg91-6" value="&lt;b&gt;Dynamic&lt;/b&gt;&lt;div&gt;&lt;b&gt;Message&lt;/b&gt;&lt;/div&gt;&lt;div&gt;&lt;b&gt;Routing&lt;/b&gt;&lt;/div&gt;" style="edgeLabel;html=1;align=center;verticalAlign=middle;resizable=0;points=[];" parent="g6LIm--5TCJFVdgI6rz6-24" vertex="1" connectable="0">
          <mxGeometry x="0.0549" y="-2" relative="1" as="geometry">
            <mxPoint as="offset" />
          </mxGeometry>
        </mxCell>
        <mxCell id="g6LIm--5TCJFVdgI6rz6-26" value="" style="endArrow=classic;html=1;rounded=0;exitX=1;exitY=0.5;exitDx=0;exitDy=0;entryX=0;entryY=0.5;entryDx=0;entryDy=0;edgeStyle=orthogonalEdgeStyle;" parent="1" target="9JEJFbvVPndM7wwkYAKE-12" edge="1">
          <mxGeometry width="50" height="50" relative="1" as="geometry">
            <mxPoint x="1023" y="721.2499999999999" as="sourcePoint" />
            <mxPoint x="1175.5" y="721.7500000000001" as="targetPoint" />
          </mxGeometry>
        </mxCell>
        <mxCell id="g6LIm--5TCJFVdgI6rz6-28" value="Logic App" style="shape=image;verticalLabelPosition=bottom;labelBackgroundColor=default;verticalAlign=top;aspect=fixed;imageAspect=0;image=data:image/png,iVBORw0KGgoAAAANSUhEUgAAATYAAACjCAMAAAA3vsLfAAAAyVBMVEX///9ZtNl/ugAAcsZPsde73+/l8/nt9/vF5PFXs9l3tgB6uAAAb8UAbcQAeMn8//9VldPW6Lh0qNrW58C2132+24nI4JxQqtaGxeHb7vY7ic6aweWRyuRhuNtjtcNXtN5st5Kr1+rk8MnP6PMAZsLY5/V2wN/J4Kyw2uyPyuRtvN2e0ef5/PLw9+Pe8PfJ5vG21O2PuuKBsN5HkNLD2/CixuckfspsntZ1uN222sjd7c7w9+CizqCKwCOjzVrM4qaq0GmWxkOfy1VmiKZ4AAAIx0lEQVR4nO2de3/aNhSGMcgXQRI3aZfhBK9zTV0wKbRdm25kbZJ9/w81G0iw5Jt0pCKZ6P2v/QX5+JGso5tf93oy5S6DOI4DqWUKK7Y9z145qsOolLuKxhbaaqw6GFKTXVjh3HZVx0LItROMEMbWRlgzbAu0iyuLMbG1aXV+ZO0C0xNbVIwOWXM9wAUpwpbO2GZEpWbgFhqAiy1ammPLwXmqYwow1h2bTWOzMIrVhuSHpcamHTavhM3CltqcuiiHpB22VUWMagdJbkVE2mGLq4JES4URRRXtX7vhbrAfUhbCnCuMKKTDQTidRMrzFCk3ms1DVIrUVxaQQzU2jHQYElVqFVKxInWVS6d2pNkkntCcGvUu1EWC5VL7dH1Rrc+fJAwYqB4lFS8RqJSkFgkV5n+eTk/rNJ1eCIOjxm9ItDywqGdU6Mbcq9NBk04H70XDtYjmhlSNeF2JCx9t1AaDk1PRdDMh4lXWES/JMGYiZX1po5a1t78E4yWfUmWplBx+C02PnZNWaoPB9KtYvAH5kNpipYEVy2v036YM2E4vxOJ1LS2wUalJZJZ30f6MZr3blVi8emIT6bFfMWE7E4v36LD5r1j6toHBRspgA4nAdkbKYKtVAdvJleMWVSRqsJEisFELYYVsYbCRIrBRc0WDrVYGG0gGG0gGG0gGG0gGG0gGG0gGG0gGG0gGG0gGG0gGG0hmKg9ScXXo9prQtyuzcFQnYpmSOsdQXMAUi/e4sdXLYCNlsMH0nWnD71Ys3uPDxnAEJMMmeAjk+LB9ZTrMcC0W7/Fh868YOrep4Im048PG0tymgo3tGLH1rqct7W36XTTeY8TW+zY4rQd3cnryWTjeo8TWc77cntVQO7u9ED65e6zYssQQvM/19++kvr4PpBxPPlZsO42p1x1kFfzCsMl6Gc9gA8lgA8lgA8lgA8lgA8lgA8lgA8lgA8lgA8kNdcQm7bXWX4XNJ177FnuRU0B2x7CRb8sLvqMOF2GegkNpxhq/DFuqBTbiJWosz+mgiC13R5SGjXCSUOYpRBgzSIyi2GfGmaQ1Y+rxkFUsn0iHAXlt3i+0NrlPEumtJW0dj0+kC580owOfsIeRmu+ogZuSzs0lbDWkZQQnoVxOJhI9nBKiaCXed6RnEJJj7OVHZesriU6S5JBJgWOaP6YahYxnNFigKvdBZEWSuiGX9DlC48O6kTkzi6ImWnHOKkpQFbQtOGSNZzK2ryifPoyjg7kGOmE2mqKsdrFAc3DiKNmQaVT+B+HEC8Tah59SfUB+2cOQW1oly0JovnPjaJxXQrnEOnTYShaxQB2VDW/xgcyOlqXbAabyYB5W2Ubu7qYWZUY5zR5ZYPSrUs7BarBhC9TWVgn9qBNs5m5a/9jmrurpDNbXxbTdohpsaAy5bJA09mV5+/UnDVitjTk4CJw71wEbZLXPXzQRwSjdunN5VnOeQGEEyhDk8E3RQ8pf5/RMgLgJK3v8nmC4C6uxxWGU8KcHd0IVogYbSjmv69C9SwEDChO72IKcSe0fby/OPYfQpG/LxeV455RMjncEsgy5iEtN1/USqz7hZqT5eomyMfvBsJVSOM/2i1tBLR/LJlEZ2dNPgtl2eFeNm4dbUDHoPBg2+g5wwt41U5NZjLYzp9YCnHiRN7uKvo7D3tFPqd9idKjhbs91Y8oymWOaQM4Ks2n63OOY3AR21teVKi1kTkoLus7GK+eQy0dUMmSO3KWWIAA+oH48SxBsBYhcI7Rwenj7/wTkK1qsbsjoYSeXXIJhfUypz8KkCtYpyXbDaNFd/JHgejcxYk7YfkO5eSsxLKbWrphaTmF8LmwXHHATcEhqE8EAYKJ2rpgo7BfzJeytOPueis3Gn7J5VvT5IaLJM9Wdv4+b8bFq1N4vmW3Tk8qjir7PQVqbs3DYf85DjqP3fhzEtOlJnpKQUXEQEXmJqb6D/S+kbKrsy2Pq3MgzIKo+z2GT2Biy+fO2OMcItUn7iRpT69XjxBH/+TZvj01Ox7LHxjBu1OR8G/9pSrXY9DxNqT82y2DbymAD6YVge4t3MtiYsN28y/XPH89a5/++Ew0hfPskhu/EdA7bZX+40aj/rO1/9N/cwK59c/4h15/P+nfz7/Om4jqGbf1j2K/TqH8OuPLdz9FoRFbDaFMto9HP+hbcLWzr/qiWWt7sPnBf+H5UX+Kof1/3s05hu3lspJaJt4e7r2+8G3B13DqF7bKN2uiB77J3bQXW1UOnsP1ou8l+/yPXZR+g9dAlbHft1IZcWeFje4E/qvNpl7C9a32k+qNLnquum3u2TYHvKn/ZJWyvGbD9xnPVloSQa/i68pcvGltrijHYqmSwGWwGG7MMNpAMNpAMNpAMNpAMNpAMNpAMNpAMNpAMNpAMNpAMNpAMNpAMNpAMNpCk7SUYbCWtW2+yP6zdR6/Sy9hLYNgnHXFty7+MnSuG3eBHrqu+jH3S9tvk211+IbvyrZ3R8A3nZdv3+WsOR3QLW5b7Gs5VcVNrr4e61tsxbL31f6P8xF5Zw+Ej5FTgfcOJuYZzhl3DlnVw92+qdHkHO/l897A7xFpS/6H++FL3sEnXx/V5ldZNZ760xIYP/7o+pzTBtuoYNkcPbDGBTc0L+zxakl4S8gxW+RQgLWqPWXq8Kl94hXvzkMpx3v2FIl+VV+SNTRgGbKTolX1mUaa7ysIN9egsGEUlfkUG9j3a6UBhICzyKX8jVZ9LKPlqKLJxYRNtVKwwg8VU58Ztt3g4ebTdnbxvfvCr5N+HkiiW8+laeVrG9jyk3fKU9iiTErfcz0+z1DCvcrZUZmeRa1llF6nbuLeiblUOP3KNK0LqAjZlljNbuRXGrkrbf4WqehJVtlBP8srOpPpjk+SwJCK7/PEWtQ9ASSVsKFU1HS0oGFPglDl81YjGhsbK29pGAfnlA62xYZSuVAf0rGAR7snpNsfaY8v9pFWtstVoQ24rdZPkSs2f4spmMFqubTmx7XmerVmFZkHZXryU2qH9D/JBziysWy2KAAAAAElFTkSuQmCC;fontStyle=1" parent="1" vertex="1">
          <mxGeometry x="1340.5" y="723" width="123" height="64.67" as="geometry" />
        </mxCell>
        <mxCell id="g6LIm--5TCJFVdgI6rz6-29" value="" style="endArrow=classic;html=1;rounded=0;entryX=0;entryY=0.5;entryDx=0;entryDy=0;exitX=1;exitY=0.5;exitDx=0;exitDy=0;edgeStyle=orthogonalEdgeStyle;" parent="1" source="9JEJFbvVPndM7wwkYAKE-12" target="g6LIm--5TCJFVdgI6rz6-28" edge="1">
          <mxGeometry width="50" height="50" relative="1" as="geometry">
            <mxPoint x="856.5" y="872" as="sourcePoint" />
            <mxPoint x="906.5" y="822" as="targetPoint" />
          </mxGeometry>
        </mxCell>
        <mxCell id="g6LIm--5TCJFVdgI6rz6-32" value="" style="endArrow=classic;html=1;rounded=0;exitX=1;exitY=0.5;exitDx=0;exitDy=0;entryX=0;entryY=0.5;entryDx=0;entryDy=0;" parent="1" source="77WKknoFe-UdvtvTZswO-19" target="9JEJFbvVPndM7wwkYAKE-19" edge="1">
          <mxGeometry width="50" height="50" relative="1" as="geometry">
            <mxPoint x="1056" y="580" as="sourcePoint" />
            <mxPoint x="1106" y="530" as="targetPoint" />
          </mxGeometry>
        </mxCell>
        <mxCell id="xQfZzW-gzSWbZSPTEg91-1" value="Solace Event Mesh" style="shape=image;verticalLabelPosition=bottom;verticalAlign=top;imageAspect=0;aspect=fixed;image=data:image/png,iVBORw0KGgoAAAANSUhEUgAAAZEAAAGRCAMAAACT/35lAAABC1BMVEVHcEwAyJUAyJUAyJUAyJUAyJUAyJUAyJUAyJUAyJUAyJUAyJUAyJUAyJUAyJUAyJUAyJUAyJUAyJUAyJUAyJUAyJUAyJUAyJUAyJUAyJUAyJUAyJUAyJUAyJUAyJUAyJUAyJUAyJUAyJUAyJUAyJUAyJUAyJUAyJUAyJUAyJUAyJUAyJUAyJUAyJUAyJUAyJUAyJUAyJUAyJUAyJUAyJUAyJUAyJUAyJUAyJUAyJUAyJUAyJUAyJUAyJUAyJUAyJUAyJUAyJUAyJUAyJUAyJUAyJUAyJUAyJUAyJUAyJUAyJUAyJUAyJUAyJUAyJUAyJUAyJUAyJUAyJUAyJUAyJUAyJUAyJUAyJUAyJU/FPv3AAAAWHRSTlMAIKBgEPDggMBA0DBwkFCw7x/+V9z2+5w8z+evh/ReiKboyH5M475k4uT5avyz7Fj4rLr12GuEHsqLmN9bgubFJypL8/qRzRSS2aT3qLSPLnrMg9Ua8sTqxmpBPAAAAAlwSFlzAAAWJQAAFiUBSVIk8AAAIABJREFUeJztXed63ciRvZEAyMssUaIoT/aMZ71e2+u4Oeec+f5Psh/FgC50qjqnbiTOrxkRF92o6q5c3ZMRI0aMGDFixIgRI0aMGDFixAg3LLpu3jSnbdu2R/cSVxcXFxdv2vZutXo/EnztmHar5rxd3qtxcdG2q+sDp8p2cDJv2mM9Jwa4ubi9Wy1eI93Wgm41w3kR4uZDu7o8QAJtEtO5EzN6fPi2+eb1ENAVJ6tzg8KwoW26A6LUJjCdr48bz7i4GzW+Et2pt6TK4erNx1GvVPDf89naN4fEh7vRbcni8t2HzXLjCW9HpiRhZcdx286apmm6ruu+DP/QfnLmrUz5tx0kyTaxenOlZkTTnHVTMddV+MDRsye46LqmOVez5ifz0YV8xl+0NwqKLdvT1YATT1gI1TOP/tzNmyj8lRxhdrK5j95hzM+rpDo6b9K8eMQsfLbNPaVy/Y9efaxl2tQWb9ucVYh0Ip4vL/OuqTo6r3qjdLMibZbnK41rLTTFrP78dD4rL4M2EnyvBPOi0j3WBjrOBBOVQqcSojlqXp/wWswL63Q5M9g94j2NYQpnp6UpnBYU1wFi0RSluYWujVjbRlJNV2/ys5i9Hp5U+KGXPQ80Fa86s0/mq8I8XglPqvzQ6ecn6CzfAqbliRw+TzT8qNqwPTrxK4h8p5XFceA8mWf4cbRaQKtdmGun0JQWtSVyesB211nGuJl1EWV0GmEe/sSgffIvSWFpsTT2CSdp/+PF9k/HC0tYCA6vUFoogiuH6DMu0v75cfCtZs9CWL7H8NSkMvp5cp7twcVWVklp3Qq/XFBmWdeo0kwiahlErPN8mk5jzg5KnXRJwRCZMUKsnXc1SEIS05OsnXffzH6QmO4PDkedpAVWwqws+wZlUEZqoxvj4kCqV85SQiBt5ld8gwK49bvQJLQe0B5A7co0ZWHl3K6qb5ADavk+o2oBP+MGtuh2BSmNXrBb1JQZgLZO9ZUSt3u9TVIb5LhoFGHFc0hAS6JTjPKEfd4miZhJzddS6tgBHKwgy1LY122ySJQ01HJzahUrYc2LxDizDHf/di+Nri7eIG3VRMW2iMMmsa6EO3bAzSOm7VE9ejiFbS0yZm5fCRd7JrmmsVjWFBPUS7dy0Oe4UkCs7qu9UvCxU3isidQZDJ4IVItOuUopB97C2xgiGaDMMIiNNavGteiM7jNkDd48M9xK1Hvf75HkWkROSF2jf4I1/1Sp99VDmYlcREGem72wud5HZovSELIT2J7jSkK/Erro296hg24O7353MGeVBplg+Se4ei6EJRMZ+1hvwFE3htvhjNXlCEj+yaEUxVqDFxktu61MLod9Uku9CSTTVev8kYT0gerzjQz7XXbgL98OJtvqZbs1pfsIh8SukEMqi22o4K9+jIy7CVwPO9cskh1UCXTxAyL4ogDR18DAG8BqwBCDxMLNJtoCFjJIuxIiyfVr+8Drx7vBJI8t1ihOWLKIDv350Mvnojhrwb9TUxSi2eZ+i+VqLTR1Wgm7WDw01HY2+SHDGDYFTVnAhBo6+R35xSaZsH5EoTobZaythAJEeIsy1S4HvvBOsSSOnZp8A6iV8AVWhyIA5858PvjmHWJJKphtoQwZDIEb3zAfqMcwyrUzLElmFwxCmWoljAJTBo6yYbEon6OO4a0XmXSPOsVGtxKiJiwfOo7yDstdYEku/6amjEPiCbIMHNIrcaEym/B3QD4hqvQNPOK3loM4XkD4QOl3fMLWdYlkiCzy11HXoZUQ2meMD/SCRMnEllkiGbI8sVPGpZUQaWKkfKAXJAqVt8qSIUPsvoFTK+HAXlPQhPOBeiSqU7fIEmGsPNoZVkuWtXxfYLVkXRLCmYomvCWShNyxj4afXPNtU4HUjEzNlfT2TmsDC5lFlQ2nqv6+daSyAbJ4+dkSt5U0CzCthJYOkAiID/SCZKveVuohToTK6F0jnDKcKY83MZK1icma4S1Uak8zDBlYlQaw9e1wEyPp1KU7LDZeyLUQNoYIHmBFtHQrIdzEiPpAL0i26l1tukJFyCYZzQEpwx90gTUx0ishI6ivNnvQttwHA82I9RLyASGstN7BVE3Ly7ebLK2Tq3Fe+qMafO0/aFNQltakYFN8oL9IDbkYBwwBWwnJDhCi+4RuYsz2Id2yb9ZCmlnDkBDaSkhTBl0JrJFXWAkbMrikmTVkCNxKyES1JsxKYHMaBbW5IYNLaPUoqgbavves1QMf4MGWv61Kb96Idi+Hz+UWruaOFi7ZkUmUIany1iU7MolWwio6rQt/sxYieBKnla0VhkYOZmHOInpkENPvkVJ97R29crjIq7Pnn5zaO835J6cmxlQNnlSl666FEASMjBTgM5EjTGMAmUifJsbkSuhcXq2D+PJYRiJltB45KygT6ZGzytTgCW6vVZWI/RgzHyujdaAMxFWPIpjc3IUoWefRtKESSRSLYVaGzHgjlAErf3mjKLsShLpdYw2XmEDMebSMlq4KAa0DuomxoAOFSbq2vLuwMBOUQ8UP6xvA4odtYiytBKFx13QurVCfiQoY3HghfQO4y4q0gMs+0Kz0Rx+clocgPo+jDFGDx5XvlaWtUCVrkVtCNiQMTGahM74BxU6mibHGTrGF1iG3QpmVIDinDAgLmFIGhAVc94HEOvOXW+GHp/Y3ZzDhlCENJjyIo/CBQpq4yy2xBRKxDraMFvYNSKcCbmLU/FA84x1yDNmd+m7W8UaXOttKCAdxVJvrjJxcAaFITO0APjgFqgM6BAMW5yvFbLiDXeNbwp5JyCyHAC5mMjkEcDELWGmk1QgHI9yiKVZ7JDkQyrgkORCbRD3Z8EHHuHxXGd4nEQj4Bi6JQKCJ0bASQn77OSVtZXifZLndAnZKltt3uEHphfaWm3KfVybs00oIUManldCuBU2GYcg9J+UuJpzgslcrodk38GolNDcx2nygUBqzdZvx+EdtDMEQqjBRUGaZGEpCrFRKRstPqI0rGzWqkiiUxi4Hm78fnr5YBLUI4JJhtkSVaNVTrIRQGntkeAt3yscg1wB6jRVt68OtehqLNhT7/N01k/emCbLGBEoZVhrATYyqNR9KYz68NTxTuQja4EabGOlYN9jEqFwJgTSmW7qKdcZDODSQYYXc/EmiYCG3Um2GeopdtReW+TmECTCO0M2dqFGh3ZuBNCaXrWmLOEgtVJ7TzjDYfaLVX6EFzBHJtEUcwgSoZmedYViza228wKmjNolxi9ACHb/IinSG4SvNtNZsyHJmkxi3CE2ZbXmIxJVmWvIGCpLYJNfByL/MBhUEGakEvxTmtigKZeeLuEg1iiI+WEten00SuOuFNeh2wZc1BusVc5bCWfEiKOYcbhJ0oqG7XiL0bkTjcQvYvKSgvMzUNkYSui2C3uERwZ7Lc7nGCslEQrnLYMGBWu8yCPqWmepDGUAWuDQxAoVJkKAOx8ECo6GfWXnUo2EYyT+5NDEiWgGqgQnWD7Z6bvoX1CQRcb3BM7DD3x2aGLEaPGS2oVhGQqPBLUj1FetcQad/A9/EiL0BEtTBbkRc6cA7rJsxdK4d3WV0rt18UPATkKtLQjbapxp6h4olwFrAsI4m61FgTQQVKgfr9g/MUw1MX9V3cr4Bbq2RNVtO3QrKUEWwbv/aOtPQ9FV9JlfXSPQ6UXWN0KUMj4As4OA3VtEe6HUl/xnfgJF5VBCHkXnIpIONZT2k+a35IwnfgIuMEfXxnF0AbOxQ+9iO3noPTBS3gMm+ctgChi/AegSi/AJf2nZsdnDNun4vo9/Hnr0A91mxXpT92upwV741jRX463p1h8oAOgYDXmtIRxqQFwTL1nKI48f+ZxYhgulJPk4JbjI+TglssuAnlsNnA2fEomcx38D7NCftGnKIWAOKKFg9N4aRAmfEZIAgvoHHWXCQsUZdWv0EwAIOBMlH9TiB0LLZ6PSpgGhyDaCMT+bTLqiDcfUuSSC0jDkH+4J3OlPUnMZ0qg6wO/1/3D9+pR6mv3ncnKO3Clb61LEnmJUCe7bWM6zmgVA9WrH1n/1PuANOFLfMOrUSmimzphOY6yJFrIT/Ug7y+8xUiQu+qBpV4rx6rkYVP6/+/v4HyjH6bwP8WPyCL7JEmaAMV62MF2Jq3e/P+h8gYmRbt13gTYxkRT/RxGg/SAGp7oAvOWCPDUGbGOmuF0JQ61Zhv9awash9uzWJbp8lBLVKYAbvB22f9bYr5YGJD4fD4Yg7VzSZxMDJw+QIKLb4s4526/Y9HTRm3rf9m7C5gm2vtDhHVTvdqseo9nvF+/uHMckOS1WWMrCRx7bqMeavwuMLhBbWJANvYbKJEdevZBMj4yJq7N+AoJCuJRrIuCZGuJWQPcyFCBaoDIu+uBSzfWUPXO3iemmluN2Yfz+rDSz73IhxpaG1rI17GvGvqj6Dr0LmZw3HCzOAMUSN4fj4ijYQ1qBzZAbUbMyAoojnZM46eDUxmvNPXq165uraoZ6t/SZ4HlG09mICa1dmGgBjfZoY7YwdHsZTo1KvRhDhipTRujQxAsLPpVUP6dIYeviVx/uaB0SNIPknD8pAmUiPJkakBm9onJWnG3SNANoOK6FzaGKEMpFTvokRy0kPzjYpEzooiQe8Eazyik+1g2WmfKseuJikk1/+XV/vq004BkC/kKYMWoPH1u6hAlf+7ofFZ3vF/lfm+cFSgPUN4Bo8tokRNkqkBVwcOHjO7BvgmpLzDQiXhquEwactBfU3hSev0SFIm4nyDQibiWh645xbYa3/S+HBvwkfNApWhqoMNymqMhYwEwAS3PygHcRGGU7yEJShJA+xzjkTMSRXqbVHahyLb0BqZ9w3ILUzXplPVmOGVkHhsUE2zMB4towWtoBZCxb9PXulWfj7QrOVZIiBMryXB1KG9mVQytJ9SEEtb74gO8r/qaUPHwnBpI/DoUVYEyPfhxQs4rzijMprtJTxiBayhx/6VGoomeqR1ul3Wd7YinP4SivWI6KOWLEuEXXEivWIG3/x8oKL7DOJ4gHVV/pknYCvdMk6Aeud8oGeEaz/7DOJwh4NZZwys/bXOGVm7a9x6UMKNnh2zJghKt/AqZXQrC3dqhesQtfnSrMTxdxTHDky3ZzFVfgIi7K+9ISYY+pYjF8wdejAnwhy58xf9IIcGx0LIKrvuCo4ovqOqPXqt3hOsDAEeQJZKYoXmXOVokQHCLES+q/NccR8t0UMspoapwxZTQ3X7jJ9SP3OzJm//bT+AZwf3XEAdjrQdfVwEyOzEnp65zjSk6MFKUN35YBlzXxXDtiqR12g1XMkd2ZNL9dmC2h+Dg1kmPhwuGb7WDFMDGolBEZ05omeIw24ZPjbrjHdzneVghqM6ioNLKnME/0y+RzsiaApg3ZA0+IStPIoxRlwJJMh6R/4Z5Aw7AVfsIJlr6uFWwkpedm/JuO0o7PyowzeQEZqEryVkBHU/VvWxxHugi/itBnONSVaCRnXtH9LOoySDqIsT2uNXCIEQdmh4k3VjjnZucaEb6TNXe2Yk/wjBHX/AWkFnA6iKMSB1xlZ1vyT12lp5syM12lp/4twRGNMuORvkEykUxrAfAmBVxrge4QjKoPb5YIvIHHklCqzZyJ9UmXBStZzREdelwu+EPK6pJMR8rqkk4OXpE81TXlnSuHscMEXJpwdSi6gC588Si5CHygdakyYgGo1zWfVMDXtQBlsNTkI6pBmWo7o5QBbcwmfxk+X7oE1eHzpniD3/9UfsS521gJGWUpbwMCNFZ/ACmqpNtOH+kccsYzDUgYWe6RvAIs98jaZQVd7eilEHDEZTZxvgJfRkr4BbhpwJUIDw1bHERtZKd+A+THlGzA/pgT1IPqv44hRPzO+AWW5EL4BtYyYUMXQ01BxxOz34AKAC8MQFjCnhPB1FOWBNByxe8A4ZUhDDaYMaY7goYpIZadn/WvxDBA/Q30DtowW9g1AH+gFqD0S54HSHBFLDQmFoEuOdvhB34B3a8GZx0WtaY6IFQNlGzCxzAfFQN+AD/1gPE2EdNMcuQuewHKVkG/gcKgSJvc8rjSDNGCiNCzNkXCGYNYaMe9dkisAZVySK4igTsXY01MOOAJXdth9A5dWQsR+9kmz2ZsYk4W0aYIHHIHLF+z09TnA0k5fp1S0facl616qHEHnZ6eM1yGvZt/Aq1zD+gHpctYqR/DqBamnV10FZ16thAM9fVYbWKxUqqRJ1ijVxu3SFd8ZNdE/QFTaEMVoXEEkccMBVRDp0JmWFXf9A27tnSZwRcM4ZcjSWKKJ8QWZT+8fYErN4aJm8tIJvImRLKyHW/WCtZvhSH9NPrWNUcqwzScoZegWC1RQf93/Z4Yj/UGmFEfAJmy+Twps1aPbkMAei7be0dNzhLubBdskfH8Wpkn4/ixwk8zrHOkvAadmuW97hL72D2xnbXtG5i7fqXe8qzDqESXOq1MIgr/E/NBWQpoye2dr/aL66S5hFPzCYdIfwW8l3L4/kovnBRzBiTP67J4T6B+BOWKNayGF6UnITKQxrsWoMGNcKylbs3JTwbQaXl3s15qJTGqd7AboHRI0UUHmR3DKmPMjTk2MPvmRLCN7jqB2j72KztwEmASQf/JpYrS/JeW9ZB/u1+v32PzGPLsCsXuQzwYHt1hB84M+0qOJEdJGu1OLko96s/dO70a9lnrqfL2WrEqC67XyY1/2D/0eML+9rmmEgjjgzId3VBakSX8/JbJJ0DJabKX1gOt+2SZGdHcP634LU+6NLbY23kTY114bX3jyNnjMTBlc+HCU2fv+kZKGeBc+aPQNGNOF8g2E6bKPPValKyo/wykz9iHCPy4SWrB9D3t1zY4evsG4iFy4wfKXJk0mkx8KyoAjvMJ+drtl+tv+x+9Lz0lLeVtnPhgoQwcMUfXM+rX9DT1Xxefk0fF6E5a/kQP0DdhWwq2di6K5xWoS15Hs19lBWOJpO2cHLdS/lhzZ+fO1HO5mgZoY6QBMIFQqOkh1OsQQu3EGHXo+NWI00SetBabpZfnJYYbr1Z3TqBLUfC66Z2npnuNJosZGs/B80oCAb+B0lqnZ+eZXQqBG0kdrJR99hPW8X+JGDqtwZn2gF2z+vN9g4Rf9w0kqwbXBM7Hl5W07eya2rC+GVoJejeD3Fj1ha+fGU3ezbPzc+N6+q6kRpljz/jXerYD5QIHzVVMjCUViwr7ePwKXimIrIbDaq2qEuZOQbyWEd+ie3dETqN6qGqFk6niPlRK2mTN3udKEAQ2LPbvrTR9CeQRR9k9dfTZ5NfchBla+/VAdG/b3zlDU7oYiFP1gOouEsX/He3UVCAy7f9T9AibLa7x7GrDyAkHwK90vfoLPb7yfXYFeUf+P8hdfixGrq17S0e2Qm7rSFEqH8RGNwesplycLtMKfKX/yGyOF7SfjpSEzkXUjgS0HeYE1/8RVFQSWk8Jhf8QHG4GdEkf2TKRTE6P9xHuq8ib4TIXD/oig2PTnmud9KANkIl0yM8CCYjIzwQZL3yeWQtBHkjuxQ8Lhgi+ojNYle4lkIonsZWBFqIWWEFuqNeNxRCwkCRwy/FBZEi6og9h6uXRO4u/7n+kMffQ2qB6Y5HOogsF0AlwFE/xQL7Rks5VqxdMlfqjdRFeKoTV4qAUc/M5kHb6xjsZSBv49W0OH/h7kZPCzG9M8r63kIX0DfI+RFcdWH6gHVqgcKD6jcO9P0VTqLc4CJjQ05RsQegizCIKfFJsUYgSnnykJxPgGjK1GVW0xthpStRXo9fTFrXkELomSQoxvQLQSUr4BdZw/YgEHsv2dbTSh25WiAF9vnMQjgjhcH5J92oHSszgjj/jOTCNYJrNxMdg3YKM/5q0drICvzKOFG0xpFKIWLF1GC1qwdOyYKVQ26vWJXEC64BZKGf7sMdA34PuQjII6eLzc6pZGKEuUkgTzDegr1sFX8FesG18RLj0omxPYMNoFhGhKjygltM08+pBM2ywY0OavPyP8TOUmQXwDh1ZCSBW5XGlmUUWhd2g2fR8R8FS7Sey+gUsrIWKuUT7QCwzmWrBq7KbvI8IVDx3xp/iRU0bYbsh6HWurFtThl8J1yq39HdYl79RKaF7yXitB7/aHW0SdXx+iAyYtBGu1c01WtDKVRVItVDvX5DSJcaWBsMwO+PnPXFZesEm0moSoguPuoSHKlanqO6BkGPAOn4FsErhSlKxQxZsYyT4kc82wKZs7BLBJ4Bpatr4drqZm+5Cs7R3EFpGbROtmgpRhWwnhJka6HcjYTEBtEbFJtCYi2ItBtxKCXTl0z4tVUFNbRG4S7WLC1ip9wRfY+ELvTaNRQW4RyX+dwAUbyPjuTtCmoFv1TJ2buC/yjHCTqIwSuIGMpQx6pRndxGhaCQ7XL4bjaQx3+BgPUqDjV5qRqt0kLPktIq1ZhXNLNJBxlCH68Dnz17QS7qihnhDqrboFLLbwsq1AfA3lIsqVcFQbWDxNuYhyJSSG+ir48y+YkV4QKoaqzJUJ1rr95HXBlzWN6HY217Qasgw/kTfxPyFcBbVvteafnC74suefPA77nGgykfPK3yGEZC4TzZ5/cmpiNPcUSZMQbmKsrgQxDu9zPSG0JopkBrIOPokKIP/kk7Kq1tbOKn93GLf0WqSYwN6XGQNiq0cTY5WtXeXvKIS0z289rIzWoYkREn0OpQ/VwgfxAHVi4hChHsx/MWY48ZQBzQO+PKhqHpyyI+QR8jq3jtHmGrqEDjShp2wTY3UliMXmptYT706vQugA9omDBQwf589awLWltNCsYxjhFk/bW/j3kZTBa/C46r2quK3TjIEwZ1KWCVFGy/kGRA0e18RYM0nE28lTXlMQ708IXUZPMr4B1dLOBHFqk66uYRqh1IylNWcxEb4BZTER4a2qDxR+k7/MiqYQfTrnb+H8pFoJGX7WfCChHNcgsyZDuTWQm2xMAqYMGTyGgzg1A1GssbXIrMmQbGISdNwO9Q3oK81Qu6CyEgRB1iOzJkP7Wnw+fyMHZgHDPlAP7A01H0gwzNk3DCGEdkB4jywHRBmHLAfmX1Zm25T/7AgxUr9XHVoJIfnj0EqIXalYOU5FfItzPGsIMf1nRejSQIboaJcrzYANXvGBTsI/kwXmxrk8CUiPQwER38BnJQCx/PJKWAh6OKXW85Bi99N+9cg5TZAV73SlmdkCrvhAXjetaSHNqoVjA5nVhPZaCWZnqixf5f1o+Kz0+D4c8cu2FQyh1Ji8Z7lWciVrrqgEnRAzxiKzIQMle9esRB5xeXOfBxcuwK8+4dYi0ao3VJt+Z7YbcJ2dHtlKSFCG/HT4KP+hD3TiU3Rkxbvc/OhNijYxsleawU2MXek95Pq04DYzP9o7Reu4aXEN1nEP1Ka0e4/XFs5K4CI5v023K72ANzHBXge5EiRDPMuz6rh8m5qfwxwwjvDiAexDkkJL9gWsMb6Ywvur1ATptYqqdvrrwT4kIbXkaqKb6ay4TrJkW5qdjebBfUgB3SVDNmZm9UgaXCRl0FZCOnqEH1TxIqglQzZoZvVIsoQ7YgT3EDmjgrhw8Nm8lAyhLxjG8LfelBEmaDWYIcM3lOEtVkK1Y05e+PooqCVDNmr3hkgZRoT8tOaf4OrSIayZyDhBtyMMSbKEsIDN18o4NTGaa/CiHJekw2YdEYlF4sZmmDL2/JNTE6M9Ezko9BgwZMOOiESKJeiEgEyky5mCwBUEclf9docYkmQJSBmkBs8lWYak/PJm+rYZkmQJ5BtgxHU4mxarxsw5MNtnSIolkAUM1uDRRRfgcf6ZcM8uMCTFEoAyqJKmy1HQGrxkSHQ3GJJgCeAbwIYsWbwH1+Clcly7wpAES76wvgF39kgLGL9aM85x7Q5DJpPFUNH91PgCoqCaKgInhN7iRzvMkFis3tgWK2MyUY0ShGGw+CP5yccbKQQyYKjpLKTh3AqimYj46clAj3y5xdBJBsMs3Ew/RdL1hqs6iZUgi/3u7986nPbnjqEfe6yVq2QrIa4MYBW0GEoE+sjY9eCzQaJ3qXTe6RAu2LQAm2knQ9vyFpj0RvCXw9y7SoTQrYSoU4GuhPnQFQHvQNoEoqIhjeRyuMgKcrxBHyiSWFdbKHLQ4/LDYLrL6nRdDkxEuIqthJNhLcDba3DOm0IUFD0vyyH6SKVPACQf5gNFnvrFLhpZEh+HyqSs4F1aCQGdAFm+0yio+ofwjDeI66gC9TS/Ap1aCe0WNOIDrYYqfbnxwkUMkTK5P8ptk4Vbz57ca1UhBKRyp5FAVntc28fdcO4qUDUc8JUOWsu3iQaoaMjdwnWpMy4HzoocxjV8V0LkFG6lspdBLLmqYLtP1njbxSIund8jifWMu2TxfAFsFyXa6VBfCZGTboqj7g5im6sIvngZLHCv+UAn8Xu1Ebudg4lEfMIH2ySVmG8UNHkw5XYtOaXHyqDgedMe0+1Fvb6ILSxFYGiXcZnr6jVSRgPU/i3YvvOEtbDHG+QR+m3Ctl7DV5rlrKYUP/Z7gzwiqlPJgrzpGGVIJobSpazp833fII+4Tne/KymjBdxKmLS25qnX7a2JFeNf/ynxfT9rP28aj2P9PkHG42sX5jeici7ySFLyqhgw3T+kbMgHwk29Lvgy55/yzy/S/Gj3z0kvI+FnPeCLPw3/D1ebZs7KPdWrh5S9+/DKPYm7m5BeegKwBQwc55/McZ2kTwFZNocksHpkll+KMlYAmchEbdA80cP3aVaHYWGlkIihDoAJa6gGb5BFPDnNrJeDUyAS08rhQJgFDGUipaQbVrq/TGhDB/ttERWeICY/WFCtiIO9An5Majz5kf19YCvhoFchxY9DNLDSKPHkl3OrHoV9mnL4/pXsj2cU98nxyqJM0VbC6bx0gukr48ekagsfzc60+gCqwetOiyLrgO3dIio+4/Gphiv2GryuKUcll80r5ccDutpJmcenNbViaiVcnFW4cX9//HrUeRrTphpcWbbNWZYtast30TXn9aFmh+0OKnFKqo2nAAABEElEQVSmOVJ22Z6uuso1kLlcfTdvWk0119s/OczwFYDFquYaPKM9b1ZdYAYVWwlPunkza5Xp95vb97tNpE3jz78yFaYete1p06x+Kv6xm3QPmDdNM7wMo4KrNweQP/fH9S1SLczj6s3HQyOlH65bWyEkj6PZrw6FeOvC+zt7ETeK42Y0rXT4eLv+rXI0m4+WlQW/+W6mtb/sWJ6bImcjnvF3n83+w50bxzNzcHmEwPXdG2UFXhVH503CyRyB4Ppje8GolqMHj3+kvDuuV217YdswR+2sORt5sW58t3rXtm8uLi4yjXVt2543D9GWUURtBYvV6sfdE0adPWLEiBEjRowYMWLEiBEjRoxYByaTyf8D76NUnST/LosAAAAASUVORK5CYII=;fontStyle=1" parent="1" vertex="1">
          <mxGeometry x="733.75" y="341" width="44" height="44" as="geometry" />
        </mxCell>
        <mxCell id="xQfZzW-gzSWbZSPTEg91-16" value="Drillling Machine RPM &amp;amp; Temperature" style="text;html=1;align=center;verticalAlign=middle;resizable=0;points=[];autosize=1;strokeColor=none;fillColor=none;fontStyle=1" parent="1" vertex="1">
          <mxGeometry x="1215.5" y="308" width="220" height="33" as="geometry" />
        </mxCell>
        <mxCell id="xQfZzW-gzSWbZSPTEg91-17" value="&lt;b&gt;Molding Press Temeprature&lt;/b&gt;" style="text;html=1;align=center;verticalAlign=middle;resizable=0;points=[];autosize=1;strokeColor=none;fillColor=none;" parent="1" vertex="1">
          <mxGeometry x="1232" y="561" width="187" height="33" as="geometry" />
        </mxCell>
        <mxCell id="xQfZzW-gzSWbZSPTEg91-18" value="&lt;b&gt;Molding Press Pressure &amp;amp; Cycle&amp;nbsp;&lt;/b&gt;" style="text;html=1;align=center;verticalAlign=middle;resizable=0;points=[];autosize=1;strokeColor=none;fillColor=none;" parent="1" vertex="1">
          <mxGeometry x="1233.77" y="825" width="209" height="33" as="geometry" />
        </mxCell>
        <mxCell id="_zO1we62mpMkqIYxOciC-1" value="Alert Email" style="sketch=0;outlineConnect=0;fontColor=#232F3E;gradientColor=none;fillColor=#DD344C;strokeColor=none;dashed=0;verticalLabelPosition=bottom;verticalAlign=top;align=center;html=1;fontSize=12;fontStyle=1;aspect=fixed;shape=mxgraph.aws4.email;" vertex="1" parent="1">
          <mxGeometry x="1604.5" y="718.67" width="78" height="69" as="geometry" />
        </mxCell>
        <mxCell id="_zO1we62mpMkqIYxOciC-2" value="" style="endArrow=classic;html=1;rounded=0;exitX=1;exitY=0.5;exitDx=0;exitDy=0;" edge="1" parent="1" target="_zO1we62mpMkqIYxOciC-1" source="g6LIm--5TCJFVdgI6rz6-28">
          <mxGeometry width="50" height="50" relative="1" as="geometry">
            <mxPoint x="1464" y="753.67" as="sourcePoint" />
            <mxPoint x="1538.5" y="743.67" as="targetPoint" />
          </mxGeometry>
        </mxCell>
      </root>
    </mxGraphModel>
  </diagram>
</mxfile>
